<?xml version="1.0" encoding="utf-8"?>
<!-- Generator: Adobe Illustrator 19.0.0, SVG Export Plug-In . SVG Version: 6.00 Build 0)  -->
<svg version="1.1" id="Layer_1" xmlns="http://www.w3.org/2000/svg" xmlns:xlink="http://www.w3.org/1999/xlink" x="0px" y="0px"
	 viewBox="-238.9 347.5 52.4 101" style="enable-background:new -238.9 347.5 52.4 101;" xml:space="preserve">
<style type="text/css">
	.st0{fill:url(#XMLID_2_);}
	.st1{fill:#5F5934;}
	.st2{fill:#F8EE4B;}
	.st3{fill:#FFC709;}
	.st4{fill:#FAF28B;}
	.st5{fill:#FDFCE6;}
</style>
<g id="XMLID_62_">
	
		<linearGradient id="XMLID_2_" gradientUnits="userSpaceOnUse" x1="-238.9" y1="365.3731" x2="-192.6332" y2="365.3731" gradientTransform="matrix(1 0 0 -1 0 795.2)">
		<stop  offset="0" style="stop-color:#050505;stop-opacity:0.1"/>
		<stop  offset="1" style="stop-color:#050505;stop-opacity:0.1"/>
	</linearGradient>
	<path id="XMLID_60_" class="st0" d="M-192.7,435.1c0.7,8.8-16.8,13.4-23.3,13.4c-12.7,0-22.9-6-22.9-13.3
		c0-7.4,10.3-13.3,22.9-13.3c5.4,0,6.2,0.3,9.6-4.1c1.7-2.2,3.7-7.6,7.3-6.5c5.2,1.6-3.8,9-3.7,11.5c0.2,4.5,5.4,4.1,7.9,7.3
		C-193.5,431.9-192.8,433.6-192.7,435.1z"/>
	<g id="XMLID_63_">
		
			<rect id="XMLID_55_" x="-206.5" y="387.9" transform="matrix(-0.9415 0.3369 -0.3369 -0.9415 -262.6185 846.5436)" class="st1" width="3.5" height="25.2"/>
		<g id="XMLID_64_">
			<path id="XMLID_53_" class="st2" d="M-193.2,376.9c-3.3-1.8-6.9-2.8-8-3.7c-1.8-1.5-9.1-8-6.5-10.2c2.7-2.2,2.7-8.2,1.3-13
				l-17.8,4.8l0.9,2.9l-1.4-2.6l-12.6,6.1c2,4.6,5.8,9.2,9.3,9.2s1.9,9.7,1.5,12c-0.4,2.1-5.4,8.2-4.9,13.6c0,0.6,0.1,1.1,0.3,1.7
				c2.2,6.1,13.8,7.5,26,3.1c12.2-4.4,20.4-12.8,18.2-18.9C-187.7,379.4-190,377.8-193.2,376.9z"/>
			<path id="XMLID_44_" class="st3" d="M-223.4,358.9l-5.2-2l-8.6,4.1c2,4.6,5.8,9.2,9.3,9.2s1.9,9.7,1.5,12
				c-0.4,2.1-5.4,8.2-4.9,13.6c0,0.6,0.1,1.1,0.3,1.7c1.7,4.7,8.9,6.5,17.8,5.2c-13.7-7.1-2.5-23.4-2.6-25.1
				c-0.1-1.8-0.9-7.7-4.4-9.2C-223.8,366.8-223.2,360.1-223.4,358.9z"/>
			<path id="XMLID_43_" class="st4" d="M-187.7,383.3c-0.1-0.4-0.4-0.7-0.7-1.1c0,0.3,0,0.6-0.1,0.9c0.3,4.6-7.3,10.9-17.8,14.7
				c-9.7,3.5-18.8,3.6-22.3,0.7c2.3,4.1,12.4,4.4,23.3,0.5C-194,395-186.1,388-187.7,383.3z"/>
			<path id="XMLID_42_" class="st2" d="M-206.1,350.5c1.3,3.6-4.8,9-13.5,12.1c-8.8,3.1-16.9,2.8-18.1-0.8c-1.3-3.6,4.8-9,13.5-12.1
				C-215.5,346.5-207.4,346.9-206.1,350.5z"/>
			<path id="XMLID_41_" class="st2" d="M-207.4,350.9c1.2,3.3-4.4,8.2-12.4,11.1s-15.4,2.5-16.6-0.7c-1.2-3.3,4.4-8.2,12.4-11.1
				C-216,347.4-208.6,347.7-207.4,350.9z"/>
			<path id="XMLID_40_" class="st5" d="M-220.4,360.4c-7.3,2.6-14.1,2.5-16.1,0c0,0.3,0,0.6,0.1,0.9c1.2,3.3,8.6,3.6,16.6,0.7
				s13.5-7.8,12.4-11.1c-0.1-0.3-0.3-0.5-0.5-0.8C-207.9,353.4-213.1,357.8-220.4,360.4z"/>
		</g>
	</g>
</g>
</svg>
