<?xml version="1.0" encoding="utf-8"?>
<!-- Generator: Adobe Illustrator 19.0.0, SVG Export Plug-In . SVG Version: 6.00 Build 0)  -->
<svg version="1.1" id="Layer_1" xmlns="http://www.w3.org/2000/svg" xmlns:xlink="http://www.w3.org/1999/xlink" x="0px" y="0px"
	 viewBox="-238.9 347.5 52.4 101" style="enable-background:new -238.9 347.5 52.4 101;" xml:space="preserve">
<style type="text/css">
	.st0{fill:url(#SVGID_1_);}
	.st1{fill:#5E5833;}
	.st2{fill:#8FD34C;}
	.st3{fill:#6FB827;}
	.st4{fill:#A8F759;}
	.st5{fill:#9AE352;}
	.st6{fill:#E5FFCC;}
</style>
<g>
	<linearGradient id="SVGID_1_" gradientUnits="userSpaceOnUse" x1="-238.7873" y1="429.6354" x2="-192.7368" y2="429.6354">
		<stop  offset="0" style="stop-color:#030302;stop-opacity:0.1"/>
		<stop  offset="1" style="stop-color:#030302;stop-opacity:0.1"/>
	</linearGradient>
	<path class="st0" d="M-192.8,434.9c0.7,8.7-16.7,13.3-23.2,13.3c-12.6,0-22.8-5.9-22.8-13.3c0-7.3,10.2-13.3,22.8-13.3
		c5.3,0,6.2,0.3,9.5-4.1c1.7-2.2,3.7-7.6,7.3-6.5c5.1,1.6-3.8,8.9-3.7,11.5c0.2,4.5,5.4,4.1,7.9,7.3
		C-193.6,431.7-192.9,433.4-192.8,434.9z"/>
	<g>
		
			<rect x="-206.6" y="388" transform="matrix(0.9417 -0.3364 0.3364 0.9417 -146.6574 -45.5615)" class="st1" width="3.5" height="25.1"/>
		<g>
			<path class="st2" d="M-193.3,377c-3.2-1.8-6.9-2.7-8-3.7c-1.8-1.5-9.1-8-6.4-10.2c2.7-2.2,2.7-8.1,1.3-13l-17.7,4.8l0.9,2.8
				l-1.4-2.6l-12.5,6c2,4.6,5.8,9.2,9.2,9.2c3.4,0,1.9,9.6,1.5,12c-0.4,2.1-5.4,8.2-4.9,13.5c0,0.6,0.1,1.1,0.3,1.7
				c2.2,6,13.8,7.4,25.9,3.1c12.2-4.3,20.3-12.8,18.1-18.8C-187.8,379.5-190.1,377.9-193.3,377z"/>
			<path class="st3" d="M-223.4,359l-5.2-2l-8.6,4.1c2,4.6,5.8,9.2,9.2,9.2c3.4,0,1.9,9.6,1.5,12c-0.4,2.1-5.4,8.2-4.9,13.5
				c0,0.6,0.1,1.1,0.3,1.7c1.7,4.6,8.9,6.5,17.7,5.2c-13.4-7.1-2.4-23.3-2.4-25.1c-0.1-1.8-0.9-7.7-4.4-9.2
				C-223.7,366.9-223.1,360.3-223.4,359z"/>
			<path class="st4" d="M-187.3,383.2c-0.1-0.4-0.4-0.7-0.7-1.1c0,0.3,0,0.6-0.1,0.9c0.3,4.6-7.2,10.9-17.7,14.6
				c-9.7,3.5-18.7,3.6-22.2,0.7c2.3,4.1,12.3,4.4,23.2,0.5C-193.5,394.8-185.6,387.8-187.3,383.2z"/>
			
				<ellipse transform="matrix(0.9418 -0.3362 0.3362 0.9418 -132.7054 -53.8549)" class="st2" cx="-221.9" cy="356.3" rx="16.7" ry="6.8"/>
			<path class="st5" d="M-207.5,351.2c1.2,3.2-4.4,8.2-12.3,11c-8,2.8-15.3,2.5-16.5-0.7c-1.2-3.2,4.4-8.2,12.3-11
				C-216,347.6-208.6,347.9-207.5,351.2z"/>
			<path class="st6" d="M-220.4,360.5c-7.3,2.6-14,2.5-16,0c0,0.3,0,0.6,0.1,0.9c1.2,3.2,8.5,3.6,16.5,0.7c8-2.8,13.5-7.8,12.3-11
				c-0.1-0.3-0.3-0.5-0.5-0.8C-207.9,353.6-213.1,358-220.4,360.5z"/>
		</g>
	</g>
</g>
</svg>
