<?xml version="1.0" encoding="utf-8"?>
<!-- Generator: Adobe Illustrator 19.0.0, SVG Export Plug-In . SVG Version: 6.00 Build 0)  -->
<svg version="1.1" id="Layer_1" xmlns="http://www.w3.org/2000/svg" xmlns:xlink="http://www.w3.org/1999/xlink" x="0px" y="0px"
	 viewBox="0 0 100 26.7" style="enable-background:new 0 0 100 26.7;" xml:space="preserve">
<style type="text/css">
	.st0{fill:#B1722A;}
	.st1{fill:#DD9C34;}
	.st2{opacity:0.7;fill:#EAB55B;}
	.st3{opacity:0.7;}
	.st4{fill:#D2882B;}
	.st5{fill:#FBB75B;}
	.st6{opacity:0.25;fill:#212120;}
	.st7{fill:#EFEEEE;}
	.st8{fill:#767676;}
	.st9{fill:#E1E1E0;}
	.st10{fill:#BEBDBD;}
	.st11{fill:#FAFBFC;}
</style>
<g id="XMLID_32_">
	<g id="XMLID_59_">
		<rect id="XMLID_30_" x="0" y="1.3" class="st0" width="100.7" height="25.4"/>
		<rect id="XMLID_29_" x="0" class="st1" width="100.7" height="25.4"/>
		<path id="XMLID_28_" class="st2" d="M100.7,0c-2.7,0-4.8,0-4.8,0c-0.4,0.1-0.9,0.2-1.3,0.3C82.9,3.2,70.2,5,58,6.7
			c-12.8,1.9-25.8,3.2-38.9,4.2c-6.4,0.5-12.8,0.9-19.2,1v7.6c10,0.9,20.1-1,30.1-1.8c5.6-0.4,11.2-0.5,16.8-0.8
			c4.5-0.3,10.5-0.5,14.7-1.6c0.9-0.2,1.7-0.6,2.6-0.9c1.3-0.4,2.8-0.7,4.3-0.9c3.4-0.5,6.9-1.2,10.3-1.4c3.4-0.2,6.9-0.1,10.3,0.1
			c3.9,0.2,7.8,0.3,11.7,0.4V0z"/>
		<g id="XMLID_71_" class="st3">
			<path id="XMLID_27_" class="st4" d="M100,0c-2.2,0.3-4.4,0.8-6.5,1.2c-3.6,0.7-7.1,1.3-10.7,2c-1.6,0.3-3.2,0.5-4.8,0.7
				c-1.7,0.2-3.4,0.2-5.1,0.3C61.8,4.6,51,6.1,40.1,6.9C35,7.3,29.9,7.6,24.8,7.8c-2.3,0.1-18,1-24.8,0.7V7.2C3,7.2,6,7.1,9,7
				c1.6,0,3.2-0.1,4.7,0c1.5,0.1,3,0.3,4.6,0.4c2.9,0.1,5.7-0.6,8.7-0.8c2.8-0.2,5.6,0,8.4,0c2.2-0.1,4.4-0.3,6.6-0.6
				c5-0.6,10-1.2,15.1-1.7c2.4-0.3,4.8-0.5,7.3-0.8c2.5-0.3,5-0.6,7.6-0.8C76.9,2.1,82.1,1.5,87.2,1c2.9-0.3,6.4-0.3,9.2-1H100z"/>
			<path id="XMLID_26_" class="st4" d="M100.7,5.6c-0.7,0-1.4-0.1-2.1-0.1c-2.9,0-5.9,0.3-8.8,0.3c-3.2,0-6-0.5-9.2-0.5
				c-2.5,0-5.6,0.3-8.1,0.5c-5.7,0.4-14.2,0.8-18.2,2c-0.8,0.2-1.5,0.5-2.5,0.7c-1.2,0.2-2.8,0.3-4.2,0.3C42.9,9,38.2,9.2,33.4,9.4
				c-3.2,0.1-6.5,0.3-9.6,0.6c-2.2,0.2-4.4,0.5-6.7,0.6c-5.5,0.1-10.2-0.4-16-0.2c-0.3,0-0.7,0-1,0v0.4c0.1,0,0.3,0,0.4,0
				c2.8-0.1,5.5,0.2,8.2,0.4c4.8,0.3,10.1,0.2,14.9-0.3c2.8-0.3,5.5-0.7,8.4-0.9c8-0.6,16.9,0.5,24.1-0.7c3-0.5,5-1.2,7.9-1.7
				c5.4-0.9,13.3-0.8,19.4-1.1c5.9-0.3,11.8-0.2,17.5,0.1V5.6z"/>
			<path id="XMLID_25_" class="st4" d="M100.7,8.8c-2.2-0.2-4.3-0.5-6.6-0.5c-3.7-0.1-7.3,0.4-11,0.5C79.3,9,75.5,8.8,71.8,9
				c-5.3,0.3-8,1.7-12.6,2.3c-4.5,0.6-10.4,0.2-15.1,0.3c-1.2,0-2.5,0-3.7,0c-3.8,0.1-6.3,0.9-9.9,1.1c-4.1,0.2-8.5,0.1-12.5,0.4
				c-2,0.1-3.9,0.5-5.9,0.5c-4.4,0.2-8-0.6-12.1-0.5v1c0.2,0,0.3,0,0.5,0C3.1,13.9,5.8,14,8.4,14c2.3,0,4.5-0.1,6.8-0.2
				C28,13.2,40.7,12.6,53.4,12c4.1-0.2,8.3-0.4,12.2-1c2-0.3,3.9-0.7,5.9-1.1c10.2-1.6,19.5-0.3,29.3,0.2V8.8z"/>
			<path id="XMLID_24_" class="st4" d="M100.7,11.8c-3.3-0.2-6.6-0.5-10-0.6c-5.7-0.1-9.1,0.5-13.6,1.5c-1.2,0.3-2.6,0.1-3.9,0
				c-4.5-0.4-9.7-0.1-13.7,0.8c-0.3,0.1-0.7,0.2-1,0.2c-0.6,0-1.1-0.1-1.6-0.1C52.3,13,44,13.7,39.6,14.2c-2,0.2-3.9,0.6-5.9,0.7
				c-3.3,0.2-6.5-0.3-9.7-0.1c-2.3,0.1-4.4,0.5-6.6,0.7c-3.9,0.4-7.1,0-10.8,0c-2.1,0-4.3,0.2-6.4,0.5V17c0.5-0.1,0.9-0.2,1.4-0.3
				c3-0.5,6.4-0.7,9.7-0.8c2.2-0.1,4.5-0.2,6.7-0.3c4.5-0.2,8.9-0.2,13.4-0.2c2.9,0,5.8-0.3,8.7-0.5c7.9-0.6,15.9-1,23.9-1.4
				c5.3-0.3,10.7-0.5,16-0.8c6.2-0.3,12.4-0.6,18.5-0.5c0.8,0,1.5,0,2.3,0V11.8z"/>
			<path id="XMLID_23_" class="st4" d="M68.9,0c-0.2,0.1-0.3,0.2-0.5,0.4c-1.8,1.2-5.1,1.6-8.1,1.7c-3,0.1-6.2,0.1-9,0.8
				c-1.1,0.3-2.1,0.6-3.1,0.9C43.6,5,37.9,4.9,32.5,4.8C22.4,4.6,12.2,5,2.2,5.9C1.4,5.9,0.7,6,0,6V5.1c2.7,0.2,5.6-0.2,8.3-0.5
				C20,3.3,32.8,5.1,43.8,2.9c2.3-0.5,4.4-1.1,6.8-1.4C55.7,0.9,61.9,1.6,65.7,0H68.9z"/>
			<path id="XMLID_22_" class="st4" d="M43.5,0c-3.1,0.8-6.7,1.1-10.2,1.4C29.9,1.7,26.4,2,23,2.2C17.8,2.4,12.2,2,7.2,2.8
				C4.6,3.2,2.2,3.6,0,3.2V2.1c1.5,0.3,3.3,0.3,4.9,0.1C7,2,9,1.5,11.1,1.3C13.4,1.1,15.7,1.1,18,1C23.3,1,28.6,0.6,33.8,0H43.5z"/>
			<path id="XMLID_21_" class="st4" d="M100.7,14.9c-5.1,0.4-10.1,1-15.2,1.1c-0.9,0-1.9-0.1-2.7,0.1c-0.6,0.1-1,0.4-1.6,0.5
				C79.5,16.9,77.8,16,76,16c-1.6,0-2.8,0.6-4.4,0.7c-0.9,0.1-1.9-0.1-2.8-0.2c-1.1-0.2-2.1-0.4-3.2-0.5c-1.4-0.2-4.7,0.2-6.5,0.2
				c-2.7-0.1-5.5-0.1-8.2,0c-3.3,0.1-6.6,0.4-9.9,0.7c-5.9,0.5-11.8,1-17.7,1.5h14.1c8.6-0.8,17.3-1.4,26-1.2
				c7.6,0.2,15.2,1,22.6,0.2c3.7-0.4,7.2-1.2,10.8-1.6c1.3-0.2,2.7-0.3,4-0.3V14.9z"/>
		</g>
		<g id="XMLID_63_" class="st3">
			<path id="XMLID_20_" class="st4" d="M100,16.5c-2.2,0.3-4.4,0.8-6.5,1.2c-3.6,0.7-7.1,1.3-10.7,2c-1.6,0.3-3.2,0.5-4.8,0.7
				c-1.7,0.2-3.4,0.2-5.1,0.3c-11.1,0.5-21.8,1.9-32.8,2.8C35,23.8,29.9,24,24.8,24.3c-2.3,0.1-18,1-24.8,0.7v-1.3
				c3-0.1,6-0.1,9-0.2c1.6,0,3.2-0.1,4.7,0c1.5,0.1,3,0.3,4.6,0.4c2.9,0.1,5.7-0.6,8.7-0.8c2.8-0.2,5.6,0,8.4,0
				c2.2-0.1,4.4-0.3,6.6-0.6c5-0.6,10-1.2,15.1-1.7c2.4-0.3,4.8-0.5,7.3-0.8c2.5-0.3,5-0.6,7.6-0.8c5.1-0.6,10.3-1.1,15.4-1.6
				c2.9-0.3,6.4-0.3,9.2-1H100z"/>
			<path id="XMLID_19_" class="st4" d="M100.7,22.1v1c-5.6-0.3-11.6-0.3-17.4-0.1c-6.1,0.3-14,0.1-19.4,1.1c-2.2,0.4-3.9,0.9-6,1.4
				H45.5c0.7,0,1.4-0.1,2.1-0.1c1.5-0.1,3-0.1,4.2-0.3c1-0.2,1.7-0.4,2.5-0.7c4-1.2,12.5-1.7,18.2-2c2.5-0.2,5.6-0.4,8.1-0.5
				c3.2,0,6,0.5,9.2,0.5c2.9,0,5.9-0.3,8.8-0.3C99.3,22.1,100,22.1,100.7,22.1z"/>
			<path id="XMLID_18_" class="st4" d="M100.7,25.3v0.1H73.9c3.1-0.1,6.1,0,9.2-0.1c3.7-0.1,7.3-0.6,11-0.5
				C96.4,24.8,98.5,25.1,100.7,25.3z"/>
			<path id="XMLID_17_" class="st4" d="M68.9,16.5c-0.2,0.1-0.3,0.2-0.5,0.4c-1.8,1.2-5.1,1.6-8.1,1.7c-3,0.1-6.2,0.1-9,0.8
				c-1.1,0.3-2.1,0.6-3.1,0.9c-4.6,1.3-10.3,1.1-15.7,1.1c-10.2-0.1-20.4,0.2-30.4,1.1c-0.7,0.1-1.4,0.1-2.2,0.1v-0.9
				c2.7,0.2,5.6-0.2,8.3-0.5c11.6-1.3,24.5,0.5,35.5-1.7c2.3-0.5,4.4-1.1,6.8-1.4c5.1-0.6,11.3,0.1,15.1-1.5H68.9z"/>
			<path id="XMLID_16_" class="st4" d="M43.5,16.5c-3.1,0.8-6.7,1.1-10.2,1.4c-3.4,0.3-6.9,0.6-10.3,0.7c-5.2,0.2-10.8-0.1-15.8,0.7
				c-2.6,0.4-5,0.8-7.2,0.4v-1.1c1.5,0.3,3.3,0.3,4.9,0.1C7,18.5,9,18,11.1,17.8c2.2-0.2,4.6-0.2,6.9-0.3c5.3-0.1,10.6-0.4,15.8-1
				H43.5z"/>
		</g>
		<rect id="XMLID_15_" x="0" y="0" class="st5" width="100.7" height="0.5"/>
	</g>
	<g id="XMLID_51_">
		<path id="XMLID_14_" class="st6" d="M98.1,13.2c0,1-0.7,2-1.6,2c-0.9,0-1.6-1.1-1.6-2c0-1,0.7-1.8,1.6-1.8
			C97.4,11.4,98.1,12.2,98.1,13.2z"/>
		<ellipse id="XMLID_13_" class="st7" cx="96.5" cy="13.2" rx="1.6" ry="1.8"/>
		<path id="XMLID_12_" class="st8" d="M95.4,13.2c0,0.7,0.5,1.6,1.1,1.6c0.6,0,1.1-0.9,1.1-1.6H95.4z"/>
		<ellipse id="XMLID_11_" class="st9" cx="96.5" cy="13.2" rx="1.1" ry="1.3"/>
		<path id="XMLID_10_" class="st10" d="M97.4,12.3c0.1,0.2,0.2,0.4,0.2,0.6c0,0.6-0.4,1.1-1,1.1c-0.5,0-1-0.5-1-1.1
			c0-0.2,0.1-0.4,0.2-0.6c-0.2,0.2-0.3,0.6-0.3,0.9c0,0.7,0.5,1.3,1.1,1.3c0.6,0,1.1-0.6,1.1-1.3C97.7,12.9,97.6,12.5,97.4,12.3z"/>
		<ellipse id="XMLID_9_" class="st11" cx="96.5" cy="12.4" rx="0.5" ry="0.3"/>
		<path id="XMLID_8_" class="st11" d="M96.5,11.6c0.8,0,1.5,0.7,1.6,1.7c0,0,0-0.1,0-0.1c0-1-0.7-1.8-1.6-1.8
			c-0.9,0-1.6,0.8-1.6,1.8c0,0,0,0.1,0,0.1C95,12.4,95.7,11.6,96.5,11.6z"/>
	</g>
	<g id="XMLID_33_">
		<path id="XMLID_7_" class="st6" d="M5.5,13.2c0,1-0.7,2-1.6,2s-1.6-1.1-1.6-2c0-1,0.7-1.8,1.6-1.8S5.5,12.2,5.5,13.2z"/>
		<ellipse id="XMLID_6_" class="st7" cx="3.9" cy="13.2" rx="1.6" ry="1.8"/>
		<path id="XMLID_5_" class="st8" d="M2.8,13.2c0,0.7,0.5,1.6,1.1,1.6c0.6,0,1.1-0.9,1.1-1.6H2.8z"/>
		<ellipse id="XMLID_4_" class="st9" cx="3.9" cy="13.2" rx="1.1" ry="1.3"/>
		<path id="XMLID_3_" class="st10" d="M4.8,12.3c0.1,0.2,0.2,0.4,0.2,0.6c0,0.6-0.4,1.1-1,1.1s-1-0.5-1-1.1c0-0.2,0.1-0.4,0.2-0.6
			c-0.2,0.2-0.3,0.6-0.3,0.9c0,0.7,0.5,1.3,1.1,1.3c0.6,0,1.1-0.6,1.1-1.3C5.1,12.9,5,12.5,4.8,12.3z"/>
		<ellipse id="XMLID_2_" class="st11" cx="3.9" cy="12.4" rx="0.5" ry="0.3"/>
		<path id="XMLID_1_" class="st11" d="M3.9,11.6c0.8,0,1.5,0.7,1.6,1.7c0,0,0-0.1,0-0.1c0-1-0.7-1.8-1.6-1.8c-0.9,0-1.6,0.8-1.6,1.8
			c0,0,0,0.1,0,0.1C2.4,12.4,3.1,11.6,3.9,11.6z"/>
	</g>
</g>
</svg>
