<?xml version="1.0" encoding="utf-8"?>
<!-- Generator: Adobe Illustrator 19.0.0, SVG Export Plug-In . SVG Version: 6.00 Build 0)  -->
<svg version="1.1" id="Layer_1" xmlns="http://www.w3.org/2000/svg" xmlns:xlink="http://www.w3.org/1999/xlink" x="0px" y="0px"
	 viewBox="-145 127 320 539" style="enable-background:new -145 127 320 539;" xml:space="preserve">
<style type="text/css">
	.st0{display:none;}
	.st1{display:inline;fill:#595A5C;}
	.st2{fill:url(#SVGID_1_);}
	.st3{fill:#3F774E;}
</style>
<g id="XMLID_451_" class="st0">
	<path id="XMLID_425_" class="st1" d="M178.3,8c-2.3,0.8-4.7,1.2-7.3,1.2c-10.2,0-18.4-6.5-18.4-14.5s8.2-14.5,18.4-14.5
		c0.2,0,0.3,0,0.5,0c-2.3-2.6-3.7-6-3.7-9.7c0-8.4,7.3-15.3,16.4-15.3c3.7,0,7.1,1.2,9.9,3.1l0,0c0-7.1,5-12.9,11.3-12.9
		c6.2,0,11.3,5.8,11.3,12.9c0,0.3,0,0.6,0,0.9c1.5-0.6,3.1-1,4.8-1c7.2,0,13,6,13,13.3c0,2.6-0.7,5-2,7c5.7,1.8,9.8,7.3,9.8,13.8
		c0,8-6.2,14.5-13.8,14.5c-0.5,0-1,0-1.5-0.1c-2.8,5.5-8.8,9.3-15.6,9.3c-4.2,0-8-1.4-11-3.8c-2.4,2.5-5.8,4.1-9.7,4.1
		C184.9,16.5,180,12.9,178.3,8z"/>
	<path id="XMLID_424_" class="st1" d="M-17.3,73.1c-0.5,0-0.9,0-1.4,0c-9.1,0-16.5-5.8-16.5-12.9c0-3.1,1.4-6,3.8-8.3
		c-0.2-0.8-0.3-1.6-0.3-2.4c0-5.6,4.3-10.3,10-11.5c0.3-6.5,5.4-11.8,12-12.9c0.6-5.6,4.6-9.9,9.3-9.9c2.4,0,4.7,1.1,6.4,3
		c1.6-1.3,3.6-2.1,5.8-2.1c5.6,0,10.1,5.2,10.1,11.5c0,0.3,0,0.5,0,0.8c1.3-0.6,2.8-0.9,4.3-0.9c5.9,0,10.8,4.5,11.5,10.3
		c2.7,0.9,5,2.9,6.2,5.5c3.1,1.1,5.3,4.6,5.3,8.8c0,3.8-1.9,7.1-4.6,8.5c-0.2,1-0.5,1.9-0.9,2.8c0.4,1.2,0.6,2.5,0.6,3.8
		c0,6.6-5.1,12-11.5,12c-2.7,0-5.1-0.9-7-2.5c-0.2,0.1-0.5,0.3-0.7,0.4c-1.7,5.2-6.5,9-12.1,9c-3.5,0-6.6-1.4-8.9-3.8
		C2.3,86.1-2,88.7-7.1,88.7c-6.7,0-12.1-4.7-12.1-10.4C-19.1,76.5-18.4,74.7-17.3,73.1z"/>
	<path id="XMLID_423_" class="st1" d="M362.6,51.6L362.6,51.6c5.3,0,9.7,4.8,9.7,10.7c0,3.8-1.8,7.1-4.5,9c-0.2,3-1.6,5.6-3.7,6.8
		c0,0.3,0.1,0.6,0.1,0.9c0,3.2-2.1,5.8-4.7,5.8c-0.6,0-1.1-0.1-1.6-0.3c-1.3,2.9-3.7,5-6.5,5.4c-1.7,1.4-3.8,2.4-6.1,2.7
		c-0.5,4.8-3.9,8.5-8,8.5c-2.1,0-4-1-5.4-2.6c-1.4,1.1-3.1,1.8-4.9,1.8c-4.7,0-8.6-4.4-8.6-9.9c0-0.2,0-0.4,0-0.7
		c-1.1,0.5-2.4,0.7-3.7,0.7c-5,0-9.2-3.8-9.8-8.8c-1.1-0.4-2.1-0.9-3-1.7c-0.4,0-0.7,0-1.1,0c-6.5,0-11.8-4.7-11.8-10.5
		c0-5.4,4.6-9.8,10.5-10.4c-0.2-0.8-0.3-1.7-0.3-2.6c0-5.7,4.4-10.3,9.8-10.3c2.3,0,4.3,0.8,6,2.2c0.2-0.1,0.4-0.2,0.6-0.4
		c0.2-0.6,0.4-1.1,0.7-1.6c-0.4-0.9-0.6-2-0.6-3.1c0-4.4,3.3-7.9,7.4-7.9c0.9,0,1.7,0.2,2.5,0.5c0.6-3.4,3.2-5.9,6.3-5.9
		c2.2,0,4.1,1.2,5.2,3.1c0.3,0,0.5-0.1,0.8-0.1c1,0,1.9,0.2,2.8,0.7c1.4-2.8,4.2-4.7,7.5-4.7c4.6,0,8.4,3.9,8.4,8.8
		c0,0.8-0.1,1.7-0.3,2.4c3.6,0,6.5,4.9,6.5,11C362.6,51.4,362.6,51.5,362.6,51.6z"/>
	<path id="XMLID_223_" class="st1" d="M80.7-38.1L80.7-38.1c5.3,0,9.7,4.8,9.7,10.7c0,3.8-1.8,7.1-4.5,9c-0.2,3-1.6,5.6-3.7,6.8
		c0,0.3,0.1,0.6,0.1,0.9c0,3.2-2.1,5.8-4.7,5.8C77-4.9,76.5-5,76-5.2c-1.3,2.9-3.7,5-6.5,5.4c-1.7,1.4-3.8,2.4-6.1,2.7
		c-0.5,4.8-3.9,8.5-8,8.5c-2.1,0-4-1-5.4-2.6c-1.4,1.1-3.1,1.8-4.9,1.8c-4.7,0-8.6-4.4-8.6-9.9c0-0.2,0-0.4,0-0.7
		c-1.1,0.5-2.4,0.7-3.7,0.7c-5,0-9.2-3.8-9.8-8.8c-1.1-0.4-2.1-0.9-3-1.7c-0.4,0-0.7,0-1.1,0c-6.5,0-11.8-4.7-11.8-10.5
		c0-5.4,4.6-9.8,10.5-10.4c-0.2-0.8-0.3-1.7-0.3-2.6c0-5.7,4.4-10.3,9.8-10.3c2.3,0,4.3,0.8,6,2.2c0.2-0.1,0.4-0.2,0.6-0.4
		c0.2-0.6,0.4-1.1,0.7-1.6c-0.4-0.9-0.6-2-0.6-3.1c0-4.4,3.3-7.9,7.4-7.9c0.9,0,1.7,0.2,2.5,0.5c0.6-3.4,3.2-5.9,6.3-5.9
		c2.2,0,4.1,1.2,5.2,3.1c0.3,0,0.5-0.1,0.8-0.1c1,0,1.9,0.2,2.8,0.7c1.4-2.8,4.2-4.7,7.5-4.7c4.6,0,8.4,3.9,8.4,8.8
		c0,0.8-0.1,1.7-0.3,2.4c3.6,0,6.5,4.9,6.5,11C80.7-38.3,80.7-38.2,80.7-38.1z"/>
	<path id="XMLID_224_" class="st1" d="M296.4-15.7c-0.5,0-0.9,0-1.4,0c-9.1,0-16.5-5.8-16.5-12.9c0-3.1,1.4-6,3.8-8.3
		c-0.2-0.8-0.3-1.6-0.3-2.4c0-5.6,4.3-10.3,10-11.5c0.3-6.5,5.4-11.8,12-12.9c0.6-5.6,4.6-9.9,9.3-9.9c2.4,0,4.7,1.1,6.4,3
		c1.6-1.3,3.6-2.1,5.8-2.1c5.6,0,10.1,5.2,10.1,11.5c0,0.3,0,0.5,0,0.8c1.3-0.6,2.8-0.9,4.3-0.9c5.9,0,10.8,4.5,11.5,10.3
		c2.7,0.9,5,2.9,6.2,5.5c3.1,1.1,5.3,4.6,5.3,8.8c0,3.8-1.9,7.1-4.6,8.5c-0.2,1-0.5,1.9-0.9,2.8c0.4,1.2,0.6,2.5,0.6,3.8
		c0,6.6-5.1,12-11.5,12c-2.7,0-5.1-0.9-7-2.5c-0.2,0.1-0.5,0.3-0.7,0.4c-1.7,5.2-6.5,9-12.1,9c-3.5,0-6.6-1.4-8.9-3.8
		c-1.8,3.8-6.1,6.4-11.2,6.4c-6.7,0-12.1-4.7-12.1-10.4C294.7-12.3,295.3-14.1,296.4-15.7z"/>
</g>
<radialGradient id="SVGID_1_" cx="13.3121" cy="371.6613" r="281.989" gradientTransform="matrix(0.5674 0 0 -0.9628 7.4467 754.3355)" gradientUnits="userSpaceOnUse">
	<stop  offset="0" style="stop-color:#0B6856"/>
	<stop  offset="1" style="stop-color:#0B6856"/>
</radialGradient>
<rect x="-145" y="125" class="st2" width="320" height="543"/>
<path class="st3" d="M-124.7,246.9c-2.1,2.7-5.4,3.6-8.3,5.2c1.8-4.5,3-10,1.2-14.2c-0.9-2-4-3.5-6.1-2.5c-2.8,1.4-3.4,4.6-2.5,7.4
	c0.4,1.2,2.2,0.3,1.8-0.9c-1.4-4,4-6.5,5.4-2.2c0.5,1.7,0.3,3.7,0,5.4c-0.5,3.3-1.6,6.7-3.1,9.6c-0.5,0.9,0.7,2.2,1.5,1.3
	c3.3-3.7,8.7-4.1,11.9-8C-122.2,247.1-123.9,245.9-124.7,246.9z"/>
<path class="st3" d="M-116.2,227.5c-1.1,1.3-2.3,2.6-3.6,3.7c-0.8-1.1-1.6-2.3-2.3-3.4c-0.7-1.1-2.2,0.3-1.5,1.3
	c0.8,1.1,1.5,2.3,2.3,3.4c-1.1,0.9-2.2,1.8-3.4,2.6c-1.1,0.7,0.3,2.2,1.3,1.5c1.1-0.8,2.2-1.6,3.3-2.5c1.3,1.5,2.7,2.9,4.4,3.9
	c1.1,0.7,2.2-1,1.1-1.7c-1.6-0.9-2.9-2.2-4-3.5c1.4-1.3,2.8-2.7,4.1-4.2C-113.7,227.6-115.4,226.5-116.2,227.5z"/>
<path class="st3" d="M-92.8,224.5c-2.4,3.8-6.2,6-10.2,7.7c1.9-4.1,4-9.6,1-13.2c-3.4-4.1-7.6-3.8-8.6,1.7c-0.2,1.3,1.8,1.4,2,0.2
	c0.6-3.3,2.3-3.1,4.5-1.1c1.5,1.4,1.5,3.6,1.3,5.5c-0.4,3-1.9,5.9-3.1,8.6c-0.4,0.9,0.7,1.5,1.4,1.2c5.1-2.1,10.3-4.6,13.4-9.5
	C-90.5,224.6-92.1,223.4-92.8,224.5z"/>
<path class="st3" d="M-91.1,210.2c-2,1-3.9,2.4-4.8,4.5c-0.5,1.2,1.4,1.8,1.9,0.7c0.7-1.6,2.3-2.6,3.8-3.3
	C-89,211.4-89.9,209.6-91.1,210.2z"/>
<path class="st3" d="M-88,212.6c-2,1-3.5,2.4-4.7,4.2c-0.7,1.1,0.9,2.2,1.7,1.1c1.1-1.5,2.3-2.7,4-3.6
	C-86,213.9-86.9,212.1-88,212.6z"/>
<path class="st3" d="M-68.8,209.7c-1.8-1.3-3.2-3.4-4.4-5.6c0.1-0.6,0.2-1.2,0.2-1.8c0-0.9-1-1.3-1.6-0.9c-0.7-1.4-1.3-2.8-1.9-4.1
	c-0.5-1.2-2.3-0.3-1.8,0.9c0.9,1.9,1.9,4.1,3,6.1c-0.4,1.5-1.4,2.6-3.3,1.8c-2.3-0.9-4-3.3-4.8-5.4c-0.5-1.2-2.3-0.3-1.8,0.9
	c1.2,3,3.7,6,6.9,6.7c2.1,0.5,3.4-0.4,4.3-1.9c1.2,1.9,2.6,3.6,4.2,4.8C-68.9,212.1-67.8,210.5-68.8,209.7z"/>
<path class="st3" d="M109.9,449.8c-0.1,0-0.2,0-0.3,0c0.2-2.5,0.1-5-0.5-7.4c-1.2-4.8-6-5.9-10.4-5.7c-1.3,0.1-1.4,2.1-0.2,2
	c5.9-0.3,9,2.1,9.1,8.1c0,0.9,0,1.9-0.1,2.8c-1.1-0.1-2.2-0.2-3.3-0.3c-1.3-0.1-1.4,1.9-0.2,2c1.1,0.1,2.2,0.2,3.3,0.3
	c-0.2,1.7-0.5,3.4-0.8,5.1c-0.3,0.2-0.5,0.5-0.5,1c0,0.5,0,1,0.1,1.6c0.1,1.2,1.8,0.9,2-0.1c0.4-2.3,0.9-4.8,1.2-7.3
	c0.1,0,0.3,0,0.4,0C111,451.9,111.1,449.9,109.9,449.8z"/>
<path class="st3" d="M123.2,448.9c-2-0.5-4-0.9-6-1c-1.3-0.1-1.4,1.9-0.2,2c1.9,0.1,3.7,0.4,5.5,0.9
	C123.7,451.1,124.4,449.2,123.2,448.9z"/>
<path class="st3" d="M135.2,438.8c-1.2,0.6-2.5,1-3.7,1.7c-0.5,0.3-0.6,0.8-0.4,1.2c-1.4,1.2-2.5,2.7-3.1,4.6
	c-0.2,0.6,0.2,1.3,0.9,1.3c3.7,0.1,9,1.4,6.6,6.1c-0.7,1.3-4.4,5.6-5.2,2.3c-0.3-1.3-2.3-0.9-2,0.4c1.3,5.4,6.8,1.7,8.6-1.2
	c1.2-1.9,1.6-4.2,0.6-6.2c-1.3-2.4-4.4-3.1-7-3.3c1.3-2.3,3.5-3.8,5.7-5.1C137.2,439.9,136.4,438.2,135.2,438.8z"/>
<path class="st3" d="M150.9,450.1c-1.5-0.7-3-1.5-4.5-2.2c-1.2-0.5-1.8,1.4-0.7,1.9c1.5,0.7,3,1.5,4.5,2.2
	C151.4,452.5,152.1,450.6,150.9,450.1z"/>
<path class="st3" d="M151,454.6c-2.7-0.1-5.2-0.5-7.8-1c-1.3-0.2-1.4,1.8-0.2,2c2.6,0.5,5.2,1,7.8,1
	C152.1,456.6,152.3,454.6,151,454.6z"/>
<path class="st3" d="M170.9,462.4c-3.5-3.2-7.2-1.6-11.3-1.2c1.6-5.3,7.7-19.2-2.6-14.9c-1.2,0.5-0.3,2.3,0.9,1.8
	c1.7-0.7,3.3-1.1,3.3,1.2c0,1.7-0.7,3.5-1.2,5.1c-0.8,2.6-2.2,5.1-2.6,7.8c-0.1,0.5,0.4,1.1,0.9,1.1c3.6-0.1,8.2-2.3,11.2,0.4
	C170.4,464.6,171.9,463.3,170.9,462.4z"/>
<path class="st3" d="M164.7,474.7c-10.5,2-21,3.6-31.4,6.1c-0.6,0.1-0.8,0.6-0.8,1.2c0.4,4.6,1.2,9.7-0.7,14.1
	c-2.9-3.6-4.1-8.3-7.6-11.5c-0.9-0.9-2.4,0.4-1.5,1.3c3.8,3.5,4.9,8.9,8.5,12.6c0.4,0.4,1.2,0.5,1.6-0.1c2.8-4.8,2.2-10.5,1.7-15.8
	c10.1-2.3,20.4-3.9,30.5-5.9C166.3,476.4,165.9,474.5,164.7,474.7z"/>
<path class="st3" d="M156.6,498.8c-3.8-1-7.3,0.7-11,1.5c1.5-3.8,2-8.3,1.7-12.2c-0.1-1.5-0.5-3.2-2-3.8c-1.9-0.8-3.9,1.8-4.9,3
	c-0.8,1,0.8,2.1,1.7,1.1c0.5-0.5,2.3-3.1,2.9-1.7c0.6,1.4,0.4,3.3,0.3,4.8c-0.2,3.1-0.7,6.8-2.2,9.6c-0.4,0.8,0.1,1.7,1,1.5
	c3.9-0.5,7.9-2.9,11.8-1.9C157.1,501,157.8,499.1,156.6,498.8z"/>
<path class="st3" d="M167.1,492c-1.7-2.3-5.4-3.3-8.1-2.7c-1.1,0.3-3.2,1.3-3.6-0.4c-0.4-2.1,1.5-3.3,3.5-3.7
	c0.7-0.1,1.4-0.1,2.1-0.2c1.1-0.2,1-2-0.1-2c-0.7,0-1.5,0.1-2.3,0.2c-1.2,0.1-2.3,0.2-3.5,0.3c-0.9,0.1-1,1.1-0.5,1.7
	c-0.3,0.3-0.6,0.6-0.8,1c-1.1,1.8-0.5,4.9,1.6,5.5c1,0.3,2.1,0,3-0.3c1.8-0.5,2.7-0.6,4.6,0.1c2,0.8,3.8,2.3,2,4.2
	c-0.6,0.6-2.3,1.8-3.2,1.4c-1.2-0.6-1.8,1.3-0.7,1.9c1.7,0.8,4-0.7,5.2-1.7C168.1,495.9,168.4,493.8,167.1,492z"/>
<path class="st3" d="M-76.7,305.1c-2.7-4-4.6-8.5-6.9-12.7c-0.6-1.1-2.4-0.2-1.8,0.9c2.4,4.4,4.4,9,7.2,13.1
	C-77.5,307.5-76,306.2-76.7,305.1z"/>
<path class="st3" d="M-65.1,299.1c-2.5-4.3-5.9-7.9-8.4-12.1c-0.6-1.1-2.4-0.2-1.8,0.9c2.5,4.3,5.9,7.9,8.4,12.1
	C-66.2,301-64.4,300.2-65.1,299.1z"/>
<path class="st3" d="M-48.3,290.7c-2.8-4.2-6.9-7.8-8.1-12.9c-0.3-1.2-2.3-0.9-2,0.4c0,0.2,0.1,0.4,0.2,0.6c0.5,2,1,5-1,6.2
	c-2.3,1.3-4.2-3-4.8-4.4c-0.5-1.2-2.3-0.3-1.8,0.9c1,2.6,3.7,6.9,7.1,5.5c1.5-0.6,2.3-1.9,2.7-3.3c1.7,2.8,4,5.2,5.9,8
	C-49.4,292.7-47.6,291.8-48.3,290.7z"/>
<path class="st3" d="M-13.4,271.2c-6.1-2-13.5,6.1-17.7,9.3c-3.5,2.6-10.3,8.1-12.4,1.2c-1.3-4.2-0.5-9.2-3-12.9
	c-0.7-1.1-2.2,0.3-1.5,1.3c3.4,5,0.2,20.1,10.6,16.6c3.8-1.3,7.1-4.2,10.3-6.6c3.1-2.4,8.8-8.4,13.2-7
	C-12.8,273.5-12.1,271.6-13.4,271.2z"/>
<path class="st3" d="M-25.3,267.4c-1-1-2.2-1.7-3.5-2.2c0.2-0.9,0.5-1.8,0.9-2.6c0.6-1.2-1.3-1.8-1.9-0.7c-0.5,0.9-0.8,1.9-1,2.9
	c-1.3-0.2-2.6-0.2-3.8,0c0.9-1,2.1-1.6,3.5-2.2c1.2-0.5,0.3-2.3-0.9-1.8c-2.7,1.1-4.6,2.4-5.7,5.1c-0.4,0.9,0.6,1.5,1.4,1.2
	c1.7-0.6,3.5-0.7,5.2-0.4c-0.1,1.9,0.3,3.8,1.1,5.6c0.2,0.4,0.6,0.6,1.1,0.5c1.6-0.2,3.7-0.5,4.4-2.1
	C-23.8,269.6-24.4,268.4-25.3,267.4z M-28.3,270.9c-0.5-1.2-0.7-2.3-0.7-3.5c0.5,0.2,0.9,0.4,1.3,0.6c0.6,0.3,1.5,1,1.6,1.8
	C-26.1,270.6-27.4,270.8-28.3,270.9z"/>
<path class="st3" d="M-23.2,299.7c-1.7-3.4-3.3-6.8-5-10.2c-0.6-1.2-2.4-0.3-1.8,0.9c1.7,3.4,3.3,6.8,5,10.2
	C-24.4,301.7-22.6,300.8-23.2,299.7z"/>
<path class="st3" d="M-54.1,317.9c0.3-1.7-0.1-3.3-1.9-4.4c-2.9-1.8-6,0.8-7.5,3.2c-0.7,1.1,1,2.2,1.7,1.1c1-1.6,2.4-3.2,4.5-2.7
	c2.4,0.7,0.9,3.7,0.1,4.9c-0.7,1.1,0.9,2.2,1.7,1.1c1.9-2.6,4.1-1,4.7,1.6c1,4.4-3.5,5.5-6.9,5.2c-1.3-0.1-1.4,1.9-0.2,2
	c5,0.4,10.3-2.1,8.9-7.9C-49.6,319.2-51.8,317.5-54.1,317.9z"/>
<path class="st3" d="M-35.4,318.3c-2.4-4.1-5.5-7.6-7.9-11.7c-0.6-1.1-2.4-0.2-1.8,0.9c1.2,2,2.6,3.9,3.9,5.9
	c-3.2,3.2-6.2-1.1-7.3-4.2c-0.4-1.2-2.2-0.3-1.8,0.9c1.5,4.3,6.1,9,10.2,5c1,1.4,1.9,2.8,2.8,4.2C-36.5,320.3-34.7,319.4-35.4,318.3
	z"/>
<path class="st3" d="M-9.6,293.5c-0.9-2-2.1-3.8-3.2-5.7c0.3-0.6-0.1-1.1-0.7-1.3c-0.8-1.4-1.4-2.8-1.8-4.4c-0.3-1.3-2.3-0.9-2,0.4
	c0.4,1.8,1.2,3.5,2.1,5.1c-1.1,1.2-2.6,2.3-4.2,1.8c-1.8-0.6-2.6-3.2-3.1-4.8c-0.4-1.2-2.3-0.9-2,0.4c0.7,2.5,1.8,5.2,4.4,6.3
	c2.1,0.9,4.2-0.4,5.8-1.9c1,1.6,2,3.3,2.8,5C-10.9,295.5-9.1,294.6-9.6,293.5z"/>
<path class="st3" d="M-21.7,338.3c-0.8,2.7-3.6,3.9-6.1,5.1c0.8-4.5,0.8-9.1-1.8-13.1c-0.4-0.6-1-0.7-1.6-0.3
	c-1.3,0.9-2.2,1.9-2.8,3.4c-0.4,1.2,1.4,1.9,1.9,0.7c0.3-0.8,0.7-1.3,1.2-1.8c2,3.9,1.6,8.4,0.6,12.7c-0.2,0.7,0.5,1.8,1.4,1.2
	c3.3-2.1,7.7-3.1,8.9-7.3C-19.4,337.8-21.3,337.1-21.7,338.3z"/>
<path class="st3" d="M-5.3,286.4c-0.9,0.8,0.2,2.1,1.1,1.6c0,0.7-0.1,1.4-0.1,2c-0.1,1.3-0.4,2.6-0.5,4c-0.1,1.3,1.9,1.4,2,0.2
	c0.1-2.1,0.7-4.2,0.6-6.3C-2.3,286-3.8,285-5.3,286.4z"/>
<path class="st3" d="M-15.2,324.1c-0.4-0.2-0.8-0.1-1.1,0.1c-1.3-1-2.9-1.8-4.5-0.9c-1.4,0.8-1.8,2.6-1.9,4.1c0,3.4,2.4,7.2,5.8,7.9
	c2.5,0.5,4.7-1.6,5.3-3.9C-10.7,328.3-12.5,325.6-15.2,324.1z M-13.3,330.2c-0.1,1.4-1.1,2.8-2.5,3.1c-2.2,0.4-4-2.4-4.5-4.1
	c-0.4-1.1-0.5-2.5,0.1-3.6c0.7-1.4,2.2-0.3,3,0.4c0.4,0.4,0.9,0.2,1.2-0.1C-14.5,326.8-13.2,328.2-13.3,330.2z"/>
<path class="st3" d="M7.5,278.9c-1.4,1-2.9,1.7-4.5,2.2c-0.1-2.7-0.9-5.6-2.2-7.8c-0.5-0.8-1.4-1.7-2.5-1.3
	c-1.2,0.5-1.4,2.3-1.6,3.4c-0.2,1.3,1.8,1.4,2,0.2c0.1-0.5,0.2-0.9,0.3-1.4c0,0,0,0,0,0c0.4,0.6,0.7,1.3,0.9,2c0.7,1.9,1.2,4,1.1,6
	c0,0.6,0.5,1.2,1.2,1.1c2.4-0.5,4.6-1.5,6.6-2.9C9.8,279.6,8.5,278.1,7.5,278.9z"/>
<path class="st3" d="M3.2,349.6c-2.2-3.6-4-7.4-6.2-11c-0.7-1.1-2.5-0.2-1.8,0.9c0.4,0.6,0.7,1.3,1.1,1.9c-0.1,0.1-0.1,0.3-0.1,0.4
	c-0.1,1.2-0.1,3.2-1.1,4.1c-0.5,0.5-1.5-0.7-1.8-1c-1.5-1.6-2.6-3.6-3.8-5.4c-0.7-1.1-2.5-0.2-1.8,0.9c1.5,2.5,3.1,5.7,5.7,7.2
	c2.7,1.6,3.9-1.1,4.4-3.5c1.2,2.1,2.3,4.3,3.6,6.4C2.1,351.5,3.9,350.7,3.2,349.6z"/>
<path class="st3" d="M10.2,330.7c-0.4-0.4-1-0.5-1.4-0.1c-0.2,0.2-0.3,0.4-0.5,0.6c0-0.5-0.4-1.1-1.1-0.9c-3.3,0.8-5.7,3.3-5.7,6.8
	c0,3.3,2.8,6.1,5.9,6.6c2.7,0.4,4.5-2.2,5-4.5C13,336.2,12.4,332.7,10.2,330.7z M8.5,341.5c-2.1,1-4.5-2-4.9-3.7
	c-0.6-2.7,1.6-5,4-5.5c0.1,0,0.2-0.1,0.3-0.1c-0.1,0.4-0.3,0.8-0.5,1.2c-0.6,1.2,1.3,1.8,1.9,0.7c0.1-0.2,0.2-0.5,0.3-0.8
	C11,335.7,11.3,340.1,8.5,341.5z"/>
<path class="st3" d="M18.3,269.5c-2.1-2.9-6.5-1.3-9.6,0c0.3-1.5,0.8-3,1.3-4.4c0.7-0.8,1.1-1.7,0.9-2.8c-0.2-1-1.6-1.1-1.9-0.1
	c-0.2,0.7-0.5,1.3-0.8,1.9c-0.9,1-2.3,2-2.8,2.6c-0.8,1,0.7,2,1.5,1.2c-0.2,1-0.4,2-0.5,3.1c0,0.8,0.7,1.3,1.4,1
	c2.3-0.9,4.6-2,7.2-2c4.4,0-0.7,6.3-2.1,7.2c-1.1,0.7-0.2,2.5,0.9,1.8C16.3,277.4,20.6,272.7,18.3,269.5z"/>
<path class="st3" d="M24.8,348.2c-0.8-1-2.3,0.3-1.5,1.3c1.5,1.8,4.1,8.7,0.6,9.6c-3.2,0.8-3.5-7.8-1.4-9c1.1-0.6,0.3-2.4-0.9-1.8
	c-3.7,1.9-3.5,12.2,1.3,12.8C29.9,361.9,27.3,351.3,24.8,348.2z"/>
<path class="st3" d="M35.4,355.1c-1,8.9-3.1,17.6-3,26.6c0,1.3,2,1.4,2,0.2c-0.1-9,2.1-17.7,3-26.6
	C37.5,353.9,35.5,353.8,35.4,355.1z"/>
<path class="st3" d="M-67.3,358c0.3-0.3,0.3-0.8,0-1.2c-1-1.2-2.3-1.9-3.7-2.5c-0.6-0.4-1.1-0.9-1.7-1.3c-0.3-0.2-0.6-0.2-0.9-0.1
	c-1-0.3-1.9-0.6-2.8-1c0.2-0.5,0.1-1.1-0.6-1.3c-12.4-3.9-24.7,2.8-30.1,14.2c-5.7,12,1.6,24.7,13.6,28.8c4.2,1.4,8.6,1.4,12.7,0.2
	c0.4,0.6,1.4,0.7,1.8-0.2c0.1-0.2,0.2-0.3,0.2-0.5c5.6-2.1,10.5-6.2,13.7-11.3C-59.9,373.6-61.6,364.7-67.3,358z M-93.8,353.8
	c-0.3,0.7-0.7,1.5-1.2,2.2c-0.4-0.4-1.1-0.4-1.5,0.1c-0.6,0.7-1.3,1.3-2.1,1.9c-0.2-0.3-0.4-0.5-0.7-0.5
	C-97.7,356-95.8,354.8-93.8,353.8z M-100.5,358.6c-0.3,0.8-0.4,1.5,0.3,1.9c-0.7,0.1-1.4,0.1-2.2,0.2
	C-101.8,360-101.2,359.3-100.5,358.6z M-105.6,366.5c0.5-1.3,1.1-2.6,1.8-3.8c2.4-0.1,4.7-0.5,7.1-0.7c0.1,0.2,0.2,0.4,0.4,0.5
	l4.5,3.1c-0.3,0.2-0.6,0.6-0.5,1c0.6,3,1.4,5.9,1.6,9c-0.4-0.1-0.8,0-1.1,0.4c-1.2,1.7-3,3-4.6,4.3c0,0-0.1,0.1-0.1,0.1
	c-2.5-1.5-4.7-3.2-5.2-6.4c-0.1-0.5-0.7-1-1.2-0.8c-1.4,0.5-2.7,0-4.1,0.3C-106.8,371.2-106.4,368.9-105.6,366.5z M-104.9,376.8
	c-0.3,0.2-0.6,0.5-0.5,1c0.1,0.4,0.2,0.9,0.3,1.3l0.7,3.5c-1.2-2.2-2-4.6-2.3-7.1c1.2-0.3,2.3-0.1,3.4-0.1c0,0.1,0,0.1,0,0.1
	c-0.4-0.1-0.9,0-1.2,0.4C-104.6,376.2-104.8,376.5-104.9,376.8z M-101.8,386.3c0-0.1,0.1-0.3,0-0.5c-0.1-0.6-0.2-1.2-0.2-1.7
	c0.9,1.5,1.8,2.9,2.6,4.4C-100.3,387.8-101.1,387.1-101.8,386.3z M-100.4,382.9c0.3-0.2,0.5-0.5,0.4-1c-0.2-0.7-0.3-1.4-0.6-2.1
	c0.9,0.8,1.9,1.5,3,2.2c-0.9,0.7-1.3,1.9-1.5,3.2C-99.5,384.5-100,383.7-100.4,382.9z M-80.6,391.7c-1.1,0.3-2.2,0.6-3.3,0.7
	c0.5-0.4,1.1-0.9,1.6-1.4c0.6-0.2,1.2-0.3,1.8-0.4C-80.6,391-80.6,391.3-80.6,391.7z M-81.1,379.4
	C-81.1,379.4-81.1,379.4-81.1,379.4c-0.6,0.6-0.3,1.4,0.3,1.7l0.6,3.1c-0.1,0-0.2,0-0.3,0.1c-2.9,1.7-6,2.6-8.1,5.4
	c-0.7,1,0.6,1.9,1.5,1.3c1.2-0.8,2.6-1.5,3.9-2c-0.1,0.1-0.2,0.2-0.3,0.3c-1.8,0.6-3.4,1.6-4.5,3.3c-1.3-0.1-2.6-0.2-3.9-0.5
	c-2.2-0.5-4.2-1.4-6-2.4c0.4-0.1,0.6-0.4,0.6-0.8c-0.1-1.6-0.6-5.9,2.3-5.3c1,0.2,1.5-1.4,0.6-1.8c-0.1,0-0.2-0.1-0.3-0.1
	c1.4-1.1,2.8-2.3,3.9-3.7c0,0.7,0.8,1.3,1.4,0.9c2.4-1.3,4.7-1.3,7.3-0.5c1.2,0.4,1.9-1.5,0.7-1.9c-2.5-0.8-5-0.9-7.4-0.1
	c-0.1-3.1-0.9-6.1-1.5-9.1c2.1-0.6,4.1-1.6,6.2-2.1c1.2-0.3,0.9-2.3-0.4-2c-1.8,0.4-3.5,1.2-5.3,1.8c-0.1-0.2-0.2-0.3-0.4-0.5
	l-3.9-2.6c0.5-0.1,0.9-0.4,0.9-0.9c0.1-2.7,0.6-5.2,1.5-7.7c0.1-0.2,0.1-0.3,0-0.5c3.4-1.2,7.1-1.5,10.7-1c0.5,0.6,1.1,1.1,1.8,1.4
	c-0.2,0.5,0.2,1.3,0.8,1.4c2.5,0.5,4.8,1,6.8,2.3c-3.9,0.4-7.1-0.7-10-4.2c-0.6-0.7-2-0.1-1.7,0.8c0.4,1.7,1.9,4.2,3.7,5.3
	c-0.6,0.6-1.3,1-2.1,1.5c-0.6,0.4-0.6,1.1-0.3,1.5c-0.1,0.2-0.1,0.5,0,0.8c0.3,0.6,0.6,1.1,1,1.6c-0.3,0-0.6,0.1-0.8,0.4
	c-1.5,1.8-2.8,3.8-4.1,5.7c0.2-0.9,0.4-1.9,0.7-2.8c0.3-1.2-1.5-1.9-1.9-0.7c-0.6,2.3-1.2,4.4-0.9,6.8c0.1,0.9,1.3,1,1.8,0.4
	c1.3-1.6,2.5-3.3,3.6-5c-0.4,1.7-1.1,3.3-1.7,4.9c-0.5,1.2,1.3,1.8,1.9,0.7c0.6-1.1,1.4-2.1,2.3-3c0.3,1.7,0.1,3.4-0.5,5.2
	c-0.1,0.4,0,0.8,0.3,1c-0.6,0-1.2,0.4-1,1.1L-81.1,379.4z M-78.5,369.4c-0.3-0.8-1.3-0.7-1.7-0.1c0,0,0,0,0,0c0.3-1,0.4-2.1,0.5-3.2
	c0.8,1.3,1.6,2.7,2.3,4.1c0.4,0.9,0.6,1.7,0.5,2.6c-0.2-0.2-0.5-0.2-0.8-0.2C-77.9,371.6-78.1,370.5-78.5,369.4z M-73.8,373.8
	c2,0.4,4.1,0.7,6.1,1.3c-0.1,1.3-0.2,2.6-0.2,3.9c0,1,1,1.3,1.6,0.8c-0.2,0.3-0.3,0.6-0.5,0.9c-1.8,3.1-4.3,5.7-7.2,7.7
	c0,0-0.1-0.1-0.1-0.1c-1.5-1.3-3.2-1.9-4.9-2c-0.2-0.2-0.5-0.3-0.7-0.3c0,0,0.1-0.1,0.1-0.1c0.1,0,0.1-0.1,0.2-0.2
	c0.6,0.2,1.5-0.2,1.3-1.1l-0.9-4.7c2.2-2.2,4.5-5,4-8.2c-0.5-3.7-3.2-6.7-5-9.9c0,0,0,0,0,0c1.1-0.7,2-1.4,2.7-2.3
	c0.1,0,0.3,0,0.4,0c0.4-0.1,0.8-0.5,0.8-0.9c2,0.5,4.2,0.5,6.6,0c0.1,0.1,0.2,0.3,0.3,0.4c0.1,0.2,0.3,0.3,0.5,0.4
	c1.9,2.3,3.2,4.8,3.9,7.5c-0.5,0.7-0.9,1.5-1.3,2.3c-0.5,0-1,0.3-1.1,0.9c-0.2,1-0.3,1.9-0.4,2.9c-2-0.6-4.1-0.9-6.1-1.3
	C-74.9,371.6-75.1,373.6-73.8,373.8z M-65.9,379.1c0.2-1.1,0.3-2.2,0.5-3.3c0.2,0,0.4-0.2,0.5-0.3c0.1,0,0.3,0,0.4-0.1
	C-64.9,376.6-65.3,377.9-65.9,379.1z"/>
<path class="st3" d="M-91.2,477.6c-0.3-0.2-0.7-0.1-1,0c-0.2-6.4-1.3-12.8-2.6-17.9c-0.2-0.7-1.1-1.2-1.6-0.6
	c-2.5,2.7-4.4,5.7-6.7,8.6c-0.1,0.2-0.2,0.3-0.2,0.5c-0.1-0.1-0.2-0.3-0.4-0.4c-5.8-3.1-13.2-4.8-19.8-4l-1.8-9.4
	c-0.2-1-1.5-1-1.9-0.1c-7.5,17.2-9.7,45.1,9.8,55.4c1.1,0.6,2.3-1.1,1.1-1.7c-2.9-1.5-5.2-3.4-7.2-5.6c1-0.4,1.8-0.7,2.5-1.1
	c0.2,1.4,1,2.6,2.7,3.1c2.1,0.6,3.6-0.9,4.7-2.7c0,0.2,0.1,0.3,0.1,0.5c0.2,0.6,0.8,1.1,1.4,0.7c1.3-0.8,2.4-1.7,3.3-2.7
	c1.3,3.6,6.8,3.1,6.6-2.5c0,0,0,0,0,0c0.8-0.4,1.6-1.2,2.3-2.5c0.6-1.1-1.1-2.3-1.7-1.1c-1.4-0.3-2.7-0.7-4.1-1
	c-0.2-0.7-1-1.1-1.6-0.6c-2.2,2.1-6.8,6.6-7.1,0.5c0-0.9-1.2-1.6-1.8-0.6c-0.3,0.4-0.5,0.9-0.8,1.3c-3.7,1.3-5.2,0.4-4.5-2.6
	c0,0,0,0,0,0c0,0,0,0,0,0c0-0.1,0-0.2,0.1-0.3c0.1-1.2-1.5-1.4-1.9-0.4c-2.8,6.3-5.5-4.4-6.1-7c-0.1-0.6-0.7-0.9-1.2-0.8
	c-0.4-8.3,1.3-17,4-24.3l1.3,7c0.1,0.6,0.6,0.9,1.2,0.8c6.3-0.9,13.7,0.7,19.3,3.6c0.8,0.4,1.5-0.2,1.6-0.8c0.3,0.6,1.2,0.9,1.8,0.2
	c1.8-2.2,3.4-4.6,5.2-6.9c4.1,16.8,5.1,46.9-19.6,43c-1.3-0.2-1.4,1.8-0.2,2c18,2.8,23.5-11.1,23.9-25.9c1,3.2,3.2,6.4,7,5.6
	c1.7-0.4,2.5-1.4,2.7-2.6c2.6,1,5.9,1.2,8.2,1.7c0.5,0.1,1.1-0.4,1.1-0.9C-73.5,476.9-86.7,469.3-91.2,477.6z M-107.2,494.7
	c0.7,1.4,1.7,2.5,2.8,2.9c0.1,1-0.1,1.9-0.7,2.7c-2.2-0.1-2.9-1.2-2.1-3.1c0.3-1.2-1.4-1.9-1.9-0.7c-0.8,1.8-1.7,2.7-3.1,3.7
	c-0.2-0.7-0.4-1.5-0.3-2.3c0,0,0,0,0,0C-110.9,497.6-108.9,496.3-107.2,494.7z M-116.1,495.2c0.4,1.3,0.9,2.1,1.7,2.5
	c-0.4,1.5-0.8,2.8-2,4c-0.9-0.2-1.9-0.5-2.8-0.7c-0.1-0.9-0.1-1.7,0.1-2.6c0.1-0.3,0.2-0.6,0.3-1c0-0.2,0-0.4,0-0.5
	C-117.9,496.6-117,496.1-116.1,495.2z M-123.2,493.5c0.5,1.7,1.4,2.8,2.5,3.3c-0.6,2.1-1.5,2.8-3,3.4c-0.3-1.8-0.6-3.7-0.6-5.5
	c0-0.1,0-0.2-0.1-0.3C-124,494.2-123.6,493.9-123.2,493.5z M-126.2,494.2c0,0.1-0.1,0.2-0.1,0.3c0,1.6,0.2,3.1,0.4,4.7
	c-2-3.1-3.3-6.7-4.1-10.5C-129,491.1-127.7,493.4-126.2,494.2z M-82.8,481.9c-0.4-1.2-1.1-2.4-2-3.3c-0.5-0.5-1.8-0.4-1.7,0.6
	c0.1,1.8,0.9,3,2,3.9c0.1,0.8-0.3,1.4-1.5,1.7c-2.7,0.6-4-2.7-4.6-5.1c0.3,0,0.6-0.2,0.8-0.6c2.9-6.8,12.9-1.1,14.3,4.5
	C-77.6,483.3-80.8,483-82.8,481.9z"/>
<path class="st3" d="M-112.3,147.4c3.7,0.4,7.6,1.8,10.4,4.2c1,0.8,2.1-0.8,1.1-1.7c-3.8-3.2-9.2-4.7-14-4.8c-2.6,0-8.6,1.4-8.9,4.8
	c-0.4,4.5,8.4,4.4,13.5,3.6c-1.3,1.7-2.5,3.6-3.5,5.5c-0.3,0.5-0.2,1.1,0.3,1.4c2.2,1.3,4.8,2.2,7,0.4c2.2-1.7,3.1-5.5,5.5-6.7
	c1.2-0.6,0.3-2.4-0.9-1.8c-4,2-4.3,9.4-9.7,6.8c1.3-2.4,2.9-4.6,4.6-6.7c0.7-0.9-0.4-1.8-1.3-1.5c-2.2,0.8-4.7,0.8-7,0.7
	c-0.7,0-7.2-0.5-6.5-1.9C-119.8,147.1-115.1,147.1-112.3,147.4z"/>
<path class="st3" d="M-83.1,152.5c-2.5,2.5-5.3,1.4-6.5-1.7c-0.4-1.2-2.2-0.3-1.8,0.9c1.6,4.4,6.2,5.6,9.6,2.3
	C-80.9,153.1-82.2,151.6-83.1,152.5z"/>
<path class="st3" d="M-100.8,479.3c-1.3,1-2.9,1.8-4.5,0.9c-1.4-0.7-2.2-2.3-2.7-3.8c-0.4-1.2-2.4-0.8-2,0.4
	c0.7,2.1,1.9,4.4,4.1,5.3c2.3,1,4.5,0.1,6.4-1.4C-98.4,480-99.7,478.5-100.8,479.3z"/>
<path class="st3" d="M-79.2,160c0-0.6-0.4-1.2-1.1-1c-2.5,0.5-5,1.5-7.1,3c-0.8,0.6-0.2,1.6,0.6,1.7c2.7,0.5,5.4,1.3,7.9,2.5
	c0.7,0.3,1.4-0.5,1.3-1.1c-0.2-1.4,0-2.9,0.1-4.3C-77.4,159.7-78.6,159.4-79.2,160z M-79.5,160.7c-0.1,1-0.2,2-0.2,3
	c-1.4-0.6-2.9-1-4.4-1.4c1.3-0.6,2.7-1.1,4.1-1.4C-79.8,160.9-79.6,160.8-79.5,160.7z"/>
<path class="st3" d="M170.6,287.1c-2.1-5.6-6.2-9.7-9.8-14.4c-3.7-4.9-9.6-14.2-16.4-9.8c-1.2-1.7-2.2-3.5-2.9-5.3
	c-0.3-0.7-1.4-0.7-1.7-0.1c-0.2,0.3-0.4,0.6-0.7,0.9c-7.9,1.9-19.3,10.6-16.6,19.5c0.2,0.5,0.6,0.9,1.2,0.8c1.8-0.3,4.9,8.3,5.4,9.8
	c1,3,1.6,6.1,2.2,9.1c-0.1,0-0.1,0-0.2,0.1c-0.9,0.4-0.6,1.4,0,1.8c-4.3,0.4-8.4,2.6-12,4.6c-5,2.7-9.7,6.1-14.2,9.5
	c-5.1-6.8-7.1-15.4-10.8-23c0.1-0.1,0.3-0.3,0.4-0.5c0.7-0.9-0.5-1.9-1.4-1.4c-0.6-1-1.1-2-1.8-3c-2.1-3.2,12.7-7.7,14.1-8
	c5-1.1,10.2-1,15.2,0c1.3,0.3,1.4-1.7,0.2-2c-10.7-2.2-24.7-0.1-31.9,8.9c-0.3,0.4-0.2,0.9,0.1,1.2c0.9,1.3,1.7,2.7,2.4,4.1
	c-2.1,0.8-5.1,0.2-6.6,2.1c-1.2,1.5-0.7,2.9-0.1,4.6c2.3,6.4,7.7,11.4,11.1,17.2c2.8,4.7,5,11.5,11.7,10.1c6.9-1.4,13.9-7.8,18.7-13
	c1.7,2.5,4.9,2.5,7.8,1.6c3.9-1.1,4.8-4.4,5.7-7.8c1.4-5,15.9-4.9,19.9-5.6c2.7-0.5,5.2-1.5,7.8-2.3c1.1-0.3,2.1-0.5,2.9-1.3
	C172.2,293.6,171.3,289,170.6,287.1z M124.3,276.6c-1.5-7.1,7.4-13.9,14-16.1c0.3,0.3,0.8,0.4,1.3,0c0.2-0.2,0.4-0.3,0.5-0.5
	c0.1,0,0.2,0,0.3-0.1c0.7,1.4,1.6,2.7,2.5,4c-0.3,0.7,0.4,1.4,1.1,1.4c1.3,1.7,2.7,3.3,4,4.8c4.1,5,8.7,10.1,11.3,16.1
	c3,6.9-7.3,7.6-11.9,8.3c-4.6,0.7-9.8,0.7-14.3,2.1c-1-4.5-2-9.1-3.9-13.4C128.6,281.5,126.6,277.2,124.3,276.6z M169.3,292.2
	c0,2.2-1.2,2.3-2.9,2.8c-3.3,0.9-6.3,2-9.7,2.5c-4.3,0.6-8.6,1-12.8,2.3c-1.8,0.5-4.8,1.6-5.6,3.5c-0.4,1-0.7,2.1-0.9,3.2
	c-0.9,3.5-8,7.4-9.9,2.1c-0.2-0.6-1.2-0.8-1.6-0.3c-4.4,4.9-9.7,9.4-15.6,12.3c-8.2,4.1-10-4.2-13.7-9.7c-2.9-4.3-6.1-8.4-8.7-12.9
	c-1.8-3.1-2.3-5.1,1.8-5.9c0.9-0.2,1.8-0.4,2.7-0.7c3.8,8,6.1,16.9,11.6,23.9c0.4,0.4,1,0.4,1.4,0.1c4-3,8.1-5.9,12.4-8.5
	c4.4-2.7,9.8-6,15.1-5.9c0.6,0,1.2-0.5,1.1-1.2c-0.1-0.4-0.2-0.9-0.3-1.3c5.8-2,12.8-1.7,18.7-2.8c3.9-0.8,9.9-2.2,9.7-7.2
	c-0.2-5.2-5.1-10.5-8.1-14.3c-2.5-3.2-5.7-6.4-8.3-9.8c6.1-3.6,11.6,7.1,14.9,11.1c2.7,3.2,5.2,6.3,7.2,10
	C168.9,287.6,169.2,289.8,169.3,292.2z"/>
<path class="st3" d="M32,427.4c-3.2-1.3-7.5-0.1-10.7,0.5c-0.1,0-0.2,0-0.3,0.1c-0.2-0.5-0.3-0.9-0.4-1.1c-0.6-2.2-1.3-4.5-2-6.7
	c-2.2-7.3-4.1-14.6-6.5-21.9c-0.4-1.2-2.2-0.3-1.8,0.9c2.7,7.9,4.8,16,7.2,24c0.3,1,0.6,3.2,1.1,5.3c-5.3,1.1-10.6,2.6-15.9,4.1
	c-2.8-3.4-2.7-9.1-3.3-13.2c-0.6-3.9-1.5-8-4.4-10.9c-0.9-0.9-2.4,0.4-1.5,1.3c6,6.1,2.2,16.9,7,23.4c-5,1.3-10.1,2.3-15.3,3.2
	c-1.1-6.2-2-12.4-4.1-18.3c0-0.1-0.1-0.2-0.1-0.2c0.2,0,0.4-0.1,0.6-0.2c9.1-9.1,18.8-17.7,28.4-26.4c0.1,0.1,0.3,0.1,0.4,0.2
	c0.7,0.9,1.5,1.7,2.4,2.4c0.1,0.1,0.1,0.1,0.2,0.2c0.9,0.8,2-0.6,1.3-1.5c-0.8-1.1-1.7-2-2.7-2.6c0,0-0.1-0.1-0.1-0.2
	c0.4-0.5,0.2-1.2-0.4-1.5c2.3-1.2,4.8-2.2,7.1-3.3c-1.5,3-2.6,6.1-3.9,9.1c-0.5,1.2,1.4,1.8,1.9,0.7c1.7-3.9,3-7.9,5.3-11.5
	c0.5-0.8-0.4-1.9-1.3-1.5c-4.4,2.3-9.2,3.9-13.5,6.7c-0.8,0.5-0.7,1.8,0.4,1.9c0.2,0,0.5,0.1,0.7,0.1c-9.1,8.2-18.2,16.3-26.8,24.9
	c-1.1-1.2-2.5-2.3-3.2-3.8c-0.2-0.6-1.1-0.8-1.6-0.3c-6.6,6.6-11.2,17.1-20.2,20.6c-1.2,0.5-0.3,2.3,0.9,1.8
	c4.2-1.6,7.4-4.7,10.4-8.2l2.6,13.7c-3.9,0.8-7.7,1.7-11.4,2.9c0.5-1.7-0.1-3.8-1.4-5.7c-0.4-0.6-1.3-0.8-1.7-0.1
	c-0.1,0.1-0.1,0.2-0.2,0.4c-5.7-12.9-2.5-28.5-7.6-41.7c-0.5-1.2-2.3-0.3-1.8,0.9c5.3,13.7,1.6,29.8,8.2,43
	c-0.4,1.2-0.1,2.1,1.8,3.2c-0.2,0.4-0.4,0.8-0.7,1.1c-1.1,0.6-0.3,2.2,0.9,1.8c4.6-1.7,9.4-2.9,14.3-3.9l0.1,0.6
	c0,0.2,0.1,0.3,0.2,0.4c0.3,1.1,0.6,2.2,1.1,3.2c0.5,1.2,2.3,0.3,1.8-0.9c-0.5-1.2-0.9-2.5-1.2-3.7c3.8-0.7,7.5-1.3,11.3-1.9
	c0.4,1.8,1.1,3.7,3.2,3.4c1.3-0.2,0.9-2.1-0.4-2c-0.4,0.1-0.7-0.8-0.9-1.7c4.9-0.8,9.7-1.7,14.4-3c0.3-0.1,0.6-0.2,0.8-0.2
	c0.6,1.9,1.5,3.7,3.2,4.9c1,0.8,2.2-0.9,1.1-1.7c-1.2-0.9-1.9-2.1-2.3-3.5c0.3-0.1,0.5-0.3,0.6-0.5c4.6-1.3,9.2-2.5,13.8-3.6
	c0.5-0.1,1.1-0.3,1.8-0.4c0.3,0.9,0.7,1.7,1.1,2.2c0,0.2,0.1,0.3,0.1,0.5c0.2,1.3,2.2,0.9,2-0.4c-0.2-1-0.4-2-0.2-3c0,0,0-0.1,0-0.1
	c3.2-0.8,6.7-1.3,9.2-0.3C32.5,429.8,33.2,427.9,32,427.4z M-20.5,418.8c2,5.7,2.8,11.8,3.9,17.8c-3.8,0.6-7.6,1.3-11.3,2
	c-0.1-0.3-0.1-0.5-0.2-0.8l-2.6-13.7c0-0.2-0.2-0.4-0.3-0.5c2.7-3.4,5.2-7,8-10c1,1.4,2.4,2.5,3.4,3.8c0,0,0,0,0,0
	C-20.3,417.5-20.8,418.1-20.5,418.8z"/>
<path class="st3" d="M40.7,419.7c-0.2,1.2-0.6,2.3-1,3.5c-0.9-0.8-1.7-1.5-2.7-2.2c-1.1-0.7-2.2,0.9-1.1,1.7c1.1,0.8,2.1,1.6,3,2.5
	c-0.3,0.8-0.7,1.5-1.1,2.3c-0.6,1.1,1.1,2.3,1.7,1.1c0.3-0.6,0.6-1.3,0.9-1.9c0.3,0.3,0.6,0.6,0.8,0.9c0.9,0.9,2.4-0.4,1.5-1.3
	c-0.5-0.5-1-1-1.5-1.5c0.6-1.5,1.1-3.1,1.4-4.8C43,418.6,41,418.5,40.7,419.7z"/>
<path class="st3" d="M30.7,210.9c-0.1-0.1-0.2-0.1-0.3-0.2c0-0.4-0.4-0.9-0.9-0.9c-3.1,0.1-5.4,0.8-7.9,2.6c0,0-0.1,0.1-0.1,0.1
	c-5.1-0.9-8.9-3.3-11.2-8.5c-2.1-4.8-2.6-10.5-3.5-15.6c3.3-2.7,6.3-6,5.7-9.7c-0.8-4.5-8.6-5.4-12-6.1c-6.5-1.2-15.6-0.6-21.2-4.4
	c-1.1-0.7-2.2,0.9-1.1,1.7c3.6,2.4,8.6,2.8,12.8,3.4c5.6,0.8,11.6,1.2,16.9,3.4c5.7,2.4,1,7.3-2.9,10.5c-6-1-11.3-3.8-16.9-6.1
	c-1.1-0.9-2.2-1.8-3.3-2.7c-1-0.8-2.1,0.9-1.1,1.7c0.5,0.4,1,0.8,1.5,1.2c-0.1,0.3,0,0.7,0.4,1c1.2,0.7,2.4,1.5,3.6,2.3
	c3.2,2.6,6.5,5,10.4,6.6c-6.3,4.4-14.3,8.8-21.7,9.2c-0.7,0-1.1,0.7-1,1.3c-4-0.8-7.9-2.4-11.9-3.3c-5.7-1.2-11.4-0.3-17.1-1.8
	c2.9-5.1,6.5-9.7,10.4-14c4.5-5,10.3-10.6,17.1-11.9c1.3-0.2,0.9-2.2-0.4-2c-6.4,1.2-11.7,5.9-16.2,10.3
	c-5.2,5.1-9.8,11.1-13.3,17.5c-0.3,0.5-0.2,1.3,0.5,1.5c3.1,1,6.3,1.2,9.5,1.4c0,0.1,0,0.1,0,0.2c1,2.2,1.4,4.1,1.6,6.4
	c0-0.4-0.2,2.9,0.4,3.6c1.9,2.2,5,3.7,7.6,4.9c5.8,2.8,12.3,2.6,18.4,1.3c6.3-1.2,19.2-3,21.6-10.4c0.7,0,1.4-0.6,1-1.4
	c-1.7-4.1-2.3-8.5-3.9-12.6c0.7-0.5,1.5-1,2.4-1.6c0.9,1.1,0.9,2.9,1.2,4.9c0.4,2.3,0.9,4.6,1.5,6.8c1.7,6.4,5.5,10.2,10.9,12
	c1,5,4.7,7.8,9,10c0.8,0.4,1.6-0.7,1.2-1.4c-0.3-0.6-0.6-1.1-1-1.6c0.4,0.2,0.9,0.5,1.3,0.7c0.7,0.3,1.5-0.4,1.3-1.1
	c-0.4-1.5-1.1-2.7-2-3.7c0.5-0.3,0.9-0.5,1.4-0.8c0.8-0.4,0.6-1.5-0.1-1.8c0.2-0.4,0.4-0.8,0.5-1.3c0.2-0.1,0.3-0.1,0.5-0.2
	C31.4,212.4,31.3,211.3,30.7,210.9z M3.6,203.3c-0.2,8.4-15.6,9.9-21.7,11.1c-5.5,1.1-10.8,0.6-16-1.5c-2-0.8-6.4-2.9-6.6-5.4
	c-0.2-2.7-0.6-5.2-1.6-7.7c2.7,0.1,5.3,0.3,8,0.9c5.3,1.2,10.4,3.7,15.9,3.6c1.3,0,1.4-2,0.2-2c-0.6,0-1.1,0-1.7-0.1
	c7.3-1.1,14.6-5.3,20.6-9.3c1.3,3.3,1.9,6.8,3,10.1C3.7,203.1,3.7,203.2,3.6,203.3z M1.9,189.6c-0.1,0.1-0.3,0.2-0.4,0.3
	c-1.8-0.8-3.5-1.8-5.1-2.9c2,0.8,4,1.5,6.1,1.9c0.1,0,0.2,0,0.3,0.1C2.5,189.2,2.2,189.4,1.9,189.6z M23.3,215.6c0.1,0,0.1,0,0.2,0
	c0.1,0.1,0.2,0.2,0.4,0.3c0.4,0.2,0.8,0.4,1.2,0.6c0,0.2,0,0.4,0.1,0.6c0.3,0.4,0.6,0.8,0.9,1.1c-0.1,0-0.1,0.1-0.1,0.1
	C25.1,217.3,24.3,216.4,23.3,215.6z M21.9,217c1.1,0.8,2,1.8,2.8,2.8C23.5,219.1,22.6,218.1,21.9,217z M27,214.7
	c-0.1,0.1-0.1,0.3-0.2,0.5c0,0-0.1,0-0.1,0.1c-0.5-0.4-1.1-0.7-1.7-1c0-0.1,0-0.1,0-0.2c0.9-0.1,1.8-0.3,2.8-0.5
	C27.5,213.9,27.3,214.3,27,214.7z"/>
<path class="st3" d="M-91.6,256.3c-0.2-0.5-0.9-0.7-1.3-0.5c-3.1,2-4.3,5.1-4.4,8.4c-1.5-2.4-3.2-4.7-5.5-5.5
	c-3.8-1.3-5.8,2.9-5.8,6.1c0.2,8,11.2,9.9,17.3,11.4c0,0,0.1,0,0.1,0c0,0.1,0,0.2,0,0.4c0.1,0.9,1.4,1.1,1.8,0.4
	c0.3-0.5,0.3-1.2,0.4-1.8c0.1-0.4-0.1-0.6-0.3-0.8c0.1-1.7,0.4-3.5,0.6-5.1C-88.3,265.2-89.9,260-91.6,256.3z M-90.8,270.1
	c-0.1,1.3-0.4,2.7-0.4,4.1c-4.5-1.1-9.3-2.4-13.2-4.9c-3.2-2.1-2.4-11,1.8-8c2.7,1.9,4.3,5.5,6,8.3c0.6,0.9,2.2,0.5,1.9-0.6
	c-1-3.6-1.1-8,1.8-10.6C-91.4,261.9-90.4,266.3-90.8,270.1z"/>
<path class="st3" d="M-70.3,250.7c-0.4-0.6-1-0.7-1.6-0.3c-2.3,1.7-3.8,4-4.4,6.7c-0.7-1-1.4-2-2.2-3c-0.4-0.5-1-0.4-1.4-0.1
	c-5.9,4.4-0.8,10.2,4.4,12.1c1.2,0.4,1.9-1.4,0.7-1.9c-3.5-1.3-7.7-4.8-4.5-8c1.2,1.6,2.4,3.2,2.9,5.1c0.3,1.2,2.1,0.9,2-0.4
	c-0.5-3.3,0.6-6.1,2.9-8.2c2.1,4.5-0.4,10-1.6,14.6c-0.3,1.2,1.6,1.9,1.9,0.7C-69.8,262.5-66.8,255.9-70.3,250.7z"/>
<path class="st3" d="M-42.7,486.9c-2.9,1.3-5.1,3.8-6.6,6.6c-1.1-5.7-4.5-12.4-10.2-10.7c-3.7,1.1-5.4,6-5.2,9.4
	c0.3,5.6,5.4,10.2,8.2,14.7c0.7,1.1,2.5,0.2,1.8-0.9c-3.8-6-12.2-13.5-5.4-20.5c5.4-5.6,9.4,9.5,9,12.7c-0.1,1.3,1.7,1.4,2,0.2
	c0.7-3.4,2.7-6.4,5.4-8.6c4.5-3.7,6.4,2.6,5.3,6.3c-1,3.4-3.9,6.5-6.3,9c-1.8,1.9-5.3,5.9-8.3,5.6c-1.3-0.1-1.4,1.9-0.2,2
	c4.3,0.4,8.8-5,11.3-7.8c3.5-3.9,6.2-7.9,5.6-13.2C-36.5,488.2-39.2,485.3-42.7,486.9z"/>
<path class="st3" d="M-11.8,502.4c-2.4-3.1-5.2,1.7-6.7,5.4c-1.6-4-4.8-9.1-8.5-6.3c-6,4.5,2.4,13.7,5.5,17.2
	c0.8,0.8,2.2-0.1,1.7-1.1c-1.8-3.5-4.5-6.5-5-10.5c-0.2-1.3-2.1-0.9-2,0.4c0,0.2,0.1,0.3,0.1,0.5c-0.4-1.1-0.5-2.1-0.2-3
	c2-6.7,6.9,3.8,7.4,6.2c0.3,1.1,1.8,1,2-0.1c0.3-1.9,0.9-3.6,1.9-5.2c0.7-1.1,2.3-3.2,2.8-0.8c1.1,5.6-4,11.5-8,14.7
	c-1,0.8,0.3,2.3,1.3,1.5c3.4-2.7,6-6.2,7.8-10.1C-10.6,508.7-10,504.7-11.8,502.4z"/>
<path class="st3" d="M-107.5,313.6c-1.3,0.2-0.9,2.2,0.4,2c1.6-0.2,5.3,0,2.8,2.4c-1.1,1.1-2.7,1.3-4.1,1.4c-0.8,0.1-1,1.1-0.6,1.6
	c0.8,0.9,1.4,2,2,3c-1.9-0.9-3.5-2.2-5-3.9c-0.4-0.5-1.3-0.5-1.6,0.1c-1.1,2-2.2,3.7-3.8,5.2c-0.2-4-3.5-5.5-7-7.7
	c1.9-0.7,4.2-1.5,5.7-1c0.6,0.2,1.1-0.2,1.3-0.6c0.4,0,0.7-0.2,0.9-0.7c0.4-1.3,0.7-2.6,1-3.9c0.5-1.6,1.1-3.1,1.9-4.6
	c1.6,2,3,4.3,3.5,6.8c0.3,1.3,2.2,0.9,2-0.4c-0.7-3.3-2.6-6.3-4.9-8.7c-0.4-0.5-1.2-0.5-1.6,0.1c-0.4,0.7-0.8,1.4-1.2,2.1
	c-0.5,0-1,0.3-1.1,0.9c-0.2,1.2-0.4,2.4-0.6,3.5c-0.4,1.2-0.7,2.4-0.9,3.6c-2.7-0.7-6,1.1-8.5,1.7c-0.9,0.2-1.1,1.3-0.4,1.8
	c3.4,2.5,8.8,3.6,7.7,9c-0.2,0.7,0.5,1.8,1.4,1.2c2.5-1.6,4.1-3.5,5.6-5.9c2.2,2.3,4.7,3.7,7.8,4.4c0.9,0.2,1.3-1,0.8-1.7
	c-1-1.3-1.7-2.7-2.6-4c2.5-0.6,4.8-2,5.2-4.7C-100.9,313.2-105.6,313.3-107.5,313.6z"/>
<path class="st3" d="M137,234.5c-1.2-1.5-2.7-2.3-4.5-3.1c-1.2-0.5-1.8,1.4-0.7,1.9c1,0.3,1.8,0.8,2.6,1.4c-1.7,0.6-3.3,1.3-5,1.8
	c-0.7,0.2-0.9,0.8-0.7,1.4c0.3,1,0.4,2.1,0.4,3.2c-1.5-1-3.1-2-4.8-2.3c-1.5-0.3-3.3,0.7-4.9,1.7c0.6-1.8,1-3.6,1.1-5.6
	c0-0.5-0.4-1.1-0.9-1.1c-2.1-0.1-3.7-0.6-5.3-1.7c2.1-0.4,4.1-0.5,6.2,0.3c0.2,0.1,0.4,0.1,0.5,0c0.2,1,1.8,1.1,2-0.1
	c0.3-3,1.5-5.9,3.3-8.2c0.4,1,0.7,2,1.1,3c0.5,1.4,1.2,3.1,1.1,4.6c-0.1,1.3,1.9,1.4,2,0.2c0.2-3.3-1.8-7.1-3-10.2
	c-0.2-0.6-1.1-0.7-1.6-0.3c-2.5,2.5-4.1,5.7-4.8,9.1c0,0-0.1,0-0.1-0.1c-3-1.2-6.1-0.9-9.2,0.1c-0.7,0.2-1.2,1-0.6,1.6
	c2,2.1,4.1,3.2,6.9,3.5c-0.3,2.4-0.9,4.6-1.9,6.8c-0.4,0.8,0.6,1.6,1.4,1.2c1.8-0.9,3.6-2.2,5.6-2.9c1.7-0.6,4.8,2.1,6.1,2.9
	c0.8,0.5,1.6-0.1,1.5-1c-0.2-1.6,0-3.1-0.3-4.6c1.9-0.6,3.7-1.5,5.7-2C137.2,236,137.5,235.2,137,234.5z"/>
<path class="st3" d="M159.5,338.4c-2.1-0.2-4.3-0.1-6.3,0.2c-1.3,0.2-0.9,2.1,0.4,2c1.3-0.2,2.7-0.2,4.1-0.2
	c-1.3,1.5-3.1,2.2-5.5,2.1c-0.9,0-1.6,1.3-0.6,1.8c1.7,0.9,3.3,2.4,4.2,4.1c-2.1-0.3-4.1-0.9-6.1-1.8c-0.4-0.2-0.9,0-1.2,0.4
	c-1.3,2-2.2,4.2-3.4,6.3c-0.3-2.3-0.6-4.6-1.9-6.5c-1.3-1.9-4-2.2-6.4-2.1c1.4-1.6,3.2-2.3,5.3-1.9c0.1,0,0.2,0,0.3,0
	c0.2,0.9,1.6,1.2,1.9,0.2c0.5-1.8,0.8-3.7,1.1-5.5c0.1-0.5-0.2-0.8-0.5-1c0.1-1.1,0.2-2.2,0.3-3.3c2.2,1.7,4.2,3.8,5.9,6
	c0.8,1,2.3-0.3,1.5-1.3c-2.2-2.7-4.9-5.4-7.7-7.4c-0.6-0.4-1.5,0-1.6,0.7c-0.3,3.2-0.5,6.5-0.7,9.7c-0.1,0-0.1-0.1-0.2-0.1
	c-3.9-0.2-6.9,0.9-8.4,4.6c-0.3,0.8,0.4,1.4,1.1,1.3c2.6-0.2,5.8-0.5,7.2,2.3c1,2.1,1,5,1.3,7.3c0.1,0.9,1.3,1,1.8,0.4
	c0.6-0.8,4.3-8,5-7.7c2.2,1,4.7,1.4,7.1,1.5c0.6,0,1.3-0.5,1.1-1.2c-0.7-2-1.9-3.8-3.5-5.2c2.2-0.5,4-1.9,5.4-4.1
	C160.6,339.4,160.3,338.5,159.5,338.4z"/>
<path class="st3" d="M9.5,462.6c-1.6-1.8-3.9-2.1-6.1-1.7c2.7-3.6,3.7-7.9-2.1-10c-5.2-1.9-10.2,0.8-12,5.3c-4.2,0-7.9,2.9-9.6,6.7
	c-2.7-1.4-6.7-1.5-9.3,0.5c-10.2,7.6,3.9,21.3,13.2,13.9c1-0.8-0.3-2.3-1.3-1.5c-6.8,5.5-18.2-3.8-11.2-10.4
	c1.8-1.7,5.6-1.8,7.9-0.6c-0.5,2-0.5,4.1,0.3,6.1c0.2,0.6,1.1,0.8,1.6,0.3c2.6-2.9,2.2-5.4,0.4-7.1c1.3-3,4.2-5.5,7.4-5.8
	c-0.1,0.7-0.2,1.4-0.2,2.1c0,0.9,1.3,1.6,1.8,0.6c0.5-1,1.1-1.9,1.8-2.7c0.5-0.5,0.5-1.5-0.3-1.7c-0.2,0-0.3-0.1-0.5-0.1
	c1.3-2.7,4.1-4.2,7.8-3.9c2,0.1,4.2,1.1,4.7,3.2c0.7,2.9-3.2,5.7-5.1,7.2c-0.9,0.7,0.1,2.3,1.1,1.6c6.3-3.9,12.7,1.1,8.4,7.8
	c-0.8,1.3-2.1,2.4-3.3,3.3c0,0-0.1,0.1-0.1,0.1c-0.5-0.9-1.2-1.8-1.8-2.7c-1.2-1.8-3.6,1.4-4.1,2.3c-1.4,2.2,0.5,3.7,2.5,3.9
	c0.5,0.1,0.9,0,1.4-0.1c-1.8,3.6-12.5,2.9-15.9,0.9c-1.1-0.6-2.2,1-1.1,1.7c1.5,0.9,3.3,1.6,5.2,2l3.2,16.5c0.2,1.3,2.2,0.9,2-0.4
	l-3-15.8c0.9,0.1,1.8,0.1,2.7,0.1c0.1,0,0.2,0,0.3,0c1,6.1,1.6,14.8,8.9,16c1.3,0.2,1.4-1.8,0.2-2c-5.9-1-6.4-9.2-7.1-14.3
	c2.9-0.6,6.6-1.9,7.3-4.3c0.2-0.6,0.2-1.1,0.2-1.6c2.1-1.4,3.9-3.7,4.9-5.3C12.4,469.4,12.1,465.3,9.5,462.6z M1,475.8
	c0.5-1.1,0.8-1.3,1-0.8c0.5,0.7,0.7,1.2,0.9,1.8C2.3,476.8,1.6,476.5,1,475.8z"/>
<path class="st3" d="M-21.7,537.6c-2,0-4-0.3-5.8-1.2c-2.8-1.5-0.4-4.2,1.2-5.7c0.9-0.9-0.4-2.4-1.3-1.5c-1.9,1.9-4.1,4.4-2.8,7.1
	c-0.1,0-0.3,0.1-0.4,0.2c-1.1,0.8-2.5,1.3-3.9,1.9c0.3-3-0.1-5.9-2.1-8.1c-2.4-2.7-6.6-1.7-9.3-0.2c-2.6,1.4-4.4,3.8-5.5,6.5
	c-2.5-6.5-9.3-11.9-15-5c-6.6,7.9-1.2,15.3,4.9,21.7c-0.1,0-0.1,0.1-0.2,0.2c-0.3,0.4-1.5,0.8-2,1.1c-0.9,0.4-1.9,0.9-3,1.1
	c-1.3,0.3-0.9,2.2,0.4,2c1.2-0.3,2.4-0.8,3.5-1.3c0.9-0.4,2-0.9,2.7-1.6c2.7,2.7,5.4,5.2,7.1,7.5c0.8,1,2.3-0.3,1.5-1.3
	c-4.9-6.3-13-10.8-15.3-18.8c-1.3-4.7,1.9-12.8,7.7-11.5c4.8,1.1,6.9,7.1,6.7,11.3c0,1.3,1.9,1.5,2,0.2c0-4.5,2.1-8.3,6.1-10.5
	c4.7-2.6,7.9,0.7,7.9,5.4c0.1,11.3-11.8,18.5-16,28.1c-0.5,1.2,1.4,1.8,1.9,0.7c3.3-7.5,10.2-12.4,13.8-19.7
	c0.8-1.5,1.5-3.4,1.9-5.2c0.1,0,0.2,0,0.3-0.1c1.7-0.9,3.7-1.5,5.3-2.7c0.1-0.1,0.2-0.2,0.2-0.2c1.9,1.6,5.2,1.9,7.5,1.9
	C-20.6,539.7-20.4,537.7-21.7,537.6z"/>
<path class="st3" d="M104.6,495.9c-2.7-0.7-5.7-0.4-8.4,0.6c0.6-2.5,1.6-4.8,2.8-7.1c0.6-1.1-1.1-2.3-1.7-1.1
	c-1.6,3.1-2.9,6.3-3.5,9.8c-0.1,0.8,0.8,1.3,1.4,1c2.5-1.3,5.9-1.9,8.6-1.3C105.1,498.1,105.8,496.2,104.6,495.9z"/>
<path class="st3" d="M-19.2,533.6c-1.2,0.2-2.3,0.2-3.5,0.1c0.6-1.4,1.2-3,2.2-4.1c0.9-0.9-0.4-2.4-1.3-1.5c-1.6,1.7-2.4,4-3.3,6.1
	c-0.3,0.6,0.3,1.3,0.9,1.3c1.8,0.2,3.6,0.3,5.4,0C-17.6,535.3-17.9,533.3-19.2,533.6z"/>
<path class="st3" d="M101.2,356.7c-1.5-2-3.4-2.9-5-2.6c0.1-0.6,0.1-1.1,0-1.7c0.6,0.7,2.1-0.1,1.6-1.2c-3.4-8.3-9.1-15.3-13.7-22.9
	c-5.9-9.8-6.3-20.8-9.5-31.4c-0.3-1-1.9-1.1-2,0.1c-0.8,9.3,1,18.8-0.9,28c-2.7-13-1.2-26.5-4.9-39.3c-0.2-0.7-1.4-1.2-1.8-0.4
	c-8.8,16.3-5.7,35.4-9.6,52.9c-4.1-20,1.5-40.4,1.7-60.6c0-0.9-1.3-1.6-1.8-0.6c-4.7,8.2-7.2,17.1-8.8,26.2
	c0.6-6.4,0.7-12.7-0.8-19.1c-0.2-0.8-1.4-1.2-1.8-0.4c-4.9,9.2-7.2,19.3-8.9,29.5c0.3-5.3,0.4-10.6,0-15.9c-0.1-1.1-1.6-0.9-1.9-0.1
	c-4.2,9-4.1,19-6,28.5c-0.1-4.2,0.1-8.4,0-12.6c-0.1-3.8,0.6-10.1-1.9-13.4c-0.8-1-2.3,0.3-1.5,1.3c1.1,1.4,1,4.1,1.2,5.8
	c0.3,3.2,0.3,6.4,0.3,9.6c0.1,5.3-0.2,10.6,0.3,15.8c0.1,1,1.6,1,1.9,0.1c3.3-9.8,2.7-20.5,5.9-30.2c0.2,9.3-1,18.7-1.1,28
	c0,1.3,1.8,1.4,2,0.2c2.6-14.5,3.7-29.6,10.1-43c2.6,16.4-4.1,32.8-3.2,49.3c0.1,1,1.7,1.6,1.9,0.4c4.1-18.2,3.7-38.3,12-55.3
	c-0.9,20.3-6.1,40.7-0.6,60.8c0.2,0.9,1.6,1.2,1.9,0.1c5.1-17.5,1.4-37.3,9.3-54c3.1,13.3,1.4,27.3,5.1,40.5
	c0.3,0.9,1.6,1.1,1.9,0.1c2.8-8.1,1.9-16.6,1.8-25c1.6,7.5,2.8,14.9,6.3,21.9c4.2,8.3,10.5,15.4,14.4,23.8c-0.1-0.2-0.3-0.3-0.5-0.4
	c-2.7-2-5.5-0.2-7.4,2c0-0.1-0.1-0.1-0.1-0.2c-0.1-0.5-0.6-1-1.2-0.8c-3.8,1.2-6.7,4.6-6.5,8.8c0.1,1.3,0.4,2.3,1,3.2
	c0,0.1-0.1,0.2-0.1,0.4c-0.7,2.5,1.1,4.8,3.5,5.5c2.9,0.8,6.4-1.3,8.1-3.5c0.8-1-0.9-2.1-1.7-1.1c-1.6,2.1-7.8,4.5-8.1,0.4
	c1.2,0.7,2.7,0.9,4.4,0.5c0.4-0.1,0.8-0.5,0.8-0.9c0-2-0.3-4.9-2.9-4.8c-1.1,0-2.1,0.6-2.8,1.5c-0.2-0.5-0.3-1.1-0.3-1.8
	c0-2.6,1.7-4.8,4-5.8c0.2,0.4,0.4,0.8,0.8,1.2c0.5,0.5,1.2,0.5,1.6-0.1c1.1-1.5,2.6-3.7,4.8-3.2c2,0.4,1.7,2.8,1.1,4.6
	c-0.5,0.6-0.9,1.5-1.1,2.5c-0.2,1,1.2,2,1.8,0.9c0.4-0.7,0.8-1.5,1.1-2.3c1.2-1.2,2.9-0.6,4.3,1.5c2.2,3.4,0.2,6.1-3.4,6.9
	c-1.3,0.3-0.9,2.2,0.4,2C101.8,365.8,104.5,361.3,101.2,356.7z M85.5,363c-1,0.1-1.9-0.2-2.6-0.7c0.3-0.4,0.7-0.7,1-1
	C85.1,360.5,85.4,361.9,85.5,363z"/>
<path class="st3" d="M-83.2,411.8c-0.5-0.7-1.7-0.2-1.8,0.6c-0.1,2.6,0.1,5.2,0.4,7.8c-1.5-3.5-3.2-6.9-5.6-10.1
	c-0.5-0.7-1.7-0.3-1.8,0.6c-0.1,2.7,0.1,5.2,0.6,7.8c-1.4-2-3.1-3.8-5.1-5.3c-0.7-0.6-1.6,0.2-1.5,1c0.4,3,1.1,5.8,2.1,8.5
	c-1.6-2.2-3.4-4.4-5.4-6.3c-0.7-0.7-1.9-0.2-1.7,0.8c0.7,4.3,2,8.3,3.6,12.2c-2-1.6-4.1-3-6.6-3.9c-0.8-0.3-1.4,0.4-1.3,1.1
	c0.7,5.9,3.8,11.1,7.4,15.9c-1.4-1.1-2.7-2.1-4.1-3.2c-2-1.5-6.8-6-9.7-4.8c-1.2,0.5-0.3,2.3,0.9,1.8c1.8-0.7,8.1,5,9.5,6
	c3.4,2.6,6.8,5.3,9.9,8.1c0.9,0.8,2.3-0.3,1.5-1.3c-5.1-6.3-11.5-12.9-13.1-21.1c3.2,1.5,5.8,3.9,8.2,6.6c2.4,4.6,5.4,9,8.6,13.2
	c0.7,0.9,2.2-0.1,1.6-1.1c-2.4-4.3-5.1-9.1-8.5-13.2c-2.2-4.2-4-8.7-5.2-13.4c6.1,7.1,10.1,15.7,14.7,23.8c0.6,1.1,2.4,0.3,1.8-0.9
	c-4.2-8.8-9.8-17-11.8-26.7c5.7,5.6,8.1,14.6,10.9,21.8c0.4,1,2.2,0.4,1.9-0.6c0-0.1-0.1-0.2-0.1-0.3c0,0,0,0,0,0c0,0,0,0,0,0
	c-2.5-7.7-6.6-15.3-7.1-23.4c4.1,6.5,6,14.1,8.3,21.4c0.4,1.2,2.2,0.9,2-0.4c-1.3-6.4-3-12.6-3.3-19.1c5.5,9.3,9.4,21.6,8.4,32.1
	c-0.1,1.3,1.9,1.4,2,0.2C-71.4,436-76.5,421.8-83.2,411.8z"/>
<path class="st3" d="M61.9,203.1c-10.6,5.1-18.2,13.7-26.1,22.1c-4.4,4.7-9,9-14.8,12.2c-6.1,3.3-13.1,4.8-19.8,6.4
	c-4.4,1-8.7,2.4-13.3,2.1c-4.6-0.2-8.4-3.3-11.9-6c-3.5-2.7-7.1-6.4-12-5.7c-5,0.7-8.4,4-11.3,7.9c-0.8,1,0.9,2.2,1.7,1.1
	c2.3-3.2,4.8-5.8,8.7-6.9c4.2-1.2,7.7,1.9,10.7,4.3c2.9,2.4,6,4.7,9.5,6.2c7.2,3,16.1-0.6,23.2-2.4c11.2-2.8,20.2-7.4,28.4-15.6
	c8.8-8.8,16.3-18.5,27.8-24C63.9,204.4,63,202.6,61.9,203.1z"/>
<path class="st3" d="M79.1,207.4c-8.9-10.8-23,4.1-29.1,10.8c-4.1,4.5-7.8,9.3-11.5,14.2c-7.6,10.3-17.9,13.3-29.6,17
	c-1.2,0.4-0.8,2.4,0.4,2c8.6-2.8,17.4-5,24.6-10.8c4.7-3.8,8-9.6,11.8-14.3c5.2-6.6,22.6-29,31.9-17.6
	C78.4,209.7,79.9,208.4,79.1,207.4z"/>
<path class="st3" d="M133.3,384.9c-1.4,0.2-7.7-6.1-9.1-7.4c-3.4-3-7.5-6.2-10.1-10c-0.3-0.5-1-0.8-1.6-0.3c-3.4,3.3-6.4,7-9.4,10.7
	c0.1-2.8-0.1-5.6-0.8-8.3c-0.2-0.6-0.6-0.8-1.2-0.8c-4.5,0.4-8.8,2.2-12.6,4.5c-0.4,0.3-0.8,0.8-0.5,1.3c0.7,1.2,1.7,2.7,2.4,4.1
	c0,3.6,0.5,7.1,1.9,10.5c-0.3,0.3-0.6,0.7-0.9,1.1c-0.2,0.3-0.4,0.5-0.6,0.8c-0.2,0.1-0.3,0.3-0.4,0.4c-0.6-0.3-1.4-0.2-1.5,0.6
	c-0.3,0.3-0.6,0.7-0.3,1.2c3.8,8.2,4.9,17.1,7,25.9c0.3,1.1,1.9,1.1,2-0.1c0-0.4,0-0.8,0-1.3c4.6-0.7,9.2-0.8,13.8-1.2
	c1.3-0.1,0.9-2.1-0.4-2c-4.5,0.4-9.1,0.5-13.6,1.1c-0.1-0.7-0.2-1.3-0.3-2c-0.1-0.5-0.4-0.7-0.8-0.8c-1.4-6.4-2.6-12.9-5.2-19
	c0.3-0.3,0.6-0.6,0.9-1c2-2.7,4.5-4.7,6.8-7c0.3-0.4,0.7-0.7,1-1.1c0.2,0.5,0.5,1,0.7,1.5c0.4,0.9,1.8,0.6,1.9-0.4
	c0.2-1.6,0.4-3.2,0.5-4.7c3.4-4,6.5-8.1,10.2-11.9c2.9,3.9,7,7.1,10.6,10.3c1.9,1.6,7.1,7.7,10,7.2
	C134.9,386.6,134.5,384.6,133.3,384.9z M101,380.3c-0.2,0.2-0.3,0.4-0.5,0.6c-1.8,2.1-3.6,4.1-5.6,5.9c-0.3-0.5-0.9-0.6-1.4-0.4
	c-0.5-1.5-0.7-3-0.9-4.5c0.4-0.1,0.8-0.5,0.7-1.1c-0.5-2.5-0.9-4.9-1-7.5c2.6-1.3,5.3-2.2,8.2-2.6
	C101.2,373.9,101.3,377.1,101,380.3z"/>
<path class="st3" d="M136,383.6c-0.4-1.2-2.2-0.3-1.8,0.9c1.6,4.4,1.7,9.7,2.1,14.3c0.1,1.4,1.3,11,0.5,13.8
	c-3.6-1.1-7.6-0.2-11.4-0.7c-1.3-0.2-1.4,1.8-0.2,2c3.4,0.5,7.2-0.4,10.6,0.5c0.1,0.6,0.7,1.1,1.4,0.7c0.1,0,0.1-0.1,0.2-0.1
	c0,0,0,0,0,0c1,0.5,1.6-0.8,1-1.6c1.1-3.2,0.1-9.5,0-11.5C138.2,396,138.1,389.2,136,383.6z"/>
<path class="st3" d="M116.4,398c-2.7-0.6-4.6,2.1-5,4.3c-0.1,0.5-0.2,1-0.2,1.5c-0.5-1.4-1-2.7-1.6-4.1c-0.5-1.2-2.3-0.3-1.8,0.9
	c1.8,4.3,3.1,8.7,4,13.2c0.3,1.3,2.2,0.9,2-0.4c-0.4-2.1-2.3-16,3-13.3c2,1,2.9,4.2,3.5,6.1c0.5,1.4,0.8,2.9,1.1,4.4
	c-0.3,0.3-0.4,0.7-0.2,1.1c0.2,0.6,0.6,1.1,0.9,1.6c0.6,0.8,1.9,0.1,1.7-0.8C123,408.2,121.9,399.2,116.4,398z"/>
<path class="st3" d="M114.6,381c-2.4-1.3-6.1-0.5-6.7,2.4c-0.5,2.2,1.3,4.1,3.2,4.8c-0.6,0.4-0.7,1.5,0.2,1.7
	c2.6,0.6,5.9,0.3,6.4-2.8C118.2,384.7,116.7,382.1,114.6,381z M115.8,386.6c-0.1,1.1-0.8,1.5-1.6,1.6c0.4-0.6,0.3-1.6-0.6-1.6
	c-1.7,0.1-3.7-0.9-3.7-2.9c0.1-2,3.1-1.5,4.2-0.8C115.2,383.7,115.9,385.2,115.8,386.6z"/>
<path class="st3" d="M158.7,209.9c-8.1,0.6-2.2-17.8-2.8-22.4c-0.1-0.9-1.3-1-1.8-0.4c-2.3,2.8-4,5.9-5.8,9
	c1.5-5.5,3.6-10.8,4.9-16.3c0.2-0.9-0.8-1.8-1.6-1.1c-3.8,3.4-6.6,7.6-9.2,11.9c2.8-6.8,5.9-13.4,5.9-20.8c0-0.7-0.7-1.4-1.4-1
	c-4.7,2.7-7.6,7.3-10,12.2c2.6-8.6,5.6-17.6,3-26.1c-0.2-0.8-1.3-1.2-1.8-0.4c-5.7,9.3-7,20.2-10.4,30.4
	c-0.1-15.6,2.9-31.8-2.2-46.8c-0.3-0.9-1.5-0.6-1.8,0.1c-6.7,15.2-4.2,32.9-10.6,48.1c-0.3-15.3,2.1-31.1-3.8-45.5
	c-0.3-0.7-1.4-0.7-1.7-0.1c-7.3,12.5,3.9,30.3-5.1,41.8c-6.6-10-2.3-24.1-6.2-35.1c-0.4-1.1-1.7-0.5-1.9,0.4
	c-2.4,11.8,0.5,25-4.3,36.2c-1.5-9.2-0.9-18.7-3.3-27.9c-0.3-1.1-1.8-1-2,0.1c-1.4,8-0.3,16.6-2.1,24.5c-0.7-5.9-1.4-11.8-3.2-17.6
	c-0.3-0.8-1.6-1.2-1.9-0.1c-1.5,5.9-2,11.9-2.3,17.9c-2-6.5-4.6-12.7-7.7-18.8c-0.6-1.1-2.4-0.3-1.8,0.9c3.9,7.7,7,15.6,9.2,23.9
	c0.3,1.1,1.9,1.1,2-0.1c0.4-6.4,0.6-12.9,1.7-19.2c1.4,6,2,12,2.7,18.1c0.1,1.1,1.6,1,1.9,0.1c3-7.2,2.4-15.2,2.9-22.9
	c1.1,8.1,0.9,16.4,2.6,24.4c0.2,0.8,1.4,1.2,1.8,0.4c5.9-10.7,3.9-23.1,5.1-34.9c1.9,10.7-1,22.9,6,32c0.3,0.4,1.1,0.5,1.4,0.1
	c10.4-11.5-0.3-28.3,5.2-41.2c5.2,14.8,2.1,31.2,3,46.6c0,0.9,1.3,1.6,1.8,0.6c8.3-15.3,5.6-33.4,11.5-49.4
	c4.3,15.6,0.5,32.5,1.4,48.4c0.1,1.1,1.5,1.5,1.9,0.4c4.5-10.5,5.4-22.4,10.8-32.5c1.9,10.7-4.2,22.1-6.1,32.4
	c-0.2,1,1.4,1.5,1.8,0.6c3.3-6.3,6-14.7,12-19.2c-0.7,9.7-6.5,18.2-8.9,27.5c-0.3,1.1,1.1,1.9,1.8,0.9c3.7-5.7,6.7-12.1,11.2-17.2
	c-1.9,6.4-4.4,12.6-5.4,19.2c-0.2,1,1.3,1.4,1.8,0.6c2.5-3.9,4.5-8.1,7.1-11.9c-0.8,7.6-5,21.9,5.2,21.1
	C160.3,211.8,159.9,209.8,158.7,209.9z"/>
<path class="st3" d="M85,436.9c-3.2,5.3-5.8,11-8.4,16.6c1.8-5.6,3.8-11.1,5.3-16.8c0.3-1.1-1-1.8-1.8-0.9
	c-3.5,4.3-6.1,9.1-8.4,14.1c0.8-3.2,1.5-6.5,1.7-9.8c0.1-1-1.3-1.5-1.8-0.6c-3.4,5.9-4.9,12.6-7.4,18.8c0.7-5,1.5-10.1,1.7-15.2
	c0-1-1.3-1.5-1.8-0.6c-3.2,5-4.9,10.6-6.9,16.1c0.5-4.4,1.2-8.7,0.5-13.1c-0.1-0.9-1.3-1.1-1.8-0.4c-3,4.4-3,9.8-5,14.5
	c-1.1-3.4-1.5-6.8-2.1-10.3c-0.2-1.1-2-1-2,0.1c-0.1,4,0.2,8-1,11.8c-1.5-3.4-4-10-6.4-6.8c-0.8,1,0.9,2.2,1.7,1.1
	c-0.9,1.2,3.1,7.6,4.1,8.7c0.6,0.6,1.4,0.3,1.7-0.3c0.9-1.8,1.4-3.7,1.6-5.6c0.4,1.5,0.8,2.9,1.4,4.3c0.3,0.7,1.4,0.7,1.7,0.1
	c2.5-4.1,2.7-9.1,4.4-13.4c0,5.1-1.2,10.2-1.2,15.4c0,1.2,1.5,1.5,1.9,0.4c2.6-5.7,4.1-11.8,6.8-17.5c-0.5,5.6-1.5,11.2-2.2,16.8
	c-0.1,1,1.3,1.5,1.8,0.6c3.4-5.8,4.8-12.3,7.3-18.5c-1.3,6-3.4,11.8-4.9,17.8c-0.3,1.3,1.4,1.8,1.9,0.7c3.4-7.7,6.3-15.8,10.8-23
	C76,449,73.4,456,72,463.3c-0.2,1,1.4,1.5,1.8,0.6c3.5-6.8,6.4-14,10-20.8c-1.9,9.3-4.9,18.3-7.8,27.3c-0.4,1.2,1.5,1.9,1.9,0.7
	c3.6-11,7.3-22,8.9-33.5C86.9,436.6,85.5,436.1,85,436.9z"/>
<path class="st3" d="M-127.6,193.4c1.5-1,2.5-2.5,2.6-4.9c0-1.3-2-1.4-2-0.2c0,4.8-5.2,4.5-8.8,4.7c-0.2,0-0.4,0-0.5,0
	c0,0,0-0.1,0-0.1c-0.2-0.8-1.4-1.2-1.8-0.4c-0.1,0.3-0.2,0.6-0.3,0.8c-1.9,0.4-3.4,1.2-5,2.8c-1.4,1.4-2.9,3.7-2.3,5.7
	c0.6,2.3,3.7,1.9,5.4,1.5c1.3-0.3,0.9-2.2-0.4-2c-4.9,1.1-2.5-2.8-0.4-4.7c0.7-0.6,1.5-1,2.3-1.2c0.2,0.6,0.8,0.9,1.3,0.8
	c0.7,2.4,1.7,4.8,2.8,7c0.4,0.9,2.3,4.9,3.7,2.6c0.5-0.8-0.2-1.5-0.9-1.6c0,0,0-0.1-0.1-0.1c-0.2-0.3-0.4-0.7-0.6-1
	c-0.6-1.1-1-2.2-1.5-3.3c-0.7-1.6-1.3-3.2-1.8-4.9c0.9-0.1,1.8-0.1,2.6-0.1c1.3-0.1,2.6-0.3,3.7-0.6c1,4.2,2.7,8.1,4.4,12.1
	c0.5,1.2,2.3,0.3,1.8-0.9C-124.9,201.5-126.7,197.5-127.6,193.4z"/>
<path class="st3" d="M-116.2,189.2c-0.7,0.5-1.5,0.7-2.4,0.8c-1.3,0.2-0.9,2.2,0.4,2c1.2-0.2,2.3-0.6,3.3-1.3
	C-113.9,189.9-115.2,188.4-116.2,189.2z"/>
<path class="st3" d="M-113.7,192.9c-0.7,0.9-1.6,1.3-2.7,0.9c-1.2-0.5-1.9,1.4-0.7,1.9c2,0.7,3.8,0,5-1.6
	C-111.3,193-112.9,191.8-113.7,192.9z"/>
<path class="st3" d="M-101.6,175.4c-3.7-3.8-7.9,1.3-8.1,5c-0.1,1.3,1.9,1.4,2,0.2c0.1-2.2,1.7-5.4,4.5-3.9c1.5,0.8,1,3.3,0.9,4.6
	c-0.2,2.1-1.1,4.7,0.3,6.6c0.8,1,2.3-0.3,1.5-1.3c-1-1.3,0.2-4.6,0.3-6.1C-100.1,178.6-100.3,176.7-101.6,175.4z"/>
<path class="st3" d="M-99,193.8c-1.3,0.2-0.9,2.2,0.4,2C-97.4,195.6-97.8,193.6-99,193.8z"/>
<path class="st3" d="M36.5,476.7c-2.8-1.8-7.3-0.5-9.2,2.1c-2.1,3,0.4,6.2,3.1,7.8c0.1,0.3,0.4,0.6,0.8,0.7c0.1,0,0.3,0,0.4,0
	c-1.5,0.8-9.4,5.6-6,7.4c1,0.5,2-0.8,1.4-1.5c0.1-0.1,0.1-0.2,0.2-0.3c0.5-0.5,1.1-1,1.6-1.4c1.2-0.9,2.5-1.8,3.8-2.5
	c0.7-0.4,0.6-1.3,0.1-1.7c2.4-0.1,4.6-1.3,5.6-3.7C39.5,481.3,38.8,478.2,36.5,476.7z M36.4,483.3c-0.8,1.6-2.4,2.2-4.1,2.2
	c-0.1,0-0.1-0.1-0.2-0.1c-2.2-1-4.9-3.7-2.6-6c1.5-1.5,4.8-2.1,6.5-0.5C37.1,480,37.1,481.9,36.4,483.3z"/>
<path class="st3" d="M45.6,492.3c-2-2.5-4.7-4-6.8-6.3c-0.9-0.9-2.4,0.4-1.5,1.3c2.1,2.3,4.9,3.9,6.8,6.3
	C44.9,494.6,46.4,493.3,45.6,492.3z"/>
<path class="st3" d="M40.9,509.7c-1.6-2.5-3.7-4.6-6.1-6.4c0,0,0,0,0,0c0.5-0.4,0.9-0.8,1.3-1.3c0.7-0.8-0.3-1.7-1.2-1.4
	c0.1-3.7-0.3-7.4,0.1-11c0.1-1.3-1.9-1.4-2-0.2c-0.4,4.3,0.2,8.7-0.2,13c-1.6,1.2-3.5,2-5.3,3c-1.4,0.8-3,1.7-3.5,3.3
	c-0.4,1.2,1.5,1.9,1.9,0.7c0.5-1.8,3.6-2.8,5.1-3.5c0.5-0.3,1-0.6,1.5-0.9c0,0.1,0,0.2,0,0.3c-0.2,1.2,1.6,1.4,1.9,0.3
	c1.8,1.4,3.4,3.1,4.7,5.1C39.8,511.7,41.6,510.8,40.9,509.7z"/>
<path class="st3" d="M92.2,239c-4-2.2-8-4.6-11.8-7.1c1.3-1.1,2.4-2.7,3-4.3c1.2-2.8,1.3-7.5-2.4-8.5c-0.2-0.1-0.4,0-0.6,0
	c-4.4-1.7-9.8-0.4-12,4c-1.8,3.7,1.3,8.2,4.9,9.8c-1.7,2.3-3.5,4.5-5.4,6.7c-1.2,1.4-5,4.6-3.5,6.6c0.3,0.4,0.8,0.4,1.2,0.2
	c0.3-0.2,0.6-0.4,1-0.4c1.3,0,1.4-2,0.2-2c0,0-0.1,0-0.1,0c1.4-1.6,4.2-4.9,4.6-5.3c1.4-1.7,2.8-3.4,4.1-5.3c0.1,0,0.2,0,0.3,0
	c0.1,5.5,2,11.1,3.6,16.3c1.4,4.3,2.6,9.5,5.1,13.3c-0.1,5.9-1.7,11.8-3.6,17.4c-0.4,1.2,1.5,1.9,1.9,0.7c1.9-5.7,3.6-11.9,3.7-18
	c0.1-0.2,0.1-0.5-0.1-0.8c-2.3-3.4-3.4-8-4.7-11.9c-1.8-5.4-3.9-11.3-4-17c0-0.1,0-0.2-0.1-0.3c0.4-0.1,0.7-0.2,1-0.4
	c0.1,0.1,0.2,0.2,0.3,0.3c3.9,2.6,8,5.1,12.1,7.3C92.2,241.2,93.3,239.6,92.2,239z M76.6,231.5c0.4-1-1.1-2-1.7-0.9
	c-0.1,0.2-0.3,0.4-0.4,0.7c-2.8-1-5.1-4.3-4.3-7.1c1.2-3.9,6.5-4.4,9.7-3.1c0.3,0.1,0.5,0.1,0.7,0c2.2,0.8,1.6,3.7,1,5.5
	C80.9,228.7,79.1,231.2,76.6,231.5z"/>
<path class="st3" d="M100.5,267.6c-1.9,0.2-4.4-0.8-6.2-1.3c-1.5-0.5-5.7-1.5-6-3.4c-0.2-1.3-2.1-0.9-2,0.4c0.3,2.6,4.2,3.9,6.3,4.6
	c2.4,0.9,5.6,2.1,8.2,1.8C102.2,269.4,101.8,267.5,100.5,267.6z"/>
<path class="st3" d="M81.6,497.6c-0.2-0.9-1.7-1.2-1.9-0.1c-3,12.2-4.3,24.8-8.1,36.8c-0.4-10.4,1.4-20.9,0.2-31.3
	c-0.1-1-1.7-1.1-1.9-0.1c-2.6,10.5-3.6,21.2-5.3,31.9c0.4-12.2,1.4-24.3,0.2-36.5c-0.1-0.8-1.4-1.1-1.8-0.4
	c-5.9,11.6-7.5,24.3-9.3,37c0.4-8.2,0.5-16.3-2.1-24.2c-0.2-0.7-1.4-0.7-1.7-0.1c-3.6,6-5.3,12.5-6.5,19.2
	c-0.1-3.6-0.5-7.3-1.6-10.8c-0.3-1-1.5-1.1-1.9-0.1c-2.2,4.5-3.7,9.3-4.6,14.2c-0.5-3.6-1.4-7.1-3-10.5c-0.4-0.8-1.5-0.7-1.8,0.1
	c-1.3,3-2,6.1-2.4,9.2c-0.5-3.8-1.1-7.5-2.2-11.2c-0.3-0.8-1.7-1.2-1.9-0.1c-1.3,5.6-1.6,11.4-1.5,17.1c-0.7-4-1.7-8-3.1-11.9
	c-0.3-0.9-1.6-0.6-1.8,0.1c-0.9,2.4-1.3,4.8-1.5,7.2c-0.7-2.8-1.4-5.5-2.3-8.3c-0.3-1-1.8-0.6-1.9,0.4c-0.5,6.2-0.2,12.3,0.5,18.4
	c-1.3-3.9-2.6-7.8-4.1-11.7c-0.4-1.1-2.1-0.4-1.9,0.6c1.7,8.9,3.8,17.7,5.4,26.6c-1.9-4.3-3.7-8.8-5.7-13.1
	c-2.4-5.4-5.1-11.2-9.8-15c-1-0.8-2.1,0.8-1.1,1.7c4.7,3.9,7.2,10.1,9.7,15.5c2.7,6,5,12.1,8,18c0.5,1,2,0.5,1.9-0.6
	c-0.8-6.1-2-12.1-3.3-18.2c0.9,2.6,1.7,5.1,2.7,7.7c0.4,1.1,2.1,0.4,1.9-0.6c-1.4-7.6-2.5-15.3-2.5-23c1.7,6.6,2.7,13.4,3.9,20.1
	c0.2,1.1,2,1,2-0.1c0-0.1,0-0.2,0-0.3c0,0,0,0,0,0c0,0,0,0,0,0c-0.4-7.1-2.6-14.6-1-21.7c2.7,8.8,3.1,18,4.7,27.1c0.2,1.1,2,1,2-0.1
	c-0.2-10.2-1.6-20.7-0.2-30.9c1.7,8.1,1.7,16.4,3.1,24.6c0.2,1.1,2,1,2-0.1c-0.3-8.2-1.2-16.5,1.4-24.3c2.4,6.2,2.5,13,2.5,19.8
	c-0.1,2.4,0,4.9,0.1,7.3c0.1,1.3,2,1.5,2,0.2c-0.1-2.3-0.1-4.6-0.1-6.9c0.2-8.1,1.5-16.3,4.6-23.8c1.8,8.3,0.3,16.9,0,25.3
	c-0.1,1.3,1.8,1.4,2,0.2c2.2-11.4,2.6-23.5,8-34c3.2,11.8,0.5,24.5,0.7,36.5c0,1,1.7,1.6,1.9,0.4c0-0.1,0-0.2,0.1-0.3c0,0,0,0,0,0
	c0,0,0,0,0,0c3.4-15.9,3.5-33,10.1-48.1c0.9,14.6-0.9,29.1-0.6,43.7c0,1,1.7,1.6,1.9,0.4c2.7-11.8,3.6-23.9,5.9-35.8
	c0.1,9.6-1.4,19.2-0.3,28.8c0.1,1,1.6,1,1.9,0.1c4.6-11.9,6-24.6,8.7-37c0.8,4.9,0.9,9.8,0.7,14.7c0,0,0,0,0,0
	c-1.2,6.3-1.3,12.6-1.5,18.9c-0.2,2.4-0.3,4.8-0.3,7.2c0,1.1,1.3,1.4,1.8,0.7c0,0.3,0,0.7,0,1c-0.4,0.2-0.7,0.5-0.6,1.1l0.5,2.6
	c0.2,1.1,2,1,2-0.1c0.2-10.5,1.8-21,0.1-31.4C83.6,510.5,83.3,504,81.6,497.6z"/>
<path class="st3" d="M-122.4,356.7c-0.9,0.5-1.9,1.1-2.8,1.6c-1.1-1.4-2.1-2.7-3.3-4c-0.9-1-2.4,0.3-1.5,1.3c1,1.2,2,2.4,3,3.7
	c-1.1,0.6-2.2,1.2-3.4,1.7c-1.2,0.6-0.3,2.3,0.9,1.8c1.3-0.6,2.5-1.2,3.7-1.9c0.9,1.2,1.9,2.4,2.9,3.5c0.9,1,2.4-0.3,1.5-1.3
	c-0.9-1-1.8-2.1-2.6-3.2c0.8-0.5,1.7-0.9,2.5-1.4C-120.4,357.9-121.3,356.1-122.4,356.7z"/>
<path class="st3" d="M-115,343.6c-1.2-1.1-2.2-2.5-3.1-3.9c0.1-0.1,0.2-0.1,0.3-0.2c1.1-0.6,0.2-2.4-0.9-1.8
	c-0.2,0.1-0.3,0.2-0.5,0.3c-0.7-1.2-1.4-2.6-2.5-3.5c-1-0.8-2.1,0.8-1.1,1.7c0.8,0.7,1.4,1.8,2,2.9c-0.9,0.6-1.8,1.1-2.7,1.7
	c-1.1,0.6-0.2,2.4,0.9,1.8c1-0.6,1.9-1.2,2.8-1.7c1,1.5,2,3,3.3,4.2C-115.6,345.8-114,344.5-115,343.6z"/>
<path class="st3" d="M-76.9,329c-1.1,0.4-2.1,0.8-3.2,1c-0.3-1.1-0.5-2.2-0.7-3.4c-0.2-1.3-2.2-0.9-2,0.4c0.2,1.1,0.5,2.3,0.7,3.4
	c-1.1,0.2-2.3,0.3-3.5,0.2c-1.3,0-1.4,2-0.2,2c1.4,0,2.8-0.1,4.1-0.3c0.4,1.6,0.9,3.1,1.5,4.6c0.5,1.2,2.3,0.3,1.8-0.9
	c-0.5-1.4-0.9-2.7-1.3-4.1c1.2-0.3,2.4-0.7,3.6-1.2C-74.8,330.3-75.7,328.5-76.9,329z"/>
<path class="st3" d="M162.9,390.8c-0.3,0.3-0.6,0.5-1,0.7c-0.6-1.3-1.4-2.6-2.3-3.8c-0.8-1-2.3,0.3-1.5,1.3c0.8,1.1,1.5,2.2,2,3.3
	c-1.4,0.5-2.9,0.8-4.4,1c-1.3,0.2-0.9,2.2,0.4,2c1.6-0.3,3.2-0.6,4.7-1.2c0.2,0.6,0.4,1.2,0.5,1.8c0.3,1.3,2.2,0.9,2-0.4
	c-0.2-0.8-0.4-1.5-0.6-2.3c0.5-0.3,1.1-0.7,1.5-1.1C165.2,391.5,163.9,390,162.9,390.8z"/>
<path class="st3" d="M36.8,151.4c-0.4-0.6-1.2-0.4-1.6,0.1c-1.9,2.5-2.8,5.2-3.2,8.1c-1.9-3.1-4.6-5.5-8.3-6.2
	c-0.7-0.1-1.1,0.6-1.1,1.2c0.8,6.4,6.4,9.8,11.1,13.5c1,0.8,2.1-0.9,1.1-1.7c-3.8-3-8.4-5.9-9.9-10.7c3.5,1.3,5.7,4.7,7,8.1
	c0.3,0.9,1.9,0.6,1.9-0.4c0-3.5,0.4-6.8,2.2-9.7c1.7,3.1,2.1,6.7,2,10.2c0,0.9,0,2.4-0.2,3.7c-0.5,0-0.9,0.3-0.8,0.9
	c0,0.8,0,1.7,0.8,2.1c0.4,0.2,0.9,0,1.2-0.4c1-1.6,1-4.3,1.1-6.1C40.2,159.7,39.3,155.1,36.8,151.4z"/>
<path class="st3" d="M63.6,151.8c-0.4-1.2-1.7-2-2.9-1.6c-1,0.3-1.7,1.1-2.3,2c-0.1-0.9-0.2-1.9-0.2-2.8c0.1-0.8-1-1.5-1.7-0.8
	c-3.7,3.9-3.5,8.9-1.2,13.6c0.3,0.7,1,0.6,1.5,0.3c0.2,0.5,0.7,0.9,1.3,0.5C61.7,160.7,65.2,156.4,63.6,151.8z M57.2,161.3
	C57.2,161.3,57.1,161.3,57.2,161.3C57.1,161.3,57.1,161.3,57.2,161.3c-1.5-2.9-2.1-6.2-0.8-9c0.2,1.2,0.4,2.4,0.4,3.7
	c0,1.1,1.6,1.5,1.9,0.4c0.3-0.9,2.6-6.4,3.2-3.1C62.6,156.5,59.7,159.7,57.2,161.3z"/>
<path class="st3" d="M182.3,229.5c-0.4,2.5-0.9,5-1.4,7.5c-1.3-2.5-3.2-5-5.6-6.7c-1.1-0.8-2.2,0.9-1.1,1.7c2.1,1.5,3.9,3.8,5,6.1
	c0.3,0.6,1,0.6,1.4,0.3c-0.5,2.4-0.9,4.8-1.3,7.2c-0.2,1.3,1.8,1.4,2,0.2c0.9-5.4,2.1-10.8,3-16.2
	C184.5,228.4,182.5,228.3,182.3,229.5z"/>
</svg>
