<?xml version="1.0" encoding="utf-8"?>
<!-- Generator: Adobe Illustrator 19.0.0, SVG Export Plug-In . SVG Version: 6.00 Build 0)  -->
<svg version="1.1" id="Layer_1" xmlns="http://www.w3.org/2000/svg" xmlns:xlink="http://www.w3.org/1999/xlink" x="0px" y="0px"
	 viewBox="135 -244 320 539" style="enable-background:new 135 -244 320 539;" xml:space="preserve">
<style type="text/css">
	.st0{fill:url(#SVGID_1_);}
	.st1{fill:#3F774E;}
</style>
<radialGradient id="SVGID_1_" cx="301.957" cy="-707.3806" r="281.989" gradientTransform="matrix(0.5691 0 0 0.9628 123.2349 706.2327)" gradientUnits="userSpaceOnUse">
	<stop  offset="0" style="stop-color:#0B6856"/>
	<stop  offset="1" style="stop-color:#0B6856"/>
</radialGradient>
<rect x="134.6" y="-246.3" class="st0" width="321" height="543"/>
<path class="st1" d="M158.5-129.6c-2.1,2.7-5.4,3.6-8.3,5.2c1.8-4.5,3-10,1.2-14.2c-0.9-2-4-3.5-6.1-2.5c-2.8,1.4-3.4,4.6-2.5,7.4
	c0.4,1.2,2.2,0.3,1.8-0.9c-1.4-4,4-6.5,5.4-2.2c0.5,1.7,0.3,3.7,0,5.4c-0.5,3.3-1.6,6.7-3.1,9.6c-0.5,0.9,0.7,2.2,1.5,1.3
	c3.3-3.7,8.7-4.1,11.9-8C161-129.4,159.3-130.6,158.5-129.6z"/>
<path class="st1" d="M167-149c-1.1,1.3-2.3,2.6-3.6,3.7c-0.8-1.1-1.6-2.3-2.3-3.4c-0.7-1.1-2.2,0.3-1.5,1.3c0.8,1.1,1.5,2.3,2.3,3.4
	c-1.1,0.9-2.2,1.8-3.4,2.6c-1.1,0.7,0.3,2.2,1.3,1.5c1.1-0.8,2.2-1.6,3.3-2.5c1.3,1.5,2.7,2.9,4.4,3.9c1.1,0.7,2.2-1,1.1-1.7
	c-1.6-0.9-2.9-2.2-4-3.5c1.4-1.3,2.8-2.7,4.1-4.2C169.5-148.9,167.8-150,167-149z"/>
<path class="st1" d="M190.4-152c-2.4,3.8-6.2,6-10.2,7.7c1.9-4.1,4-9.6,1-13.2c-3.4-4.1-7.6-3.8-8.6,1.7c-0.2,1.3,1.8,1.4,2,0.2
	c0.6-3.3,2.3-3.1,4.5-1.1c1.5,1.4,1.5,3.6,1.3,5.5c-0.4,3-1.9,5.9-3.1,8.6c-0.4,0.9,0.7,1.5,1.4,1.2c5.1-2.1,10.3-4.6,13.4-9.5
	C192.7-151.9,191.1-153.1,190.4-152z"/>
<path class="st1" d="M192.1-166.3c-2,1-3.9,2.4-4.8,4.5c-0.5,1.2,1.4,1.8,1.9,0.7c0.7-1.6,2.3-2.6,3.8-3.3
	C194.2-165.1,193.3-166.9,192.1-166.3z"/>
<path class="st1" d="M195.2-163.9c-2,1-3.5,2.4-4.7,4.2c-0.7,1.1,0.9,2.2,1.7,1.1c1.1-1.5,2.3-2.7,4-3.6
	C197.2-162.6,196.3-164.4,195.2-163.9z"/>
<path class="st1" d="M214.4-166.8c-1.8-1.3-3.2-3.4-4.4-5.6c0.1-0.6,0.2-1.2,0.2-1.8c0-0.9-1-1.3-1.6-0.9c-0.7-1.4-1.3-2.8-1.9-4.1
	c-0.5-1.2-2.3-0.3-1.8,0.9c0.9,1.9,1.9,4.1,3,6.1c-0.4,1.5-1.4,2.6-3.3,1.8c-2.3-0.9-4-3.3-4.8-5.4c-0.5-1.2-2.3-0.3-1.8,0.9
	c1.2,3,3.7,6,6.9,6.7c2.1,0.5,3.4-0.4,4.3-1.9c1.2,1.9,2.6,3.6,4.2,4.8C214.3-164.4,215.4-166,214.4-166.8z"/>
<path class="st1" d="M393.1,73.3c-0.1,0-0.2,0-0.3,0c0.2-2.5,0.1-5-0.5-7.4c-1.2-4.8-6-5.9-10.4-5.7c-1.3,0.1-1.4,2.1-0.2,2
	c5.9-0.3,9,2.1,9.1,8.1c0,0.9,0,1.9-0.1,2.8c-1.1-0.1-2.2-0.2-3.3-0.3c-1.3-0.1-1.4,1.9-0.2,2c1.1,0.1,2.2,0.2,3.3,0.3
	c-0.2,1.7-0.5,3.4-0.8,5.1c-0.3,0.2-0.5,0.5-0.5,1s0,1,0.1,1.6c0.1,1.2,1.8,0.9,2-0.1c0.4-2.3,0.9-4.8,1.2-7.3c0.1,0,0.3,0,0.4,0
	C394.2,75.4,394.3,73.4,393.1,73.3z"/>
<path class="st1" d="M406.4,72.4c-2-0.5-4-0.9-6-1c-1.3-0.1-1.4,1.9-0.2,2c1.9,0.1,3.7,0.4,5.5,0.9
	C406.9,74.6,407.6,72.7,406.4,72.4z"/>
<path class="st1" d="M418.4,62.3c-1.2,0.6-2.5,1-3.7,1.7c-0.5,0.3-0.6,0.8-0.4,1.2c-1.4,1.2-2.5,2.7-3.1,4.6
	c-0.2,0.6,0.2,1.3,0.9,1.3c3.7,0.1,9,1.4,6.6,6.1c-0.7,1.3-4.4,5.6-5.2,2.3c-0.3-1.3-2.3-0.9-2,0.4c1.3,5.4,6.8,1.7,8.6-1.2
	c1.2-1.9,1.6-4.2,0.6-6.2c-1.3-2.4-4.4-3.1-7-3.3c1.3-2.3,3.5-3.8,5.7-5.1C420.4,63.4,419.6,61.7,418.4,62.3z"/>
<path class="st1" d="M434.1,73.6c-1.5-0.7-3-1.5-4.5-2.2c-1.2-0.5-1.8,1.4-0.7,1.9c1.5,0.7,3,1.5,4.5,2.2
	C434.6,76,435.3,74.1,434.1,73.6z"/>
<path class="st1" d="M434.2,78.1c-2.7-0.1-5.2-0.5-7.8-1c-1.3-0.2-1.4,1.8-0.2,2c2.6,0.5,5.2,1,7.8,1
	C435.3,80.1,435.5,78.1,434.2,78.1z"/>
<path class="st1" d="M454.1,85.9c-3.5-3.2-7.2-1.6-11.3-1.2c1.6-5.3,7.7-19.2-2.6-14.9c-1.2,0.5-0.3,2.3,0.9,1.8
	c1.7-0.7,3.3-1.1,3.3,1.2c0,1.7-0.7,3.5-1.2,5.1c-0.8,2.6-2.2,5.1-2.6,7.8c-0.1,0.5,0.4,1.1,0.9,1.1c3.6-0.1,8.2-2.3,11.2,0.4
	C453.6,88.1,455.1,86.8,454.1,85.9z"/>
<path class="st1" d="M447.9,98.2c-10.5,2-21,3.6-31.4,6.1c-0.6,0.1-0.8,0.6-0.8,1.2c0.4,4.6,1.2,9.7-0.7,14.1
	c-2.9-3.6-4.1-8.3-7.6-11.5c-0.9-0.9-2.4,0.4-1.5,1.3c3.8,3.5,4.9,8.9,8.5,12.6c0.4,0.4,1.2,0.5,1.6-0.1c2.8-4.8,2.2-10.5,1.7-15.8
	c10.1-2.3,20.4-3.9,30.5-5.9C449.5,99.9,449.1,98,447.9,98.2z"/>
<path class="st1" d="M439.8,122.3c-3.8-1-7.3,0.7-11,1.5c1.5-3.8,2-8.3,1.7-12.2c-0.1-1.5-0.5-3.2-2-3.8c-1.9-0.8-3.9,1.8-4.9,3
	c-0.8,1,0.8,2.1,1.7,1.1c0.5-0.5,2.3-3.1,2.9-1.7c0.6,1.4,0.4,3.3,0.3,4.8c-0.2,3.1-0.7,6.8-2.2,9.6c-0.4,0.8,0.1,1.7,1,1.5
	c3.9-0.5,7.9-2.9,11.8-1.9C440.3,124.5,441,122.6,439.8,122.3z"/>
<path class="st1" d="M450.3,115.5c-1.7-2.3-5.4-3.3-8.1-2.7c-1.1,0.3-3.2,1.3-3.6-0.4c-0.4-2.1,1.5-3.3,3.5-3.7
	c0.7-0.1,1.4-0.1,2.1-0.2c1.1-0.2,1-2-0.1-2c-0.7,0-1.5,0.1-2.3,0.2c-1.2,0.1-2.3,0.2-3.5,0.3c-0.9,0.1-1,1.1-0.5,1.7
	c-0.3,0.3-0.6,0.6-0.8,1c-1.1,1.8-0.5,4.9,1.6,5.5c1,0.3,2.1,0,3-0.3c1.8-0.5,2.7-0.6,4.6,0.1c2,0.8,3.8,2.3,2,4.2
	c-0.6,0.6-2.3,1.8-3.2,1.4c-1.2-0.6-1.8,1.3-0.7,1.9c1.7,0.8,4-0.7,5.2-1.7C451.3,119.4,451.6,117.3,450.3,115.5z"/>
<path class="st1" d="M206.5-71.4c-2.7-4-4.6-8.5-6.9-12.7c-0.6-1.1-2.4-0.2-1.8,0.9c2.4,4.4,4.4,9,7.2,13.1
	C205.7-69,207.2-70.3,206.5-71.4z"/>
<path class="st1" d="M218.1-77.4c-2.5-4.3-5.9-7.9-8.4-12.1c-0.6-1.1-2.4-0.2-1.8,0.9c2.5,4.3,5.9,7.9,8.4,12.1
	C217-75.5,218.8-76.3,218.1-77.4z"/>
<path class="st1" d="M234.9-85.8c-2.8-4.2-6.9-7.8-8.1-12.9c-0.3-1.2-2.3-0.9-2,0.4c0,0.2,0.1,0.4,0.2,0.6c0.5,2,1,5-1,6.2
	c-2.3,1.3-4.2-3-4.8-4.4c-0.5-1.2-2.3-0.3-1.8,0.9c1,2.6,3.7,6.9,7.1,5.5c1.5-0.6,2.3-1.9,2.7-3.3c1.7,2.8,4,5.2,5.9,8
	C233.8-83.8,235.6-84.7,234.9-85.8z"/>
<path class="st1" d="M269.8-105.3c-6.1-2-13.5,6.1-17.7,9.3c-3.5,2.6-10.3,8.1-12.4,1.2c-1.3-4.2-0.5-9.2-3-12.9
	c-0.7-1.1-2.2,0.3-1.5,1.3c3.4,5,0.2,20.1,10.6,16.6c3.8-1.3,7.1-4.2,10.3-6.6c3.1-2.4,8.8-8.4,13.2-7
	C270.4-103,271.1-104.9,269.8-105.3z"/>
<path class="st1" d="M257.9-109.1c-1-1-2.2-1.7-3.5-2.2c0.2-0.9,0.5-1.8,0.9-2.6c0.6-1.2-1.3-1.8-1.9-0.7c-0.5,0.9-0.8,1.9-1,2.9
	c-1.3-0.2-2.6-0.2-3.8,0c0.9-1,2.1-1.6,3.5-2.2c1.2-0.5,0.3-2.3-0.9-1.8c-2.7,1.1-4.6,2.4-5.7,5.1c-0.4,0.9,0.6,1.5,1.4,1.2
	c1.7-0.6,3.5-0.7,5.2-0.4c-0.1,1.9,0.3,3.8,1.1,5.6c0.2,0.4,0.6,0.6,1.1,0.5c1.6-0.2,3.7-0.5,4.4-2.1
	C259.4-106.9,258.8-108.1,257.9-109.1z M254.9-105.6c-0.5-1.2-0.7-2.3-0.7-3.5c0.5,0.2,0.9,0.4,1.3,0.6c0.6,0.3,1.5,1,1.6,1.8
	C257.1-105.9,255.8-105.7,254.9-105.6z"/>
<path class="st1" d="M260-76.8c-1.7-3.4-3.3-6.8-5-10.2c-0.6-1.2-2.4-0.3-1.8,0.9c1.7,3.4,3.3,6.8,5,10.2
	C258.8-74.8,260.6-75.7,260-76.8z"/>
<path class="st1" d="M229.1-58.6c0.3-1.7-0.1-3.3-1.9-4.4c-2.9-1.8-6,0.8-7.5,3.2c-0.7,1.1,1,2.2,1.7,1.1c1-1.6,2.4-3.2,4.5-2.7
	c2.4,0.7,0.9,3.7,0.1,4.9c-0.7,1.1,0.9,2.2,1.7,1.1c1.9-2.6,4.1-1,4.7,1.6c1,4.4-3.5,5.5-6.9,5.2c-1.3-0.1-1.4,1.9-0.2,2
	c5,0.4,10.3-2.1,8.9-7.9C233.6-57.3,231.4-59,229.1-58.6z"/>
<path class="st1" d="M247.8-58.2c-2.4-4.1-5.5-7.6-7.9-11.7c-0.6-1.1-2.4-0.2-1.8,0.9c1.2,2,2.6,3.9,3.9,5.9
	c-3.2,3.2-6.2-1.1-7.3-4.2c-0.4-1.2-2.2-0.3-1.8,0.9c1.5,4.3,6.1,9,10.2,5c1,1.4,1.9,2.8,2.8,4.2C246.7-56.2,248.5-57.1,247.8-58.2z
	"/>
<path class="st1" d="M273.6-83c-0.9-2-2.1-3.8-3.2-5.7c0.3-0.6-0.1-1.1-0.7-1.3c-0.8-1.4-1.4-2.8-1.8-4.4c-0.3-1.3-2.3-0.9-2,0.4
	c0.4,1.8,1.2,3.5,2.1,5.1c-1.1,1.2-2.6,2.3-4.2,1.8c-1.8-0.6-2.6-3.2-3.1-4.8c-0.4-1.2-2.3-0.9-2,0.4c0.7,2.5,1.8,5.2,4.4,6.3
	c2.1,0.9,4.2-0.4,5.8-1.9c1,1.6,2,3.3,2.8,5C272.3-81,274.1-81.9,273.6-83z"/>
<path class="st1" d="M261.5-38.2c-0.8,2.7-3.6,3.9-6.1,5.1c0.8-4.5,0.8-9.1-1.8-13.1c-0.4-0.6-1-0.7-1.6-0.3
	c-1.3,0.9-2.2,1.9-2.8,3.4c-0.4,1.2,1.4,1.9,1.9,0.7c0.3-0.8,0.7-1.3,1.2-1.8c2,3.9,1.6,8.4,0.6,12.7c-0.2,0.7,0.5,1.8,1.4,1.2
	c3.3-2.1,7.7-3.1,8.9-7.3C263.8-38.7,261.9-39.4,261.5-38.2z"/>
<path class="st1" d="M277.9-90.1c-0.9,0.8,0.2,2.1,1.1,1.6c0,0.7-0.1,1.4-0.1,2c-0.1,1.3-0.4,2.6-0.5,4c-0.1,1.3,1.9,1.4,2,0.2
	c0.1-2.1,0.7-4.2,0.6-6.3C280.9-90.5,279.4-91.5,277.9-90.1z"/>
<path class="st1" d="M268-52.4c-0.4-0.2-0.8-0.1-1.1,0.1c-1.3-1-2.9-1.8-4.5-0.9c-1.4,0.8-1.8,2.6-1.9,4.1c0,3.4,2.4,7.2,5.8,7.9
	c2.5,0.5,4.7-1.6,5.3-3.9C272.5-48.2,270.7-50.9,268-52.4z M269.9-46.3c-0.1,1.4-1.1,2.8-2.5,3.1c-2.2,0.4-4-2.4-4.5-4.1
	c-0.4-1.1-0.5-2.5,0.1-3.6c0.7-1.4,2.2-0.3,3,0.4c0.4,0.4,0.9,0.2,1.2-0.1C268.7-49.7,270-48.3,269.9-46.3z"/>
<path class="st1" d="M290.7-97.6c-1.4,1-2.9,1.7-4.5,2.2c-0.1-2.7-0.9-5.6-2.2-7.8c-0.5-0.8-1.4-1.7-2.5-1.3
	c-1.2,0.5-1.4,2.3-1.6,3.4c-0.2,1.3,1.8,1.4,2,0.2c0.1-0.5,0.2-0.9,0.3-1.4l0,0c0.4,0.6,0.7,1.3,0.9,2c0.7,1.9,1.2,4,1.1,6
	c0,0.6,0.5,1.2,1.2,1.1c2.4-0.5,4.6-1.5,6.6-2.9C293-96.9,291.7-98.4,290.7-97.6z"/>
<path class="st1" d="M286.4-26.9c-2.2-3.6-4-7.4-6.2-11c-0.7-1.1-2.5-0.2-1.8,0.9c0.4,0.6,0.7,1.3,1.1,1.9c-0.1,0.1-0.1,0.3-0.1,0.4
	c-0.1,1.2-0.1,3.2-1.1,4.1c-0.5,0.5-1.5-0.7-1.8-1c-1.5-1.6-2.6-3.6-3.8-5.4c-0.7-1.1-2.5-0.2-1.8,0.9c1.5,2.5,3.1,5.7,5.7,7.2
	c2.7,1.6,3.9-1.1,4.4-3.5c1.2,2.1,2.3,4.3,3.6,6.4C285.3-25,287.1-25.8,286.4-26.9z"/>
<path class="st1" d="M293.4-45.8c-0.4-0.4-1-0.5-1.4-0.1c-0.2,0.2-0.3,0.4-0.5,0.6c0-0.5-0.4-1.1-1.1-0.9c-3.3,0.8-5.7,3.3-5.7,6.8
	c0,3.3,2.8,6.1,5.9,6.6c2.7,0.4,4.5-2.2,5-4.5C296.2-40.3,295.6-43.8,293.4-45.8z M291.7-35c-2.1,1-4.5-2-4.9-3.7
	c-0.6-2.7,1.6-5,4-5.5c0.1,0,0.2-0.1,0.3-0.1c-0.1,0.4-0.3,0.8-0.5,1.2c-0.6,1.2,1.3,1.8,1.9,0.7c0.1-0.2,0.2-0.5,0.3-0.8
	C294.2-40.8,294.5-36.4,291.7-35z"/>
<path class="st1" d="M301.5-107c-2.1-2.9-6.5-1.3-9.6,0c0.3-1.5,0.8-3,1.3-4.4c0.7-0.8,1.1-1.7,0.9-2.8c-0.2-1-1.6-1.1-1.9-0.1
	c-0.2,0.7-0.5,1.3-0.8,1.9c-0.9,1-2.3,2-2.8,2.6c-0.8,1,0.7,2,1.5,1.2c-0.2,1-0.4,2-0.5,3.1c0,0.8,0.7,1.3,1.4,1
	c2.3-0.9,4.6-2,7.2-2c4.4,0-0.7,6.3-2.1,7.2c-1.1,0.7-0.2,2.5,0.9,1.8C299.5-99.1,303.8-103.8,301.5-107z"/>
<path class="st1" d="M308-28.3c-0.8-1-2.3,0.3-1.5,1.3c1.5,1.8,4.1,8.7,0.6,9.6c-3.2,0.8-3.5-7.8-1.4-9c1.1-0.6,0.3-2.4-0.9-1.8
	c-3.7,1.9-3.5,12.2,1.3,12.8C313.1-14.6,310.5-25.2,308-28.3z"/>
<path class="st1" d="M318.6-21.4c-1,8.9-3.1,17.6-3,26.6c0,1.3,2,1.4,2,0.2c-0.1-9,2.1-17.7,3-26.6
	C320.7-22.6,318.7-22.7,318.6-21.4z"/>
<path class="st1" d="M215.9-18.5c0.3-0.3,0.3-0.8,0-1.2c-1-1.2-2.3-1.9-3.7-2.5c-0.6-0.4-1.1-0.9-1.7-1.3c-0.3-0.2-0.6-0.2-0.9-0.1
	c-1-0.3-1.9-0.6-2.8-1c0.2-0.5,0.1-1.1-0.6-1.3c-12.4-3.9-24.7,2.8-30.1,14.2c-5.7,12,1.6,24.7,13.6,28.8c4.2,1.4,8.6,1.4,12.7,0.2
	c0.4,0.6,1.4,0.7,1.8-0.2c0.1-0.2,0.2-0.3,0.2-0.5c5.6-2.1,10.5-6.2,13.7-11.3C223.3-2.9,221.6-11.8,215.9-18.5z M189.4-22.7
	c-0.3,0.7-0.7,1.5-1.2,2.2c-0.4-0.4-1.1-0.4-1.5,0.1c-0.6,0.7-1.3,1.3-2.1,1.9c-0.2-0.3-0.4-0.5-0.7-0.5
	C185.5-20.5,187.4-21.7,189.4-22.7z M182.7-17.9c-0.3,0.8-0.4,1.5,0.3,1.9c-0.7,0.1-1.4,0.1-2.2,0.2C181.4-16.5,182-17.2,182.7-17.9
	z M177.6-10c0.5-1.3,1.1-2.6,1.8-3.8c2.4-0.1,4.7-0.5,7.1-0.7c0.1,0.2,0.2,0.4,0.4,0.5l4.5,3.1c-0.3,0.2-0.6,0.6-0.5,1
	c0.6,3,1.4,5.9,1.6,9c-0.4-0.1-0.8,0-1.1,0.4c-1.2,1.7-3,3-4.6,4.3l-0.1,0.1c-2.5-1.5-4.7-3.2-5.2-6.4c-0.1-0.5-0.7-1-1.2-0.8
	c-1.4,0.5-2.7,0-4.1,0.3C176.4-5.3,176.8-7.6,177.6-10z M178.3,0.3c-0.3,0.2-0.6,0.5-0.5,1c0.1,0.4,0.2,0.9,0.3,1.3l0.7,3.5
	c-1.2-2.2-2-4.6-2.3-7.1c1.2-0.3,2.3-0.1,3.4-0.1c0,0.1,0,0.1,0,0.1c-0.4-0.1-0.9,0-1.2,0.4C178.6-0.3,178.4,0,178.3,0.3z
	 M181.4,9.8c0-0.1,0.1-0.3,0-0.5c-0.1-0.6-0.2-1.2-0.2-1.7c0.9,1.5,1.8,2.9,2.6,4.4C182.9,11.3,182.1,10.6,181.4,9.8z M182.8,6.4
	c0.3-0.2,0.5-0.5,0.4-1c-0.2-0.7-0.3-1.4-0.6-2.1c0.9,0.8,1.9,1.5,3,2.2c-0.9,0.7-1.3,1.9-1.5,3.2C183.7,8,183.2,7.2,182.8,6.4z
	 M202.6,15.2c-1.1,0.3-2.2,0.6-3.3,0.7c0.5-0.4,1.1-0.9,1.6-1.4c0.6-0.2,1.2-0.3,1.8-0.4C202.6,14.5,202.6,14.8,202.6,15.2z
	 M202.1,2.9L202.1,2.9c-0.6,0.6-0.3,1.4,0.3,1.7l0.6,3.1c-0.1,0-0.2,0-0.3,0.1c-2.9,1.7-6,2.6-8.1,5.4c-0.7,1,0.6,1.9,1.5,1.3
	c1.2-0.8,2.6-1.5,3.9-2c-0.1,0.1-0.2,0.2-0.3,0.3c-1.8,0.6-3.4,1.6-4.5,3.3c-1.3-0.1-2.6-0.2-3.9-0.5c-2.2-0.5-4.2-1.4-6-2.4
	c0.4-0.1,0.6-0.4,0.6-0.8c-0.1-1.6-0.6-5.9,2.3-5.3c1,0.2,1.5-1.4,0.6-1.8c-0.1,0-0.2-0.1-0.3-0.1c1.4-1.1,2.8-2.3,3.9-3.7
	c0,0.7,0.8,1.3,1.4,0.9c2.4-1.3,4.7-1.3,7.3-0.5c1.2,0.4,1.9-1.5,0.7-1.9c-2.5-0.8-5-0.9-7.4-0.1c-0.1-3.1-0.9-6.1-1.5-9.1
	c2.1-0.6,4.1-1.6,6.2-2.1c1.2-0.3,0.9-2.3-0.4-2c-1.8,0.4-3.5,1.2-5.3,1.8c-0.1-0.2-0.2-0.3-0.4-0.5l-3.9-2.6
	c0.5-0.1,0.9-0.4,0.9-0.9c0.1-2.7,0.6-5.2,1.5-7.7c0.1-0.2,0.1-0.3,0-0.5c3.4-1.2,7.1-1.5,10.7-1c0.5,0.6,1.1,1.1,1.8,1.4
	c-0.2,0.5,0.2,1.3,0.8,1.4c2.5,0.5,4.8,1,6.8,2.3c-3.9,0.4-7.1-0.7-10-4.2c-0.6-0.7-2-0.1-1.7,0.8c0.4,1.7,1.9,4.2,3.7,5.3
	c-0.6,0.6-1.3,1-2.1,1.5c-0.6,0.4-0.6,1.1-0.3,1.5c-0.1,0.2-0.1,0.5,0,0.8c0.3,0.6,0.6,1.1,1,1.6c-0.3,0-0.6,0.1-0.8,0.4
	c-1.5,1.8-2.8,3.8-4.1,5.7c0.2-0.9,0.4-1.9,0.7-2.8c0.3-1.2-1.5-1.9-1.9-0.7c-0.6,2.3-1.2,4.4-0.9,6.8c0.1,0.9,1.3,1,1.8,0.4
	c1.3-1.6,2.5-3.3,3.6-5c-0.4,1.7-1.1,3.3-1.7,4.9c-0.5,1.2,1.3,1.8,1.9,0.7c0.6-1.1,1.4-2.1,2.3-3c0.3,1.7,0.1,3.4-0.5,5.2
	c-0.1,0.4,0,0.8,0.3,1c-0.6,0-1.2,0.4-1,1.1L202.1,2.9z M204.7-7.1c-0.3-0.8-1.3-0.7-1.7-0.1l0,0c0.3-1,0.4-2.1,0.5-3.2
	c0.8,1.3,1.6,2.7,2.3,4.1c0.4,0.9,0.6,1.7,0.5,2.6c-0.2-0.2-0.5-0.2-0.8-0.2C205.3-4.9,205.1-6,204.7-7.1z M209.4-2.7
	c2,0.4,4.1,0.7,6.1,1.3c-0.1,1.3-0.2,2.6-0.2,3.9c0,1,1,1.3,1.6,0.8c-0.2,0.3-0.3,0.6-0.5,0.9c-1.8,3.1-4.3,5.7-7.2,7.7l-0.1-0.1
	c-1.5-1.3-3.2-1.9-4.9-2c-0.2-0.2-0.5-0.3-0.7-0.3l0.1-0.1c0.1,0,0.1-0.1,0.2-0.2c0.6,0.2,1.5-0.2,1.3-1.1l-0.9-4.7
	c2.2-2.2,4.5-5,4-8.2c-0.5-3.7-3.2-6.7-5-9.9l0,0c1.1-0.7,2-1.4,2.7-2.3c0.1,0,0.3,0,0.4,0c0.4-0.1,0.8-0.5,0.8-0.9
	c2,0.5,4.2,0.5,6.6,0c0.1,0.1,0.2,0.3,0.3,0.4c0.1,0.2,0.3,0.3,0.5,0.4c1.9,2.3,3.2,4.8,3.9,7.5c-0.5,0.7-0.9,1.5-1.3,2.3
	c-0.5,0-1,0.3-1.1,0.9c-0.2,1-0.3,1.9-0.4,2.9c-2-0.6-4.1-0.9-6.1-1.3C208.3-4.9,208.1-2.9,209.4-2.7z M217.3,2.6
	c0.2-1.1,0.3-2.2,0.5-3.3c0.2,0,0.4-0.2,0.5-0.3c0.1,0,0.3,0,0.4-0.1C218.3,0.1,217.9,1.4,217.3,2.6z"/>
<path class="st1" d="M192,101.1c-0.3-0.2-0.7-0.1-1,0c-0.2-6.4-1.3-12.8-2.6-17.9c-0.2-0.7-1.1-1.2-1.6-0.6
	c-2.5,2.7-4.4,5.7-6.7,8.6c-0.1,0.2-0.2,0.3-0.2,0.5c-0.1-0.1-0.2-0.3-0.4-0.4c-5.8-3.1-13.2-4.8-19.8-4l-1.8-9.4
	c-0.2-1-1.5-1-1.9-0.1c-7.5,17.2-9.7,45.1,9.8,55.4c1.1,0.6,2.3-1.1,1.1-1.7c-2.9-1.5-5.2-3.4-7.2-5.6c1-0.4,1.8-0.7,2.5-1.1
	c0.2,1.4,1,2.6,2.7,3.1c2.1,0.6,3.6-0.9,4.7-2.7c0,0.2,0.1,0.3,0.1,0.5c0.2,0.6,0.8,1.1,1.4,0.7c1.3-0.8,2.4-1.7,3.3-2.7
	c1.3,3.6,6.8,3.1,6.6-2.5l0,0c0.8-0.4,1.6-1.2,2.3-2.5c0.6-1.1-1.1-2.3-1.7-1.1c-1.4-0.3-2.7-0.7-4.1-1c-0.2-0.7-1-1.1-1.6-0.6
	c-2.2,2.1-6.8,6.6-7.1,0.5c0-0.9-1.2-1.6-1.8-0.6c-0.3,0.4-0.5,0.9-0.8,1.3c-3.7,1.3-5.2,0.4-4.5-2.6l0,0l0,0c0-0.1,0-0.2,0.1-0.3
	c0.1-1.2-1.5-1.4-1.9-0.4c-2.8,6.3-5.5-4.4-6.1-7c-0.1-0.6-0.7-0.9-1.2-0.8c-0.4-8.3,1.3-17,4-24.3l1.3,7c0.1,0.6,0.6,0.9,1.2,0.8
	c6.3-0.9,13.7,0.7,19.3,3.6c0.8,0.4,1.5-0.2,1.6-0.8c0.3,0.6,1.2,0.9,1.8,0.2c1.8-2.2,3.4-4.6,5.2-6.9c4.1,16.8,5.1,46.9-19.6,43
	c-1.3-0.2-1.4,1.8-0.2,2c18,2.8,23.5-11.1,23.9-25.9c1,3.2,3.2,6.4,7,5.6c1.7-0.4,2.5-1.4,2.7-2.6c2.6,1,5.9,1.2,8.2,1.7
	c0.5,0.1,1.1-0.4,1.1-0.9C209.7,100.4,196.5,92.8,192,101.1z M176,118.2c0.7,1.4,1.7,2.5,2.8,2.9c0.1,1-0.1,1.9-0.7,2.7
	c-2.2-0.1-2.9-1.2-2.1-3.1c0.3-1.2-1.4-1.9-1.9-0.7c-0.8,1.8-1.7,2.7-3.1,3.7c-0.2-0.7-0.4-1.5-0.3-2.3l0,0
	C172.3,121.1,174.3,119.8,176,118.2z M167.1,118.7c0.4,1.3,0.9,2.1,1.7,2.5c-0.4,1.5-0.8,2.8-2,4c-0.9-0.2-1.9-0.5-2.8-0.7
	c-0.1-0.9-0.1-1.7,0.1-2.6c0.1-0.3,0.2-0.6,0.3-1c0-0.2,0-0.4,0-0.5C165.3,120.1,166.2,119.6,167.1,118.7z M160,117
	c0.5,1.7,1.4,2.8,2.5,3.3c-0.6,2.1-1.5,2.8-3,3.4c-0.3-1.8-0.6-3.7-0.6-5.5c0-0.1,0-0.2-0.1-0.3C159.2,117.7,159.6,117.4,160,117z
	 M157,117.7c0,0.1-0.1,0.2-0.1,0.3c0,1.6,0.2,3.1,0.4,4.7c-2-3.1-3.3-6.7-4.1-10.5C154.2,114.6,155.5,116.9,157,117.7z M200.4,105.4
	c-0.4-1.2-1.1-2.4-2-3.3c-0.5-0.5-1.8-0.4-1.7,0.6c0.1,1.8,0.9,3,2,3.9c0.1,0.8-0.3,1.4-1.5,1.7c-2.7,0.6-4-2.7-4.6-5.1
	c0.3,0,0.6-0.2,0.8-0.6c2.9-6.8,12.9-1.1,14.3,4.5C205.6,106.8,202.4,106.5,200.4,105.4z"/>
<path class="st1" d="M170.9-229.1c3.7,0.4,7.6,1.8,10.4,4.2c1,0.8,2.1-0.8,1.1-1.7c-3.8-3.2-9.2-4.7-14-4.8c-2.6,0-8.6,1.4-8.9,4.8
	c-0.4,4.5,8.4,4.4,13.5,3.6c-1.3,1.7-2.5,3.6-3.5,5.5c-0.3,0.5-0.2,1.1,0.3,1.4c2.2,1.3,4.8,2.2,7,0.4c2.2-1.7,3.1-5.5,5.5-6.7
	c1.2-0.6,0.3-2.4-0.9-1.8c-4,2-4.3,9.4-9.7,6.8c1.3-2.4,2.9-4.6,4.6-6.7c0.7-0.9-0.4-1.8-1.3-1.5c-2.2,0.8-4.7,0.8-7,0.7
	c-0.7,0-7.2-0.5-6.5-1.9C163.4-229.4,168.1-229.4,170.9-229.1z"/>
<path class="st1" d="M200.1-224c-2.5,2.5-5.3,1.4-6.5-1.7c-0.4-1.2-2.2-0.3-1.8,0.9c1.6,4.4,6.2,5.6,9.6,2.3
	C202.3-223.4,201-224.9,200.1-224z"/>
<path class="st1" d="M182.4,102.8c-1.3,1-2.9,1.8-4.5,0.9c-1.4-0.7-2.2-2.3-2.7-3.8c-0.4-1.2-2.4-0.8-2,0.4c0.7,2.1,1.9,4.4,4.1,5.3
	c2.3,1,4.5,0.1,6.4-1.4C184.8,103.5,183.5,102,182.4,102.8z"/>
<path class="st1" d="M204-216.5c0-0.6-0.4-1.2-1.1-1c-2.5,0.5-5,1.5-7.1,3c-0.8,0.6-0.2,1.6,0.6,1.7c2.7,0.5,5.4,1.3,7.9,2.5
	c0.7,0.3,1.4-0.5,1.3-1.1c-0.2-1.4,0-2.9,0.1-4.3C205.8-216.8,204.6-217.1,204-216.5z M203.7-215.8c-0.1,1-0.2,2-0.2,3
	c-1.4-0.6-2.9-1-4.4-1.4c1.3-0.6,2.7-1.1,4.1-1.4C203.4-215.6,203.6-215.7,203.7-215.8z"/>
<path class="st1" d="M453.8-89.4c-2.1-5.6-6.2-9.7-9.8-14.4c-3.7-4.9-9.6-14.2-16.4-9.8c-1.2-1.7-2.2-3.5-2.9-5.3
	c-0.3-0.7-1.4-0.7-1.7-0.1c-0.2,0.3-0.4,0.6-0.7,0.9c-7.9,1.9-19.3,10.6-16.6,19.5c0.2,0.5,0.6,0.9,1.2,0.8c1.8-0.3,4.9,8.3,5.4,9.8
	c1,3,1.6,6.1,2.2,9.1c-0.1,0-0.1,0-0.2,0.1c-0.9,0.4-0.6,1.4,0,1.8c-4.3,0.4-8.4,2.6-12,4.6c-5,2.7-9.7,6.1-14.2,9.5
	c-5.1-6.8-7.1-15.4-10.8-23c0.1-0.1,0.3-0.3,0.4-0.5c0.7-0.9-0.5-1.9-1.4-1.4c-0.6-1-1.1-2-1.8-3c-2.1-3.2,12.7-7.7,14.1-8
	c5-1.1,10.2-1,15.2,0c1.3,0.3,1.4-1.7,0.2-2c-10.7-2.2-24.7-0.1-31.9,8.9c-0.3,0.4-0.2,0.9,0.1,1.2c0.9,1.3,1.7,2.7,2.4,4.1
	c-2.1,0.8-5.1,0.2-6.6,2.1c-1.2,1.5-0.7,2.9-0.1,4.6c2.3,6.4,7.7,11.4,11.1,17.2c2.8,4.7,5,11.5,11.7,10.1c6.9-1.4,13.9-7.8,18.7-13
	c1.7,2.5,4.9,2.5,7.8,1.6c3.9-1.1,4.8-4.4,5.7-7.8c1.4-5,15.9-4.9,19.9-5.6c2.7-0.5,5.2-1.5,7.8-2.3c1.1-0.3,2.1-0.5,2.9-1.3
	C455.4-82.9,454.5-87.5,453.8-89.4z M407.5-99.9c-1.5-7.1,7.4-13.9,14-16.1c0.3,0.3,0.8,0.4,1.3,0c0.2-0.2,0.4-0.3,0.5-0.5
	c0.1,0,0.2,0,0.3-0.1c0.7,1.4,1.6,2.7,2.5,4c-0.3,0.7,0.4,1.4,1.1,1.4c1.3,1.7,2.7,3.3,4,4.8c4.1,5,8.7,10.1,11.3,16.1
	c3,6.9-7.3,7.6-11.9,8.3c-4.6,0.7-9.8,0.7-14.3,2.1c-1-4.5-2-9.1-3.9-13.4C411.8-95,409.8-99.3,407.5-99.9z M452.5-84.3
	c0,2.2-1.2,2.3-2.9,2.8c-3.3,0.9-6.3,2-9.7,2.5c-4.3,0.6-8.6,1-12.8,2.3c-1.8,0.5-4.8,1.6-5.6,3.5c-0.4,1-0.7,2.1-0.9,3.2
	c-0.9,3.5-8,7.4-9.9,2.1c-0.2-0.6-1.2-0.8-1.6-0.3c-4.4,4.9-9.7,9.4-15.6,12.3c-8.2,4.1-10-4.2-13.7-9.7c-2.9-4.3-6.1-8.4-8.7-12.9
	c-1.8-3.1-2.3-5.1,1.8-5.9c0.9-0.2,1.8-0.4,2.7-0.7c3.8,8,6.1,16.9,11.6,23.9c0.4,0.4,1,0.4,1.4,0.1c4-3,8.1-5.9,12.4-8.5
	c4.4-2.7,9.8-6,15.1-5.9c0.6,0,1.2-0.5,1.1-1.2c-0.1-0.4-0.2-0.9-0.3-1.3c5.8-2,12.8-1.7,18.7-2.8c3.9-0.8,9.9-2.2,9.7-7.2
	c-0.2-5.2-5.1-10.5-8.1-14.3c-2.5-3.2-5.7-6.4-8.3-9.8c6.1-3.6,11.6,7.1,14.9,11.1c2.7,3.2,5.2,6.3,7.2,10
	C452.1-88.9,452.4-86.7,452.5-84.3z"/>
<path class="st1" d="M315.2,50.9c-3.2-1.3-7.5-0.1-10.7,0.5c-0.1,0-0.2,0-0.3,0.1c-0.2-0.5-0.3-0.9-0.4-1.1c-0.6-2.2-1.3-4.5-2-6.7
	c-2.2-7.3-4.1-14.6-6.5-21.9c-0.4-1.2-2.2-0.3-1.8,0.9c2.7,7.9,4.8,16,7.2,24c0.3,1,0.6,3.2,1.1,5.3c-5.3,1.1-10.6,2.6-15.9,4.1
	c-2.8-3.4-2.7-9.1-3.3-13.2c-0.6-3.9-1.5-8-4.4-10.9c-0.9-0.9-2.4,0.4-1.5,1.3c6,6.1,2.2,16.9,7,23.4c-5,1.3-10.1,2.3-15.3,3.2
	c-1.1-6.2-2-12.4-4.1-18.3c0-0.1-0.1-0.2-0.1-0.2c0.2,0,0.4-0.1,0.6-0.2c9.1-9.1,18.8-17.7,28.4-26.4c0.1,0.1,0.3,0.1,0.4,0.2
	c0.7,0.9,1.5,1.7,2.4,2.4c0.1,0.1,0.1,0.1,0.2,0.2c0.9,0.8,2-0.6,1.3-1.5c-0.8-1.1-1.7-2-2.7-2.6c0,0-0.1-0.1-0.1-0.2
	c0.4-0.5,0.2-1.2-0.4-1.5c2.3-1.2,4.8-2.2,7.1-3.3c-1.5,3-2.6,6.1-3.9,9.1c-0.5,1.2,1.4,1.8,1.9,0.7c1.7-3.9,3-7.9,5.3-11.5
	c0.5-0.8-0.4-1.9-1.3-1.5c-4.4,2.3-9.2,3.9-13.5,6.7c-0.8,0.5-0.7,1.8,0.4,1.9c0.2,0,0.5,0.1,0.7,0.1c-9.1,8.2-18.2,16.3-26.8,24.9
	c-1.1-1.2-2.5-2.3-3.2-3.8c-0.2-0.6-1.1-0.8-1.6-0.3c-6.6,6.6-11.2,17.1-20.2,20.6c-1.2,0.5-0.3,2.3,0.9,1.8
	c4.2-1.6,7.4-4.7,10.4-8.2l2.6,13.7c-3.9,0.8-7.7,1.7-11.4,2.9c0.5-1.7-0.1-3.8-1.4-5.7c-0.4-0.6-1.3-0.8-1.7-0.1
	c-0.1,0.1-0.1,0.2-0.2,0.4c-5.7-12.9-2.5-28.5-7.6-41.7c-0.5-1.2-2.3-0.3-1.8,0.9c5.3,13.7,1.6,29.8,8.2,43
	c-0.4,1.2-0.1,2.1,1.8,3.2c-0.2,0.4-0.4,0.8-0.7,1.1c-1.1,0.6-0.3,2.2,0.9,1.8c4.6-1.7,9.4-2.9,14.3-3.9l0.1,0.6
	c0,0.2,0.1,0.3,0.2,0.4c0.3,1.1,0.6,2.2,1.1,3.2c0.5,1.2,2.3,0.3,1.8-0.9c-0.5-1.2-0.9-2.5-1.2-3.7c3.8-0.7,7.5-1.3,11.3-1.9
	c0.4,1.8,1.1,3.7,3.2,3.4c1.3-0.2,0.9-2.1-0.4-2c-0.4,0.1-0.7-0.8-0.9-1.7c4.9-0.8,9.7-1.7,14.4-3c0.3-0.1,0.6-0.2,0.8-0.2
	c0.6,1.9,1.5,3.7,3.2,4.9c1,0.8,2.2-0.9,1.1-1.7c-1.2-0.9-1.9-2.1-2.3-3.5c0.3-0.1,0.5-0.3,0.6-0.5c4.6-1.3,9.2-2.5,13.8-3.6
	c0.5-0.1,1.1-0.3,1.8-0.4c0.3,0.9,0.7,1.7,1.1,2.2c0,0.2,0.1,0.3,0.1,0.5c0.2,1.3,2.2,0.9,2-0.4c-0.2-1-0.4-2-0.2-3v-0.1
	c3.2-0.8,6.7-1.3,9.2-0.3C315.7,53.3,316.4,51.4,315.2,50.9z M262.7,42.3c2,5.7,2.8,11.8,3.9,17.8c-3.8,0.6-7.6,1.3-11.3,2
	c-0.1-0.3-0.1-0.5-0.2-0.8l-2.6-13.7c0-0.2-0.2-0.4-0.3-0.5c2.7-3.4,5.2-7,8-10c1,1.4,2.4,2.5,3.4,3.8l0,0
	C262.9,41,262.4,41.6,262.7,42.3z"/>
<path class="st1" d="M323.9,43.2c-0.2,1.2-0.6,2.3-1,3.5c-0.9-0.8-1.7-1.5-2.7-2.2c-1.1-0.7-2.2,0.9-1.1,1.7c1.1,0.8,2.1,1.6,3,2.5
	c-0.3,0.8-0.7,1.5-1.1,2.3c-0.6,1.1,1.1,2.3,1.7,1.1c0.3-0.6,0.6-1.3,0.9-1.9c0.3,0.3,0.6,0.6,0.8,0.9c0.9,0.9,2.4-0.4,1.5-1.3
	c-0.5-0.5-1-1-1.5-1.5c0.6-1.5,1.1-3.1,1.4-4.8C326.2,42.1,324.2,42,323.9,43.2z"/>
<path class="st1" d="M313.9-165.6c-0.1-0.1-0.2-0.1-0.3-0.2c0-0.4-0.4-0.9-0.9-0.9c-3.1,0.1-5.4,0.8-7.9,2.6l-0.1,0.1
	c-5.1-0.9-8.9-3.3-11.2-8.5c-2.1-4.8-2.6-10.5-3.5-15.6c3.3-2.7,6.3-6,5.7-9.7c-0.8-4.5-8.6-5.4-12-6.1c-6.5-1.2-15.6-0.6-21.2-4.4
	c-1.1-0.7-2.2,0.9-1.1,1.7c3.6,2.4,8.6,2.8,12.8,3.4c5.6,0.8,11.6,1.2,16.9,3.4c5.7,2.4,1,7.3-2.9,10.5c-6-1-11.3-3.8-16.9-6.1
	c-1.1-0.9-2.2-1.8-3.3-2.7c-1-0.8-2.1,0.9-1.1,1.7c0.5,0.4,1,0.8,1.5,1.2c-0.1,0.3,0,0.7,0.4,1c1.2,0.7,2.4,1.5,3.6,2.3
	c3.2,2.6,6.5,5,10.4,6.6c-6.3,4.4-14.3,8.8-21.7,9.2c-0.7,0-1.1,0.7-1,1.3c-4-0.8-7.9-2.4-11.9-3.3c-5.7-1.2-11.4-0.3-17.1-1.8
	c2.9-5.1,6.5-9.7,10.4-14c4.5-5,10.3-10.6,17.1-11.9c1.3-0.2,0.9-2.2-0.4-2c-6.4,1.2-11.7,5.9-16.2,10.3
	c-5.2,5.1-9.8,11.1-13.3,17.5c-0.3,0.5-0.2,1.3,0.5,1.5c3.1,1,6.3,1.2,9.5,1.4c0,0.1,0,0.1,0,0.2c1,2.2,1.4,4.1,1.6,6.4
	c0-0.4-0.2,2.9,0.4,3.6c1.9,2.2,5,3.7,7.6,4.9c5.8,2.8,12.3,2.6,18.4,1.3c6.3-1.2,19.2-3,21.6-10.4c0.7,0,1.4-0.6,1-1.4
	c-1.7-4.1-2.3-8.5-3.9-12.6c0.7-0.5,1.5-1,2.4-1.6c0.9,1.1,0.9,2.9,1.2,4.9c0.4,2.3,0.9,4.6,1.5,6.8c1.7,6.4,5.5,10.2,10.9,12
	c1,5,4.7,7.8,9,10c0.8,0.4,1.6-0.7,1.2-1.4c-0.3-0.6-0.6-1.1-1-1.6c0.4,0.2,0.9,0.5,1.3,0.7c0.7,0.3,1.5-0.4,1.3-1.1
	c-0.4-1.5-1.1-2.7-2-3.7c0.5-0.3,0.9-0.5,1.4-0.8c0.8-0.4,0.6-1.5-0.1-1.8c0.2-0.4,0.4-0.8,0.5-1.3c0.2-0.1,0.3-0.1,0.5-0.2
	C314.6-164.1,314.5-165.2,313.9-165.6z M286.8-173.2c-0.2,8.4-15.6,9.9-21.7,11.1c-5.5,1.1-10.8,0.6-16-1.5c-2-0.8-6.4-2.9-6.6-5.4
	c-0.2-2.7-0.6-5.2-1.6-7.7c2.7,0.1,5.3,0.3,8,0.9c5.3,1.2,10.4,3.7,15.9,3.6c1.3,0,1.4-2,0.2-2c-0.6,0-1.1,0-1.7-0.1
	c7.3-1.1,14.6-5.3,20.6-9.3c1.3,3.3,1.9,6.8,3,10.1C286.9-173.4,286.9-173.3,286.8-173.2z M285.1-186.9c-0.1,0.1-0.3,0.2-0.4,0.3
	c-1.8-0.8-3.5-1.8-5.1-2.9c2,0.8,4,1.5,6.1,1.9c0.1,0,0.2,0,0.3,0.1C285.7-187.3,285.4-187.1,285.1-186.9z M306.5-160.9
	c0.1,0,0.1,0,0.2,0c0.1,0.1,0.2,0.2,0.4,0.3c0.4,0.2,0.8,0.4,1.2,0.6c0,0.2,0,0.4,0.1,0.6c0.3,0.4,0.6,0.8,0.9,1.1
	c-0.1,0-0.1,0.1-0.1,0.1C308.3-159.2,307.5-160.1,306.5-160.9z M305.1-159.5c1.1,0.8,2,1.8,2.8,2.8
	C306.7-157.4,305.8-158.4,305.1-159.5z M310.2-161.8c-0.1,0.1-0.1,0.3-0.2,0.5c0,0-0.1,0-0.1,0.1c-0.5-0.4-1.1-0.7-1.7-1
	c0-0.1,0-0.1,0-0.2c0.9-0.1,1.8-0.3,2.8-0.5C310.7-162.6,310.5-162.2,310.2-161.8z"/>
<path class="st1" d="M191.6-120.2c-0.2-0.5-0.9-0.7-1.3-0.5c-3.1,2-4.3,5.1-4.4,8.4c-1.5-2.4-3.2-4.7-5.5-5.5
	c-3.8-1.3-5.8,2.9-5.8,6.1c0.2,8,11.2,9.9,17.3,11.4h0.1c0,0.1,0,0.2,0,0.4c0.1,0.9,1.4,1.1,1.8,0.4c0.3-0.5,0.3-1.2,0.4-1.8
	c0.1-0.4-0.1-0.6-0.3-0.8c0.1-1.7,0.4-3.5,0.6-5.1C194.9-111.3,193.3-116.5,191.6-120.2z M192.4-106.4c-0.1,1.3-0.4,2.7-0.4,4.1
	c-4.5-1.1-9.3-2.4-13.2-4.9c-3.2-2.1-2.4-11,1.8-8c2.7,1.9,4.3,5.5,6,8.3c0.6,0.9,2.2,0.5,1.9-0.6c-1-3.6-1.1-8,1.8-10.6
	C191.8-114.6,192.8-110.2,192.4-106.4z"/>
<path class="st1" d="M212.9-125.8c-0.4-0.6-1-0.7-1.6-0.3c-2.3,1.7-3.8,4-4.4,6.7c-0.7-1-1.4-2-2.2-3c-0.4-0.5-1-0.4-1.4-0.1
	c-5.9,4.4-0.8,10.2,4.4,12.1c1.2,0.4,1.9-1.4,0.7-1.9c-3.5-1.3-7.7-4.8-4.5-8c1.2,1.6,2.4,3.2,2.9,5.1c0.3,1.2,2.1,0.9,2-0.4
	c-0.5-3.3,0.6-6.1,2.9-8.2c2.1,4.5-0.4,10-1.6,14.6c-0.3,1.2,1.6,1.9,1.9,0.7C213.4-114,216.4-120.6,212.9-125.8z"/>
<path class="st1" d="M175.7-62.9c-1.3,0.2-0.9,2.2,0.4,2c1.6-0.2,5.3,0,2.8,2.4c-1.1,1.1-2.7,1.3-4.1,1.4c-0.8,0.1-1,1.1-0.6,1.6
	c0.8,0.9,1.4,2,2,3c-1.9-0.9-3.5-2.2-5-3.9c-0.4-0.5-1.3-0.5-1.6,0.1c-1.1,2-2.2,3.7-3.8,5.2c-0.2-4-3.5-5.5-7-7.7
	c1.9-0.7,4.2-1.5,5.7-1c0.6,0.2,1.1-0.2,1.3-0.6c0.4,0,0.7-0.2,0.9-0.7c0.4-1.3,0.7-2.6,1-3.9c0.5-1.6,1.1-3.1,1.9-4.6
	c1.6,2,3,4.3,3.5,6.8c0.3,1.3,2.2,0.9,2-0.4c-0.7-3.3-2.6-6.3-4.9-8.7c-0.4-0.5-1.2-0.5-1.6,0.1c-0.4,0.7-0.8,1.4-1.2,2.1
	c-0.5,0-1,0.3-1.1,0.9c-0.2,1.2-0.4,2.4-0.6,3.5c-0.4,1.2-0.7,2.4-0.9,3.6c-2.7-0.7-6,1.1-8.5,1.7c-0.9,0.2-1.1,1.3-0.4,1.8
	c3.4,2.5,8.8,3.6,7.7,9c-0.2,0.7,0.5,1.8,1.4,1.2c2.5-1.6,4.1-3.5,5.6-5.9c2.2,2.3,4.7,3.7,7.8,4.4c0.9,0.2,1.3-1,0.8-1.7
	c-1-1.3-1.7-2.7-2.6-4c2.5-0.6,4.8-2,5.2-4.7C182.3-63.3,177.6-63.2,175.7-62.9z"/>
<path class="st1" d="M420.2-142c-1.2-1.5-2.7-2.3-4.5-3.1c-1.2-0.5-1.8,1.4-0.7,1.9c1,0.3,1.8,0.8,2.6,1.4c-1.7,0.6-3.3,1.3-5,1.8
	c-0.7,0.2-0.9,0.8-0.7,1.4c0.3,1,0.4,2.1,0.4,3.2c-1.5-1-3.1-2-4.8-2.3c-1.5-0.3-3.3,0.7-4.9,1.7c0.6-1.8,1-3.6,1.1-5.6
	c0-0.5-0.4-1.1-0.9-1.1c-2.1-0.1-3.7-0.6-5.3-1.7c2.1-0.4,4.1-0.5,6.2,0.3c0.2,0.1,0.4,0.1,0.5,0c0.2,1,1.8,1.1,2-0.1
	c0.3-3,1.5-5.9,3.3-8.2c0.4,1,0.7,2,1.1,3c0.5,1.4,1.2,3.1,1.1,4.6c-0.1,1.3,1.9,1.4,2,0.2c0.2-3.3-1.8-7.1-3-10.2
	c-0.2-0.6-1.1-0.7-1.6-0.3c-2.5,2.5-4.1,5.7-4.8,9.1c0,0-0.1,0-0.1-0.1c-3-1.2-6.1-0.9-9.2,0.1c-0.7,0.2-1.2,1-0.6,1.6
	c2,2.1,4.1,3.2,6.9,3.5c-0.3,2.4-0.9,4.6-1.9,6.8c-0.4,0.8,0.6,1.6,1.4,1.2c1.8-0.9,3.6-2.2,5.6-2.9c1.7-0.6,4.8,2.1,6.1,2.9
	c0.8,0.5,1.6-0.1,1.5-1c-0.2-1.6,0-3.1-0.3-4.6c1.9-0.6,3.7-1.5,5.7-2C420.4-140.5,420.7-141.3,420.2-142z"/>
<path class="st1" d="M442.7-38.1c-2.1-0.2-4.3-0.1-6.3,0.2c-1.3,0.2-0.9,2.1,0.4,2c1.3-0.2,2.7-0.2,4.1-0.2
	c-1.3,1.5-3.1,2.2-5.5,2.1c-0.9,0-1.6,1.3-0.6,1.8c1.7,0.9,3.3,2.4,4.2,4.1c-2.1-0.3-4.1-0.9-6.1-1.8c-0.4-0.2-0.9,0-1.2,0.4
	c-1.3,2-2.2,4.2-3.4,6.3c-0.3-2.3-0.6-4.6-1.9-6.5c-1.3-1.9-4-2.2-6.4-2.1c1.4-1.6,3.2-2.3,5.3-1.9c0.1,0,0.2,0,0.3,0
	c0.2,0.9,1.6,1.2,1.9,0.2c0.5-1.8,0.8-3.7,1.1-5.5c0.1-0.5-0.2-0.8-0.5-1c0.1-1.1,0.2-2.2,0.3-3.3c2.2,1.7,4.2,3.8,5.9,6
	c0.8,1,2.3-0.3,1.5-1.3c-2.2-2.7-4.9-5.4-7.7-7.4c-0.6-0.4-1.5,0-1.6,0.7c-0.3,3.2-0.5,6.5-0.7,9.7c-0.1,0-0.1-0.1-0.2-0.1
	c-3.9-0.2-6.9,0.9-8.4,4.6c-0.3,0.8,0.4,1.4,1.1,1.3c2.6-0.2,5.8-0.5,7.2,2.3c1,2.1,1,5,1.3,7.3c0.1,0.9,1.3,1,1.8,0.4
	c0.6-0.8,4.3-8,5-7.7c2.2,1,4.7,1.4,7.1,1.5c0.6,0,1.3-0.5,1.1-1.2c-0.7-2-1.9-3.8-3.5-5.2c2.2-0.5,4-1.9,5.4-4.1
	C443.8-37.1,443.5-38,442.7-38.1z"/>
<path class="st1" d="M292.7,86.1c-1.6-1.8-3.9-2.1-6.1-1.7c2.7-3.6,3.7-7.9-2.1-10c-5.2-1.9-10.2,0.8-12,5.3c-4.2,0-7.9,2.9-9.6,6.7
	c-2.7-1.4-6.7-1.5-9.3,0.5c-10.2,7.6,3.9,21.3,13.2,13.9c1-0.8-0.3-2.3-1.3-1.5c-6.8,5.5-18.2-3.8-11.2-10.4
	c1.8-1.7,5.6-1.8,7.9-0.6c-0.5,2-0.5,4.1,0.3,6.1c0.2,0.6,1.1,0.8,1.6,0.3c2.6-2.9,2.2-5.4,0.4-7.1c1.3-3,4.2-5.5,7.4-5.8
	c-0.1,0.7-0.2,1.4-0.2,2.1c0,0.9,1.3,1.6,1.8,0.6s1.1-1.9,1.8-2.7c0.5-0.5,0.5-1.5-0.3-1.7c-0.2,0-0.3-0.1-0.5-0.1
	c1.3-2.7,4.1-4.2,7.8-3.9c2,0.1,4.2,1.1,4.7,3.2c0.7,2.9-3.2,5.7-5.1,7.2c-0.9,0.7,0.1,2.3,1.1,1.6c6.3-3.9,12.7,1.1,8.4,7.8
	c-0.8,1.3-2.1,2.4-3.3,3.3l-0.1,0.1c-0.5-0.9-1.2-1.8-1.8-2.7c-1.2-1.8-3.6,1.4-4.1,2.3c-1.4,2.2,0.5,3.7,2.5,3.9
	c0.5,0.1,0.9,0,1.4-0.1c-1.8,3.6-12.5,2.9-15.9,0.9c-1.1-0.6-2.2,1-1.1,1.7c1.5,0.9,3.3,1.6,5.2,2l3.2,16.5c0.2,1.3,2.2,0.9,2-0.4
	l-3-15.8c0.9,0.1,1.8,0.1,2.7,0.1c0.1,0,0.2,0,0.3,0c1,6.1,1.6,14.8,8.9,16c1.3,0.2,1.4-1.8,0.2-2c-5.9-1-6.4-9.2-7.1-14.3
	c2.9-0.6,6.6-1.9,7.3-4.3c0.2-0.6,0.2-1.1,0.2-1.6c2.1-1.4,3.9-3.7,4.9-5.3C295.6,92.9,295.3,88.8,292.7,86.1z M284.2,99.3
	c0.5-1.1,0.8-1.3,1-0.8c0.5,0.7,0.7,1.2,0.9,1.8C285.5,100.3,284.8,100,284.2,99.3z"/>
<path class="st1" d="M387.8,119.4c-2.7-0.7-5.7-0.4-8.4,0.6c0.6-2.5,1.6-4.8,2.8-7.1c0.6-1.1-1.1-2.3-1.7-1.1
	c-1.6,3.1-2.9,6.3-3.5,9.8c-0.1,0.8,0.8,1.3,1.4,1c2.5-1.3,5.9-1.9,8.6-1.3C388.3,121.6,389,119.7,387.8,119.4z"/>
<path class="st1" d="M264,157.1c-1.2,0.2-2.3,0.2-3.5,0.1c0.6-1.4,1.2-3,2.2-4.1c0.9-0.9-0.4-2.4-1.3-1.5c-1.6,1.7-2.4,4-3.3,6.1
	c-0.3,0.6,0.3,1.3,0.9,1.3c1.8,0.2,3.6,0.3,5.4,0C265.6,158.8,265.3,156.8,264,157.1z"/>
<path class="st1" d="M384.4-19.8c-1.5-2-3.4-2.9-5-2.6c0.1-0.6,0.1-1.1,0-1.7c0.6,0.7,2.1-0.1,1.6-1.2c-3.4-8.3-9.1-15.3-13.7-22.9
	c-5.9-9.8-6.3-20.8-9.5-31.4c-0.3-1-1.9-1.1-2,0.1c-0.8,9.3,1,18.8-0.9,28c-2.7-13-1.2-26.5-4.9-39.3c-0.2-0.7-1.4-1.2-1.8-0.4
	c-8.8,16.3-5.7,35.4-9.6,52.9c-4.1-20,1.5-40.4,1.7-60.6c0-0.9-1.3-1.6-1.8-0.6c-4.7,8.2-7.2,17.1-8.8,26.2
	c0.6-6.4,0.7-12.7-0.8-19.1c-0.2-0.8-1.4-1.2-1.8-0.4c-4.9,9.2-7.2,19.3-8.9,29.5c0.3-5.3,0.4-10.6,0-15.9c-0.1-1.1-1.6-0.9-1.9-0.1
	c-4.2,9-4.1,19-6,28.5c-0.1-4.2,0.1-8.4,0-12.6c-0.1-3.8,0.6-10.1-1.9-13.4c-0.8-1-2.3,0.3-1.5,1.3c1.1,1.4,1,4.1,1.2,5.8
	c0.3,3.2,0.3,6.4,0.3,9.6c0.1,5.3-0.2,10.6,0.3,15.8c0.1,1,1.6,1,1.9,0.1c3.3-9.8,2.7-20.5,5.9-30.2c0.2,9.3-1,18.7-1.1,28
	c0,1.3,1.8,1.4,2,0.2c2.6-14.5,3.7-29.6,10.1-43c2.6,16.4-4.1,32.8-3.2,49.3c0.1,1,1.7,1.6,1.9,0.4c4.1-18.2,3.7-38.3,12-55.3
	c-0.9,20.3-6.1,40.7-0.6,60.8c0.2,0.9,1.6,1.2,1.9,0.1c5.1-17.5,1.4-37.3,9.3-54c3.1,13.3,1.4,27.3,5.1,40.5
	c0.3,0.9,1.6,1.1,1.9,0.1c2.8-8.1,1.9-16.6,1.8-25c1.6,7.5,2.8,14.9,6.3,21.9c4.2,8.3,10.5,15.4,14.4,23.8c-0.1-0.2-0.3-0.3-0.5-0.4
	c-2.7-2-5.5-0.2-7.4,2c0-0.1-0.1-0.1-0.1-0.2c-0.1-0.5-0.6-1-1.2-0.8c-3.8,1.2-6.7,4.6-6.5,8.8c0.1,1.3,0.4,2.3,1,3.2
	c0,0.1-0.1,0.2-0.1,0.4c-0.7,2.5,1.1,4.8,3.5,5.5c2.9,0.8,6.4-1.3,8.1-3.5c0.8-1-0.9-2.1-1.7-1.1c-1.6,2.1-7.8,4.5-8.1,0.4
	c1.2,0.7,2.7,0.9,4.4,0.5c0.4-0.1,0.8-0.5,0.8-0.9c0-2-0.3-4.9-2.9-4.8c-1.1,0-2.1,0.6-2.8,1.5c-0.2-0.5-0.3-1.1-0.3-1.8
	c0-2.6,1.7-4.8,4-5.8c0.2,0.4,0.4,0.8,0.8,1.2c0.5,0.5,1.2,0.5,1.6-0.1c1.1-1.5,2.6-3.7,4.8-3.2c2,0.4,1.7,2.8,1.1,4.6
	c-0.5,0.6-0.9,1.5-1.1,2.5c-0.2,1,1.2,2,1.8,0.9c0.4-0.7,0.8-1.5,1.1-2.3c1.2-1.2,2.9-0.6,4.3,1.5c2.2,3.4,0.2,6.1-3.4,6.9
	c-1.3,0.3-0.9,2.2,0.4,2C385-10.7,387.7-15.2,384.4-19.8z M368.7-13.5c-1,0.1-1.9-0.2-2.6-0.7c0.3-0.4,0.7-0.7,1-1
	C368.3-16,368.6-14.6,368.7-13.5z"/>
<path class="st1" d="M200,35.3c-0.5-0.7-1.7-0.2-1.8,0.6c-0.1,2.6,0.1,5.2,0.4,7.8c-1.5-3.5-3.2-6.9-5.6-10.1
	c-0.5-0.7-1.7-0.3-1.8,0.6c-0.1,2.7,0.1,5.2,0.6,7.8c-1.4-2-3.1-3.8-5.1-5.3c-0.7-0.6-1.6,0.2-1.5,1c0.4,3,1.1,5.8,2.1,8.5
	c-1.6-2.2-3.4-4.4-5.4-6.3c-0.7-0.7-1.9-0.2-1.7,0.8c0.7,4.3,2,8.3,3.6,12.2c-2-1.6-4.1-3-6.6-3.9c-0.8-0.3-1.4,0.4-1.3,1.1
	c0.7,5.9,3.8,11.1,7.4,15.9c-1.4-1.1-2.7-2.1-4.1-3.2c-2-1.5-6.8-6-9.7-4.8c-1.2,0.5-0.3,2.3,0.9,1.8c1.8-0.7,8.1,5,9.5,6
	c3.4,2.6,6.8,5.3,9.9,8.1c0.9,0.8,2.3-0.3,1.5-1.3c-5.1-6.3-11.5-12.9-13.1-21.1c3.2,1.5,5.8,3.9,8.2,6.6c2.4,4.6,5.4,9,8.6,13.2
	c0.7,0.9,2.2-0.1,1.6-1.1c-2.4-4.3-5.1-9.1-8.5-13.2c-2.2-4.2-4-8.7-5.2-13.4c6.1,7.1,10.1,15.7,14.7,23.8c0.6,1.1,2.4,0.3,1.8-0.9
	c-4.2-8.8-9.8-17-11.8-26.7c5.7,5.6,8.1,14.6,10.9,21.8c0.4,1,2.2,0.4,1.9-0.6c0-0.1-0.1-0.2-0.1-0.3l0,0l0,0
	c-2.5-7.7-6.6-15.3-7.1-23.4c4.1,6.5,6,14.1,8.3,21.4c0.4,1.2,2.2,0.9,2-0.4c-1.3-6.4-3-12.6-3.3-19.1c5.5,9.3,9.4,21.6,8.4,32.1
	c-0.1,1.3,1.9,1.4,2,0.2C211.8,59.5,206.7,45.3,200,35.3z"/>
<path class="st1" d="M345.1-173.4c-10.6,5.1-18.2,13.7-26.1,22.1c-4.4,4.7-9,9-14.8,12.2c-6.1,3.3-13.1,4.8-19.8,6.4
	c-4.4,1-8.7,2.4-13.3,2.1c-4.6-0.2-8.4-3.3-11.9-6c-3.5-2.7-7.1-6.4-12-5.7c-5,0.7-8.4,4-11.3,7.9c-0.8,1,0.9,2.2,1.7,1.1
	c2.3-3.2,4.8-5.8,8.7-6.9c4.2-1.2,7.7,1.9,10.7,4.3c2.9,2.4,6,4.7,9.5,6.2c7.2,3,16.1-0.6,23.2-2.4c11.2-2.8,20.2-7.4,28.4-15.6
	c8.8-8.8,16.3-18.5,27.8-24C347.1-172.1,346.2-173.9,345.1-173.4z"/>
<path class="st1" d="M362.3-169.1c-8.9-10.8-23,4.1-29.1,10.8c-4.1,4.5-7.8,9.3-11.5,14.2c-7.6,10.3-17.9,13.3-29.6,17
	c-1.2,0.4-0.8,2.4,0.4,2c8.6-2.8,17.4-5,24.6-10.8c4.7-3.8,8-9.6,11.8-14.3c5.2-6.6,22.6-29,31.9-17.6
	C361.6-166.8,363.1-168.1,362.3-169.1z"/>
<path class="st1" d="M416.5,8.4c-1.4,0.2-7.7-6.1-9.1-7.4c-3.4-3-7.5-6.2-10.1-10c-0.3-0.5-1-0.8-1.6-0.3c-3.4,3.3-6.4,7-9.4,10.7
	c0.1-2.8-0.1-5.6-0.8-8.3c-0.2-0.6-0.6-0.8-1.2-0.8c-4.5,0.4-8.8,2.2-12.6,4.5c-0.4,0.3-0.8,0.8-0.5,1.3c0.7,1.2,1.7,2.7,2.4,4.1
	c0,3.6,0.5,7.1,1.9,10.5c-0.3,0.3-0.6,0.7-0.9,1.1c-0.2,0.3-0.4,0.5-0.6,0.8c-0.2,0.1-0.3,0.3-0.4,0.4c-0.6-0.3-1.4-0.2-1.5,0.6
	c-0.3,0.3-0.6,0.7-0.3,1.2c3.8,8.2,4.9,17.1,7,25.9c0.3,1.1,1.9,1.1,2-0.1c0-0.4,0-0.8,0-1.3c4.6-0.7,9.2-0.8,13.8-1.2
	c1.3-0.1,0.9-2.1-0.4-2c-4.5,0.4-9.1,0.5-13.6,1.1c-0.1-0.7-0.2-1.3-0.3-2c-0.1-0.5-0.4-0.7-0.8-0.8c-1.4-6.4-2.6-12.9-5.2-19
	c0.3-0.3,0.6-0.6,0.9-1c2-2.7,4.5-4.7,6.8-7c0.3-0.4,0.7-0.7,1-1.1c0.2,0.5,0.5,1,0.7,1.5c0.4,0.9,1.8,0.6,1.9-0.4
	c0.2-1.6,0.4-3.2,0.5-4.7c3.4-4,6.5-8.1,10.2-11.9c2.9,3.9,7,7.1,10.6,10.3c1.9,1.6,7.1,7.7,10,7.2C418.1,10.1,417.7,8.1,416.5,8.4z
	 M384.2,3.8c-0.2,0.2-0.3,0.4-0.5,0.6c-1.8,2.1-3.6,4.1-5.6,5.9c-0.3-0.5-0.9-0.6-1.4-0.4c-0.5-1.5-0.7-3-0.9-4.5
	c0.4-0.1,0.8-0.5,0.7-1.1c-0.5-2.5-0.9-4.9-1-7.5c2.6-1.3,5.3-2.2,8.2-2.6C384.4-2.6,384.5,0.6,384.2,3.8z"/>
<path class="st1" d="M419.2,7.1c-0.4-1.2-2.2-0.3-1.8,0.9c1.6,4.4,1.7,9.7,2.1,14.3c0.1,1.4,1.3,11,0.5,13.8
	c-3.6-1.1-7.6-0.2-11.4-0.7c-1.3-0.2-1.4,1.8-0.2,2c3.4,0.5,7.2-0.4,10.6,0.5c0.1,0.6,0.7,1.1,1.4,0.7c0.1,0,0.1-0.1,0.2-0.1l0,0
	c1,0.5,1.6-0.8,1-1.6c1.1-3.2,0.1-9.5,0-11.5C421.4,19.5,421.3,12.7,419.2,7.1z"/>
<path class="st1" d="M399.6,21.5c-2.7-0.6-4.6,2.1-5,4.3c-0.1,0.5-0.2,1-0.2,1.5c-0.5-1.4-1-2.7-1.6-4.1c-0.5-1.2-2.3-0.3-1.8,0.9
	c1.8,4.3,3.1,8.7,4,13.2c0.3,1.3,2.2,0.9,2-0.4c-0.4-2.1-2.3-16,3-13.3c2,1,2.9,4.2,3.5,6.1c0.5,1.4,0.8,2.9,1.1,4.4
	c-0.3,0.3-0.4,0.7-0.2,1.1c0.2,0.6,0.6,1.1,0.9,1.6c0.6,0.8,1.9,0.1,1.7-0.8C406.2,31.7,405.1,22.7,399.6,21.5z"/>
<path class="st1" d="M397.8,4.5c-2.4-1.3-6.1-0.5-6.7,2.4c-0.5,2.2,1.3,4.1,3.2,4.8c-0.6,0.4-0.7,1.5,0.2,1.7
	c2.6,0.6,5.9,0.3,6.4-2.8C401.4,8.2,399.9,5.6,397.8,4.5z M399,10.1c-0.1,1.1-0.8,1.5-1.6,1.6c0.4-0.6,0.3-1.6-0.6-1.6
	c-1.7,0.1-3.7-0.9-3.7-2.9c0.1-2,3.1-1.5,4.2-0.8C398.4,7.2,399.1,8.7,399,10.1z"/>
<path class="st1" d="M441.9-166.6c-8.1,0.6-2.2-17.8-2.8-22.4c-0.1-0.9-1.3-1-1.8-0.4c-2.3,2.8-4,5.9-5.8,9
	c1.5-5.5,3.6-10.8,4.9-16.3c0.2-0.9-0.8-1.8-1.6-1.1c-3.8,3.4-6.6,7.6-9.2,11.9c2.8-6.8,5.9-13.4,5.9-20.8c0-0.7-0.7-1.4-1.4-1
	c-4.7,2.7-7.6,7.3-10,12.2c2.6-8.6,5.6-17.6,3-26.1c-0.2-0.8-1.3-1.2-1.8-0.4c-5.7,9.3-7,20.2-10.4,30.4
	c-0.1-15.6,2.9-31.8-2.2-46.8c-0.3-0.9-1.5-0.6-1.8,0.1c-6.7,15.2-4.2,32.9-10.6,48.1c-0.3-15.3,2.1-31.1-3.8-45.5
	c-0.3-0.7-1.4-0.7-1.7-0.1c-7.3,12.5,3.9,30.3-5.1,41.8c-6.6-10-2.3-24.1-6.2-35.1c-0.4-1.1-1.7-0.5-1.9,0.4
	c-2.4,11.8,0.5,25-4.3,36.2c-1.5-9.2-0.9-18.7-3.3-27.9c-0.3-1.1-1.8-1-2,0.1c-1.4,8-0.3,16.6-2.1,24.5c-0.7-5.9-1.4-11.8-3.2-17.6
	c-0.3-0.8-1.6-1.2-1.9-0.1c-1.5,5.9-2,11.9-2.3,17.9c-2-6.5-4.6-12.7-7.7-18.8c-0.6-1.1-2.4-0.3-1.8,0.9c3.9,7.7,7,15.6,9.2,23.9
	c0.3,1.1,1.9,1.1,2-0.1c0.4-6.4,0.6-12.9,1.7-19.2c1.4,6,2,12,2.7,18.1c0.1,1.1,1.6,1,1.9,0.1c3-7.2,2.4-15.2,2.9-22.9
	c1.1,8.1,0.9,16.4,2.6,24.4c0.2,0.8,1.4,1.2,1.8,0.4c5.9-10.7,3.9-23.1,5.1-34.9c1.9,10.7-1,22.9,6,32c0.3,0.4,1.1,0.5,1.4,0.1
	c10.4-11.5-0.3-28.3,5.2-41.2c5.2,14.8,2.1,31.2,3,46.6c0,0.9,1.3,1.6,1.8,0.6c8.3-15.3,5.6-33.4,11.5-49.4
	c4.3,15.6,0.5,32.5,1.4,48.4c0.1,1.1,1.5,1.5,1.9,0.4c4.5-10.5,5.4-22.4,10.8-32.5c1.9,10.7-4.2,22.1-6.1,32.4
	c-0.2,1,1.4,1.5,1.8,0.6c3.3-6.3,6-14.7,12-19.2c-0.7,9.7-6.5,18.2-8.9,27.5c-0.3,1.1,1.1,1.9,1.8,0.9c3.7-5.7,6.7-12.1,11.2-17.2
	c-1.9,6.4-4.4,12.6-5.4,19.2c-0.2,1,1.3,1.4,1.8,0.6c2.5-3.9,4.5-8.1,7.1-11.9c-0.8,7.6-5,21.9,5.2,21.1
	C443.5-164.7,443.1-166.7,441.9-166.6z"/>
<path class="st1" d="M368.2,60.4c-3.2,5.3-5.8,11-8.4,16.6c1.8-5.6,3.8-11.1,5.3-16.8c0.3-1.1-1-1.8-1.8-0.9
	c-3.5,4.3-6.1,9.1-8.4,14.1c0.8-3.2,1.5-6.5,1.7-9.8c0.1-1-1.3-1.5-1.8-0.6c-3.4,5.9-4.9,12.6-7.4,18.8c0.7-5,1.5-10.1,1.7-15.2
	c0-1-1.3-1.5-1.8-0.6c-3.2,5-4.9,10.6-6.9,16.1c0.5-4.4,1.2-8.7,0.5-13.1c-0.1-0.9-1.3-1.1-1.8-0.4c-3,4.4-3,9.8-5,14.5
	c-1.1-3.4-1.5-6.8-2.1-10.3c-0.2-1.1-2-1-2,0.1c-0.1,4,0.2,8-1,11.8c-1.5-3.4-4-10-6.4-6.8c-0.8,1,0.9,2.2,1.7,1.1
	c-0.9,1.2,3.1,7.6,4.1,8.7c0.6,0.6,1.4,0.3,1.7-0.3c0.9-1.8,1.4-3.7,1.6-5.6c0.4,1.5,0.8,2.9,1.4,4.3c0.3,0.7,1.4,0.7,1.7,0.1
	c2.5-4.1,2.7-9.1,4.4-13.4c0,5.1-1.2,10.2-1.2,15.4c0,1.2,1.5,1.5,1.9,0.4c2.6-5.7,4.1-11.8,6.8-17.5c-0.5,5.6-1.5,11.2-2.2,16.8
	c-0.1,1,1.3,1.5,1.8,0.6c3.4-5.8,4.8-12.3,7.3-18.5c-1.3,6-3.4,11.8-4.9,17.8c-0.3,1.3,1.4,1.8,1.9,0.7c3.4-7.7,6.3-15.8,10.8-23
	c-2.2,7-4.8,14-6.2,21.3c-0.2,1,1.4,1.5,1.8,0.6c3.5-6.8,6.4-14,10-20.8c-1.9,9.3-4.9,18.3-7.8,27.3c-0.4,1.2,1.5,1.9,1.9,0.7
	c3.6-11,7.3-22,8.9-33.5C370.1,60.1,368.7,59.6,368.2,60.4z"/>
<path class="st1" d="M155.6-183.1c1.5-1,2.5-2.5,2.6-4.9c0-1.3-2-1.4-2-0.2c0,4.8-5.2,4.5-8.8,4.7c-0.2,0-0.4,0-0.5,0v-0.1
	c-0.2-0.8-1.4-1.2-1.8-0.4c-0.1,0.3-0.2,0.6-0.3,0.8c-1.9,0.4-3.4,1.2-5,2.8c-1.4,1.4-2.9,3.7-2.3,5.7c0.6,2.3,3.7,1.9,5.4,1.5
	c1.3-0.3,0.9-2.2-0.4-2c-4.9,1.1-2.5-2.8-0.4-4.7c0.7-0.6,1.5-1,2.3-1.2c0.2,0.6,0.8,0.9,1.3,0.8c0.7,2.4,1.7,4.8,2.8,7
	c0.4,0.9,2.3,4.9,3.7,2.6c0.5-0.8-0.2-1.5-0.9-1.6c0,0,0-0.1-0.1-0.1c-0.2-0.3-0.4-0.7-0.6-1c-0.6-1.1-1-2.2-1.5-3.3
	c-0.7-1.6-1.3-3.2-1.8-4.9c0.9-0.1,1.8-0.1,2.6-0.1c1.3-0.1,2.6-0.3,3.7-0.6c1,4.2,2.7,8.1,4.4,12.1c0.5,1.2,2.3,0.3,1.8-0.9
	C158.3-175,156.5-179,155.6-183.1z"/>
<path class="st1" d="M167-187.3c-0.7,0.5-1.5,0.7-2.4,0.8c-1.3,0.2-0.9,2.2,0.4,2c1.2-0.2,2.3-0.6,3.3-1.3
	C169.3-186.6,168-188.1,167-187.3z"/>
<path class="st1" d="M169.5-183.6c-0.7,0.9-1.6,1.3-2.7,0.9c-1.2-0.5-1.9,1.4-0.7,1.9c2,0.7,3.8,0,5-1.6
	C171.9-183.5,170.3-184.7,169.5-183.6z"/>
<path class="st1" d="M181.6-201.1c-3.7-3.8-7.9,1.3-8.1,5c-0.1,1.3,1.9,1.4,2,0.2c0.1-2.2,1.7-5.4,4.5-3.9c1.5,0.8,1,3.3,0.9,4.6
	c-0.2,2.1-1.1,4.7,0.3,6.6c0.8,1,2.3-0.3,1.5-1.3c-1-1.3,0.2-4.6,0.3-6.1C183.1-197.9,182.9-199.8,181.6-201.1z"/>
<path class="st1" d="M184.2-182.7c-1.3,0.2-0.9,2.2,0.4,2C185.8-180.9,185.4-182.9,184.2-182.7z"/>
<path class="st1" d="M319.7,100.2c-2.8-1.8-7.3-0.5-9.2,2.1c-2.1,3,0.4,6.2,3.1,7.8c0.1,0.3,0.4,0.6,0.8,0.7c0.1,0,0.3,0,0.4,0
	c-1.5,0.8-9.4,5.6-6,7.4c1,0.5,2-0.8,1.4-1.5c0.1-0.1,0.1-0.2,0.2-0.3c0.5-0.5,1.1-1,1.6-1.4c1.2-0.9,2.5-1.8,3.8-2.5
	c0.7-0.4,0.6-1.3,0.1-1.7c2.4-0.1,4.6-1.3,5.6-3.7C322.7,104.8,322,101.7,319.7,100.2z M319.6,106.8c-0.8,1.6-2.4,2.2-4.1,2.2
	c-0.1,0-0.1-0.1-0.2-0.1c-2.2-1-4.9-3.7-2.6-6c1.5-1.5,4.8-2.1,6.5-0.5C320.3,103.5,320.3,105.4,319.6,106.8z"/>
<path class="st1" d="M328.8,115.8c-2-2.5-4.7-4-6.8-6.3c-0.9-0.9-2.4,0.4-1.5,1.3c2.1,2.3,4.9,3.9,6.8,6.3
	C328.1,118.1,329.6,116.8,328.8,115.8z"/>
<path class="st1" d="M324.1,133.2c-1.6-2.5-3.7-4.6-6.1-6.4l0,0c0.5-0.4,0.9-0.8,1.3-1.3c0.7-0.8-0.3-1.7-1.2-1.4
	c0.1-3.7-0.3-7.4,0.1-11c0.1-1.3-1.9-1.4-2-0.2c-0.4,4.3,0.2,8.7-0.2,13c-1.6,1.2-3.5,2-5.3,3c-1.4,0.8-3,1.7-3.5,3.3
	c-0.4,1.2,1.5,1.9,1.9,0.7c0.5-1.8,3.6-2.8,5.1-3.5c0.5-0.3,1-0.6,1.5-0.9c0,0.1,0,0.2,0,0.3c-0.2,1.2,1.6,1.4,1.9,0.3
	c1.8,1.4,3.4,3.1,4.7,5.1C323,135.2,324.8,134.3,324.1,133.2z"/>
<path class="st1" d="M375.4-137.5c-4-2.2-8-4.6-11.8-7.1c1.3-1.1,2.4-2.7,3-4.3c1.2-2.8,1.3-7.5-2.4-8.5c-0.2-0.1-0.4,0-0.6,0
	c-4.4-1.7-9.8-0.4-12,4c-1.8,3.7,1.3,8.2,4.9,9.8c-1.7,2.3-3.5,4.5-5.4,6.7c-1.2,1.4-5,4.6-3.5,6.6c0.3,0.4,0.8,0.4,1.2,0.2
	c0.3-0.2,0.6-0.4,1-0.4c1.3,0,1.4-2,0.2-2h-0.1c1.4-1.6,4.2-4.9,4.6-5.3c1.4-1.7,2.8-3.4,4.1-5.3c0.1,0,0.2,0,0.3,0
	c0.1,5.5,2,11.1,3.6,16.3c1.4,4.3,2.6,9.5,5.1,13.3c-0.1,5.9-1.7,11.8-3.6,17.4c-0.4,1.2,1.5,1.9,1.9,0.7c1.9-5.7,3.6-11.9,3.7-18
	c0.1-0.2,0.1-0.5-0.1-0.8c-2.3-3.4-3.4-8-4.7-11.9c-1.8-5.4-3.9-11.3-4-17c0-0.1,0-0.2-0.1-0.3c0.4-0.1,0.7-0.2,1-0.4
	c0.1,0.1,0.2,0.2,0.3,0.3c3.9,2.6,8,5.1,12.1,7.3C375.4-135.3,376.5-136.9,375.4-137.5z M359.8-145c0.4-1-1.1-2-1.7-0.9
	c-0.1,0.2-0.3,0.4-0.4,0.7c-2.8-1-5.1-4.3-4.3-7.1c1.2-3.9,6.5-4.4,9.7-3.1c0.3,0.1,0.5,0.1,0.7,0c2.2,0.8,1.6,3.7,1,5.5
	C364.1-147.8,362.3-145.3,359.8-145z"/>
<path class="st1" d="M383.7-108.9c-1.9,0.2-4.4-0.8-6.2-1.3c-1.5-0.5-5.7-1.5-6-3.4c-0.2-1.3-2.1-0.9-2,0.4c0.3,2.6,4.2,3.9,6.3,4.6
	c2.4,0.9,5.6,2.1,8.2,1.8C385.4-107.1,385-109,383.7-108.9z"/>
<path class="st1" d="M364.8,121.1c-0.2-0.9-1.7-1.2-1.9-0.1c-3,12.2-4.3,24.8-8.1,36.8c-0.4-10.4,1.4-20.9,0.2-31.3
	c-0.1-1-1.7-1.1-1.9-0.1c-2.6,10.5-3.6,21.2-5.3,31.9c0.4-12.2,1.4-24.3,0.2-36.5c-0.1-0.8-1.4-1.1-1.8-0.4
	c-5.9,11.6-7.5,24.3-9.3,37c0.4-8.2,0.5-16.3-2.1-24.2c-0.2-0.7-1.4-0.7-1.7-0.1c-3.6,6-5.3,12.5-6.5,19.2
	c-0.1-3.6-0.5-7.3-1.6-10.8c-0.3-1-1.5-1.1-1.9-0.1c-2.2,4.5-3.7,9.3-4.6,14.2c-0.5-3.6-1.4-7.1-3-10.5c-0.4-0.8-1.5-0.7-1.8,0.1
	c-1.3,3-2,6.1-2.4,9.2c-0.5-3.8-1.1-7.5-2.2-11.2c-0.3-0.8-1.7-1.2-1.9-0.1c-1.3,5.6-1.6,11.4-1.5,17.1c-0.7-4-1.7-8-3.1-11.9
	c-0.3-0.9-1.6-0.6-1.8,0.1c-0.9,2.4-1.3,4.8-1.5,7.2c-0.7-2.8-1.4-5.5-2.3-8.3c-0.3-1-1.8-0.6-1.9,0.4c-0.5,6.2-0.2,12.3,0.5,18.4
	c-1.3-3.9-2.6-7.8-4.1-11.7c-0.4-1.1-2.1-0.4-1.9,0.6c1.7,8.9,3.8,17.7,5.4,26.6c-1.9-4.3-3.7-8.8-5.7-13.1
	c-2.4-5.4-5.1-11.2-9.8-15c-1-0.8-2.1,0.8-1.1,1.7c4.7,3.9,7.2,10.1,9.7,15.5c2.7,6,5,12.1,8,18c0.5,1,2,0.5,1.9-0.6
	c-0.8-6.1-2-12.1-3.3-18.2c0.9,2.6,1.7,5.1,2.7,7.7c0.4,1.1,2.1,0.4,1.9-0.6c-1.4-7.6-2.5-15.3-2.5-23c1.7,6.6,2.7,13.4,3.9,20.1
	c0.2,1.1,2,1,2-0.1c0-0.1,0-0.2,0-0.3l0,0l0,0c-0.4-7.1-2.6-14.6-1-21.7c2.7,8.8,3.1,18,4.7,27.1c0.2,1.1,2,1,2-0.1
	c-0.2-10.2-1.6-20.7-0.2-30.9c1.7,8.1,1.7,16.4,3.1,24.6c0.2,1.1,2,1,2-0.1c-0.3-8.2-1.2-16.5,1.4-24.3c2.4,6.2,2.5,13,2.5,19.8
	c-0.1,2.4,0,4.9,0.1,7.3c0.1,1.3,2,1.5,2,0.2c-0.1-2.3-0.1-4.6-0.1-6.9c0.2-8.1,1.5-16.3,4.6-23.8c1.8,8.3,0.3,16.9,0,25.3
	c-0.1,1.3,1.8,1.4,2,0.2c2.2-11.4,2.6-23.5,8-34c3.2,11.8,0.5,24.5,0.7,36.5c0,1,1.7,1.6,1.9,0.4c0-0.1,0-0.2,0.1-0.3l0,0l0,0
	c3.4-15.9,3.5-33,10.1-48.1c0.9,14.6-0.9,29.1-0.6,43.7c0,1,1.7,1.6,1.9,0.4c2.7-11.8,3.6-23.9,5.9-35.8c0.1,9.6-1.4,19.2-0.3,28.8
	c0.1,1,1.6,1,1.9,0.1c4.6-11.9,6-24.6,8.7-37c0.8,4.9,0.9,9.8,0.7,14.7l0,0c-1.2,6.3-1.3,12.6-1.5,18.9c-0.2,2.4-0.3,4.8-0.3,7.2
	c0,1.1,1.3,1.4,1.8,0.7c0,0.3,0,0.7,0,1c-0.4,0.2-0.7,0.5-0.6,1.1l0.5,2.6c0.2,1.1,2,1,2-0.1c0.2-10.5,1.8-21,0.1-31.4
	C366.8,134,366.5,127.5,364.8,121.1z"/>
<path class="st1" d="M160.8-19.8c-0.9,0.5-1.9,1.1-2.8,1.6c-1.1-1.4-2.1-2.7-3.3-4c-0.9-1-2.4,0.3-1.5,1.3c1,1.2,2,2.4,3,3.7
	c-1.1,0.6-2.2,1.2-3.4,1.7c-1.2,0.6-0.3,2.3,0.9,1.8c1.3-0.6,2.5-1.2,3.7-1.9c0.9,1.2,1.9,2.4,2.9,3.5c0.9,1,2.4-0.3,1.5-1.3
	c-0.9-1-1.8-2.1-2.6-3.2c0.8-0.5,1.7-0.9,2.5-1.4C162.8-18.6,161.9-20.4,160.8-19.8z"/>
<path class="st1" d="M168.2-32.9c-1.2-1.1-2.2-2.5-3.1-3.9c0.1-0.1,0.2-0.1,0.3-0.2c1.1-0.6,0.2-2.4-0.9-1.8
	c-0.2,0.1-0.3,0.2-0.5,0.3c-0.7-1.2-1.4-2.6-2.5-3.5c-1-0.8-2.1,0.8-1.1,1.7c0.8,0.7,1.4,1.8,2,2.9c-0.9,0.6-1.8,1.1-2.7,1.7
	c-1.1,0.6-0.2,2.4,0.9,1.8c1-0.6,1.9-1.2,2.8-1.7c1,1.5,2,3,3.3,4.2C167.6-30.7,169.2-32,168.2-32.9z"/>
<path class="st1" d="M206.3-47.5c-1.1,0.4-2.1,0.8-3.2,1c-0.3-1.1-0.5-2.2-0.7-3.4c-0.2-1.3-2.2-0.9-2,0.4c0.2,1.1,0.5,2.3,0.7,3.4
	c-1.1,0.2-2.3,0.3-3.5,0.2c-1.3,0-1.4,2-0.2,2c1.4,0,2.8-0.1,4.1-0.3c0.4,1.6,0.9,3.1,1.5,4.6c0.5,1.2,2.3,0.3,1.8-0.9
	c-0.5-1.4-0.9-2.7-1.3-4.1c1.2-0.3,2.4-0.7,3.6-1.2C208.4-46.2,207.5-48,206.3-47.5z"/>
<path class="st1" d="M446.1,14.3c-0.3,0.3-0.6,0.5-1,0.7c-0.6-1.3-1.4-2.6-2.3-3.8c-0.8-1-2.3,0.3-1.5,1.3c0.8,1.1,1.5,2.2,2,3.3
	c-1.4,0.5-2.9,0.8-4.4,1c-1.3,0.2-0.9,2.2,0.4,2c1.6-0.3,3.2-0.6,4.7-1.2c0.2,0.6,0.4,1.2,0.5,1.8c0.3,1.3,2.2,0.9,2-0.4
	c-0.2-0.8-0.4-1.5-0.6-2.3c0.5-0.3,1.1-0.7,1.5-1.1C448.4,15,447.1,13.5,446.1,14.3z"/>
<path class="st1" d="M320-225.1c-0.4-0.6-1.2-0.4-1.6,0.1c-1.9,2.5-2.8,5.2-3.2,8.1c-1.9-3.1-4.6-5.5-8.3-6.2
	c-0.7-0.1-1.1,0.6-1.1,1.2c0.8,6.4,6.4,9.8,11.1,13.5c1,0.8,2.1-0.9,1.1-1.7c-3.8-3-8.4-5.9-9.9-10.7c3.5,1.3,5.7,4.7,7,8.1
	c0.3,0.9,1.9,0.6,1.9-0.4c0-3.5,0.4-6.8,2.2-9.7c1.7,3.1,2.1,6.7,2,10.2c0,0.9,0,2.4-0.2,3.7c-0.5,0-0.9,0.3-0.8,0.9
	c0,0.8,0,1.7,0.8,2.1c0.4,0.2,0.9,0,1.2-0.4c1-1.6,1-4.3,1.1-6.1C323.4-216.8,322.5-221.4,320-225.1z"/>
<path class="st1" d="M346.8-224.7c-0.4-1.2-1.7-2-2.9-1.6c-1,0.3-1.7,1.1-2.3,2c-0.1-0.9-0.2-1.9-0.2-2.8c0.1-0.8-1-1.5-1.7-0.8
	c-3.7,3.9-3.5,8.9-1.2,13.6c0.3,0.7,1,0.6,1.5,0.3c0.2,0.5,0.7,0.9,1.3,0.5C344.9-215.8,348.4-220.1,346.8-224.7z M340.4-215.2
	C340.4-215.2,340.3-215.2,340.4-215.2C340.3-215.2,340.3-215.2,340.4-215.2c-1.5-2.9-2.1-6.2-0.8-9c0.2,1.2,0.4,2.4,0.4,3.7
	c0,1.1,1.6,1.5,1.9,0.4c0.3-0.9,2.6-6.4,3.2-3.1C345.8-220,342.9-216.8,340.4-215.2z"/>
<path class="st1" d="M439.7-149.5c-0.4,2.5-0.9,5-1.4,7.5c-1.3-2.5-3.2-5-5.6-6.7c-1.1-0.8-2.2,0.9-1.1,1.7c2.1,1.5,3.9,3.8,5,6.1
	c0.3,0.6,1,0.6,1.4,0.3c-0.5,2.4-0.9,4.8-1.3,7.2c-0.2,1.3,1.8,1.4,2,0.2c0.9-5.4,2.1-10.8,3-16.2
	C441.9-150.6,439.9-150.7,439.7-149.5z"/>
<path class="st1" d="M193.1,202.4c-2.7-4-4.6-8.5-6.9-12.7c-0.6-1.1-2.4-0.2-1.8,0.9c2.4,4.4,4.4,9,7.2,13.1
	C192.3,204.8,193.8,203.5,193.1,202.4z"/>
<path class="st1" d="M204.7,196.4c-2.5-4.3-5.9-7.9-8.4-12.1c-0.6-1.1-2.4-0.2-1.8,0.9c2.5,4.3,5.9,7.9,8.4,12.1
	C203.6,198.3,205.4,197.5,204.7,196.4z"/>
<path class="st1" d="M221.5,188c-2.8-4.2-6.9-7.8-8.1-12.9c-0.3-1.2-2.3-0.9-2,0.4c0,0.2,0.1,0.4,0.2,0.6c0.5,2,1,5-1,6.2
	c-2.3,1.3-4.2-3-4.8-4.4c-0.5-1.2-2.3-0.3-1.8,0.9c1,2.6,3.7,6.9,7.1,5.5c1.5-0.6,2.3-1.9,2.7-3.3c1.7,2.8,4,5.2,5.9,8
	C220.4,190,222.2,189.1,221.5,188z"/>
<path class="st1" d="M256.4,168.5c-6.1-2-13.5,6.1-17.7,9.3c-3.5,2.6-10.3,8.1-12.4,1.2c-1.3-4.2-0.5-9.2-3-12.9
	c-0.7-1.1-2.2,0.3-1.5,1.3c3.4,5,0.2,20.1,10.6,16.6c3.8-1.3,7.1-4.2,10.3-6.6c3.1-2.4,8.8-8.4,13.2-7
	C257,170.8,257.7,168.9,256.4,168.5z"/>
<path class="st1" d="M244.5,164.7c-1-1-2.2-1.7-3.5-2.2c0.2-0.9,0.5-1.8,0.9-2.6c0.6-1.2-1.3-1.8-1.9-0.7c-0.5,0.9-0.8,1.9-1,2.9
	c-1.3-0.2-2.6-0.2-3.8,0c0.9-1,2.1-1.6,3.5-2.2c1.2-0.5,0.3-2.3-0.9-1.8c-2.7,1.1-4.6,2.4-5.7,5.1c-0.4,0.9,0.6,1.5,1.4,1.2
	c1.7-0.6,3.5-0.7,5.2-0.4c-0.1,1.9,0.3,3.8,1.1,5.6c0.2,0.4,0.6,0.6,1.1,0.5c1.6-0.2,3.7-0.5,4.4-2.1
	C246,166.9,245.4,165.7,244.5,164.7z M241.5,168.2c-0.5-1.2-0.7-2.3-0.7-3.5c0.5,0.2,0.9,0.4,1.3,0.6c0.6,0.3,1.5,1,1.6,1.8
	C243.7,167.9,242.4,168.1,241.5,168.2z"/>
<path class="st1" d="M246.6,197c-1.7-3.4-3.3-6.8-5-10.2c-0.6-1.2-2.4-0.3-1.8,0.9c1.7,3.4,3.3,6.8,5,10.2
	C245.4,199,247.2,198.1,246.6,197z"/>
<path class="st1" d="M215.7,215.2c0.3-1.7-0.1-3.3-1.9-4.4c-2.9-1.8-6,0.8-7.5,3.2c-0.7,1.1,1,2.2,1.7,1.1c1-1.6,2.4-3.2,4.5-2.7
	c2.4,0.7,0.9,3.7,0.1,4.9c-0.7,1.1,0.9,2.2,1.7,1.1c1.9-2.6,4.1-1,4.7,1.6c1,4.4-3.5,5.5-6.9,5.2c-1.3-0.1-1.4,1.9-0.2,2
	c5,0.4,10.3-2.1,8.9-7.9C220.2,216.5,218,214.8,215.7,215.2z"/>
<path class="st1" d="M234.4,215.6c-2.4-4.1-5.5-7.6-7.9-11.7c-0.6-1.1-2.4-0.2-1.8,0.9c1.2,2,2.6,3.9,3.9,5.9
	c-3.2,3.2-6.2-1.1-7.3-4.2c-0.4-1.2-2.2-0.3-1.8,0.9c1.5,4.3,6.1,9,10.2,5c1,1.4,1.9,2.8,2.8,4.2
	C233.3,217.6,235.1,216.7,234.4,215.6z"/>
<path class="st1" d="M260.2,190.8c-0.9-2-2.1-3.8-3.2-5.7c0.3-0.6-0.1-1.1-0.7-1.3c-0.8-1.4-1.4-2.8-1.8-4.4c-0.3-1.3-2.3-0.9-2,0.4
	c0.4,1.8,1.2,3.5,2.1,5.1c-1.1,1.2-2.6,2.3-4.2,1.8c-1.8-0.6-2.6-3.2-3.1-4.8c-0.4-1.2-2.3-0.9-2,0.4c0.7,2.5,1.8,5.2,4.4,6.3
	c2.1,0.9,4.2-0.4,5.8-1.9c1,1.6,2,3.3,2.8,5C258.9,192.8,260.7,191.9,260.2,190.8z"/>
<path class="st1" d="M248.1,235.6c-0.8,2.7-3.6,3.9-6.1,5.1c0.8-4.5,0.8-9.1-1.8-13.1c-0.4-0.6-1-0.7-1.6-0.3
	c-1.3,0.9-2.2,1.9-2.8,3.4c-0.4,1.2,1.4,1.9,1.9,0.7c0.3-0.8,0.7-1.3,1.2-1.8c2,3.9,1.6,8.4,0.6,12.7c-0.2,0.7,0.5,1.8,1.4,1.2
	c3.3-2.1,7.7-3.1,8.9-7.3C250.4,235.1,248.5,234.4,248.1,235.6z"/>
<path class="st1" d="M264.5,183.7c-0.9,0.8,0.2,2.1,1.1,1.6c0,0.7-0.1,1.4-0.1,2c-0.1,1.3-0.4,2.6-0.5,4c-0.1,1.3,1.9,1.4,2,0.2
	c0.1-2.1,0.7-4.2,0.6-6.3C267.5,183.3,266,182.3,264.5,183.7z"/>
<path class="st1" d="M254.6,221.4c-0.4-0.2-0.8-0.1-1.1,0.1c-1.3-1-2.9-1.8-4.5-0.9c-1.4,0.8-1.8,2.6-1.9,4.1c0,3.4,2.4,7.2,5.8,7.9
	c2.5,0.5,4.7-1.6,5.3-3.9C259.1,225.6,257.3,222.9,254.6,221.4z M256.5,227.5c-0.1,1.4-1.1,2.8-2.5,3.1c-2.2,0.4-4-2.4-4.5-4.1
	c-0.4-1.1-0.5-2.5,0.1-3.6c0.7-1.4,2.2-0.3,3,0.4c0.4,0.4,0.9,0.2,1.2-0.1C255.3,224.1,256.6,225.5,256.5,227.5z"/>
<path class="st1" d="M277.3,176.2c-1.4,1-2.9,1.7-4.5,2.2c-0.1-2.7-0.9-5.6-2.2-7.8c-0.5-0.8-1.4-1.7-2.5-1.3
	c-1.2,0.5-1.4,2.3-1.6,3.4c-0.2,1.3,1.8,1.4,2,0.2c0.1-0.5,0.2-0.9,0.3-1.4l0,0c0.4,0.6,0.7,1.3,0.9,2c0.7,1.9,1.2,4,1.1,6
	c0,0.6,0.5,1.2,1.2,1.1c2.4-0.5,4.6-1.5,6.6-2.9C279.6,176.9,278.3,175.4,277.3,176.2z"/>
<path class="st1" d="M280,228c-0.4-0.4-1-0.5-1.4-0.1c-0.2,0.2-0.3,0.4-0.5,0.6c0-0.5-0.4-1.1-1.1-0.9c-3.3,0.8-5.7,3.3-5.7,6.8
	c0,3.3,2.8,6.1,5.9,6.6c2.7,0.4,4.5-2.2,5-4.5C282.8,233.5,282.2,230,280,228z M278.3,238.8c-2.1,1-4.5-2-4.9-3.7
	c-0.6-2.7,1.6-5,4-5.5c0.1,0,0.2-0.1,0.3-0.1c-0.1,0.4-0.3,0.8-0.5,1.2c-0.6,1.2,1.3,1.8,1.9,0.7c0.1-0.2,0.2-0.5,0.3-0.8
	C280.8,233,281.1,237.4,278.3,238.8z"/>
<path class="st1" d="M178.2,153.6c-0.2-0.5-0.9-0.7-1.3-0.5c-3.1,2-4.3,5.1-4.4,8.4c-1.5-2.4-3.2-4.7-5.5-5.5
	c-3.8-1.3-5.8,2.9-5.8,6.1c0.2,8,11.2,9.9,17.3,11.4h0.1c0,0.1,0,0.2,0,0.4c0.1,0.9,1.4,1.1,1.8,0.4c0.3-0.5,0.3-1.2,0.4-1.8
	c0.1-0.4-0.1-0.6-0.3-0.8c0.1-1.7,0.4-3.5,0.6-5.1C181.5,162.5,179.9,157.3,178.2,153.6z M179,167.4c-0.1,1.3-0.4,2.7-0.4,4.1
	c-4.5-1.1-9.3-2.4-13.2-4.9c-3.2-2.1-2.4-11,1.8-8c2.7,1.9,4.3,5.5,6,8.3c0.6,0.9,2.2,0.5,1.9-0.6c-1-3.6-1.1-8,1.8-10.6
	C178.4,159.2,179.4,163.6,179,167.4z"/>
<path class="st1" d="M199.5,148c-0.4-0.6-1-0.7-1.6-0.3c-2.3,1.7-3.8,4-4.4,6.7c-0.7-1-1.4-2-2.2-3c-0.4-0.5-1-0.4-1.4-0.1
	c-5.9,4.4-0.8,10.2,4.4,12.1c1.2,0.4,1.9-1.4,0.7-1.9c-3.5-1.3-7.7-4.8-4.5-8c1.2,1.6,2.4,3.2,2.9,5.1c0.3,1.2,2.1,0.9,2-0.4
	c-0.5-3.3,0.6-6.1,2.9-8.2c2.1,4.5-0.4,10-1.6,14.6c-0.3,1.2,1.6,1.9,1.9,0.7C200,159.8,203,153.2,199.5,148z"/>
<path class="st1" d="M162.3,210.9c-1.3,0.2-0.9,2.2,0.4,2c1.6-0.2,5.3,0,2.8,2.4c-1.1,1.1-2.7,1.3-4.1,1.4c-0.8,0.1-1,1.1-0.6,1.6
	c0.8,0.9,1.4,2,2,3c-1.9-0.9-3.5-2.2-5-3.9c-0.4-0.5-1.3-0.5-1.6,0.1c-1.1,2-2.2,3.7-3.8,5.2c-0.2-4-3.5-5.5-7-7.7
	c1.9-0.7,4.2-1.5,5.7-1c0.6,0.2,1.1-0.2,1.3-0.6c0.4,0,0.7-0.2,0.9-0.7c0.4-1.3,0.7-2.6,1-3.9c0.5-1.6,1.1-3.1,1.9-4.6
	c1.6,2,3,4.3,3.5,6.8c0.3,1.3,2.2,0.9,2-0.4c-0.7-3.3-2.6-6.3-4.9-8.7c-0.4-0.5-1.2-0.5-1.6,0.1c-0.4,0.7-0.8,1.4-1.2,2.1
	c-0.5,0-1,0.3-1.1,0.9c-0.2,1.2-0.4,2.4-0.6,3.5c-0.4,1.2-0.7,2.4-0.9,3.6c-2.7-0.7-6,1.1-8.5,1.7c-0.9,0.2-1.1,1.3-0.4,1.8
	c3.4,2.5,8.8,3.6,7.7,9c-0.2,0.7,0.5,1.8,1.4,1.2c2.5-1.6,4.1-3.5,5.6-5.9c2.2,2.3,4.7,3.7,7.8,4.4c0.9,0.2,1.3-1,0.8-1.7
	c-1-1.3-1.7-2.7-2.6-4c2.5-0.6,4.8-2,5.2-4.7C168.9,210.5,164.2,210.6,162.3,210.9z"/>
<path class="st1" d="M407.3,174.3c-10.6,5.1-18.2,13.7-26.1,22.1c-4.4,4.7-9,9-14.8,12.2c-6.1,3.3-13.1,4.8-19.8,6.4
	c-4.4,1-8.7,2.4-13.3,2.1c-4.6-0.2-8.4-3.3-11.9-6c-3.5-2.7-7.1-6.4-12-5.7c-5,0.7-8.4,4-11.3,7.9c-0.8,1,0.9,2.2,1.7,1.1
	c2.3-3.2,4.8-5.8,8.7-6.9c4.2-1.2,7.7,1.9,10.7,4.3c2.9,2.4,6,4.7,9.5,6.2c7.2,3,16.1-0.6,23.2-2.4c11.2-2.8,20.2-7.4,28.4-15.6
	c8.8-8.8,16.3-18.5,27.8-24C409.3,175.6,408.4,173.8,407.3,174.3z"/>
<path class="st1" d="M192.9,226.3c-1.1,0.4-2.1,0.8-3.2,1c-0.3-1.1-0.5-2.2-0.7-3.4c-0.2-1.3-2.2-0.9-2,0.4c0.2,1.1,0.5,2.3,0.7,3.4
	c-1.1,0.2-2.3,0.3-3.5,0.2c-1.3,0-1.4,2-0.2,2c1.4,0,2.8-0.1,4.1-0.3c0.4,1.6,0.9,3.1,1.5,4.6c0.5,1.2,2.3,0.3,1.8-0.9
	c-0.5-1.4-0.9-2.7-1.3-4.1c1.2-0.3,2.4-0.7,3.6-1.2C195,227.6,194.1,225.8,192.9,226.3z"/>
<path class="st1" d="M443.4,214.1c-2.1-0.2-4.3-0.1-6.3,0.2c-1.3,0.2-0.9,2.1,0.4,2c1.3-0.2,2.7-0.2,4.1-0.2
	c-1.3,1.5-3.1,2.2-5.5,2.1c-0.9,0-1.6,1.3-0.6,1.8c1.7,0.9,3.3,2.4,4.2,4.1c-2.1-0.3-4.1-0.9-6.1-1.8c-0.4-0.2-0.9,0-1.2,0.4
	c-1.3,2-2.2,4.2-3.4,6.3c-0.3-2.3-0.6-4.6-1.9-6.5c-1.3-1.9-4-2.2-6.4-2.1c1.4-1.6,3.2-2.3,5.3-1.9c0.1,0,0.2,0,0.3,0
	c0.2,0.9,1.6,1.2,1.9,0.2c0.5-1.8,0.8-3.7,1.1-5.5c0.1-0.5-0.2-0.8-0.5-1c0.1-1.1,0.2-2.2,0.3-3.3c2.2,1.7,4.2,3.8,5.9,6
	c0.8,1,2.3-0.3,1.5-1.3c-2.2-2.7-4.9-5.4-7.7-7.4c-0.6-0.4-1.5,0-1.6,0.7c-0.3,3.2-0.5,6.5-0.7,9.7c-0.1,0-0.1-0.1-0.2-0.1
	c-3.9-0.2-6.9,0.9-8.4,4.6c-0.3,0.8,0.4,1.4,1.1,1.3c2.6-0.2,5.8-0.5,7.2,2.3c1,2.1,1,5,1.3,7.3c0.1,0.9,1.3,1,1.8,0.4
	c0.6-0.8,4.3-8,5-7.7c2.2,1,4.7,1.4,7.1,1.5c0.6,0,1.3-0.5,1.1-1.2c-0.7-2-1.9-3.8-3.5-5.2c2.2-0.5,4-1.9,5.4-4.1
	C444.5,215.1,444.2,214.2,443.4,214.1z"/>
<path class="st1" d="M399.3,245.9c-1.4,0.2-7.7-6.1-9.1-7.4c-3.4-3-7.5-6.2-10.1-10c-0.3-0.5-1-0.8-1.6-0.3c-3.4,3.3-6.4,7-9.4,10.7
	c0.1-2.8-0.1-5.6-0.8-8.3c-0.2-0.6-0.6-0.8-1.2-0.8c-4.5,0.4-8.8,2.2-12.6,4.5c-0.4,0.3-0.8,0.8-0.5,1.3c0.7,1.2,1.7,2.7,2.4,4.1
	c0,3.6,0.5,7.1,1.9,10.5c-0.3,0.3-0.6,0.7-0.9,1.1c-0.2,0.3-0.4,0.5-0.6,0.8c-0.2,0.1-0.3,0.3-0.4,0.4c-0.6-0.3-1.4-0.2-1.5,0.6
	c-0.3,0.3-0.6,0.7-0.3,1.2c3.8,8.2,4.9,17.1,7,25.9c0.3,1.1,1.9,1.1,2-0.1c0-0.4,0-0.8,0-1.3c4.6-0.7,9.2-0.8,13.8-1.2
	c1.3-0.1,0.9-2.1-0.4-2c-4.5,0.4-9.1,0.5-13.6,1.1c-0.1-0.7-0.2-1.3-0.3-2c-0.1-0.5-0.4-0.7-0.8-0.8c-1.4-6.4-2.6-12.9-5.2-19
	c0.3-0.3,0.6-0.6,0.9-1c2-2.7,4.5-4.7,6.8-7c0.3-0.4,0.7-0.7,1-1.1c0.2,0.5,0.5,1,0.7,1.5c0.4,0.9,1.8,0.6,1.9-0.4
	c0.2-1.6,0.4-3.2,0.5-4.7c3.4-4,6.5-8.1,10.2-11.9c2.9,3.9,7,7.1,10.6,10.3c1.9,1.6,7.1,7.7,10,7.2
	C400.9,247.6,400.5,245.6,399.3,245.9z M367,241.3c-0.2,0.2-0.3,0.4-0.5,0.6c-1.8,2.1-3.6,4.1-5.6,5.9c-0.3-0.5-0.9-0.6-1.4-0.4
	c-0.5-1.5-0.7-3-0.9-4.5c0.4-0.1,0.8-0.5,0.7-1.1c-0.5-2.5-0.9-4.9-1-7.5c2.6-1.3,5.3-2.2,8.2-2.6
	C367.2,234.9,367.3,238.1,367,241.3z"/>
<path class="st1" d="M419.9,259.3c-0.4-1.2-2.2-0.3-1.8,0.9c1.6,4.4,1.7,9.7,2.1,14.3c0.1,1.4,1.3,11,0.5,13.8
	c-3.6-1.1-7.6-0.2-11.4-0.7c-1.3-0.2-1.4,1.8-0.2,2c3.4,0.5,7.2-0.4,10.6,0.5c0.1,0.6,0.7,1.1,1.4,0.7c0.1,0,0.1-0.1,0.2-0.1l0,0
	c1,0.5,1.6-0.8,1-1.6c1.1-3.2,0.1-9.5,0-11.5C422.1,271.7,422,264.9,419.9,259.3z"/>
<path class="st1" d="M400.3,273.7c-2.7-0.6-4.6,2.1-5,4.3c-0.1,0.5-0.2,1-0.2,1.5c-0.5-1.4-1-2.7-1.6-4.1c-0.5-1.2-2.3-0.3-1.8,0.9
	c1.8,4.3,3.1,8.7,4,13.2c0.3,1.3,2.2,0.9,2-0.4c-0.4-2.1-2.3-16,3-13.3c2,1,2.9,4.2,3.5,6.1c0.5,1.4,0.8,2.9,1.1,4.4
	c-0.3,0.3-0.4,0.7-0.2,1.1c0.2,0.6,0.6,1.1,0.9,1.6c0.6,0.8,1.9,0.1,1.7-0.8C406.9,283.9,405.8,274.9,400.3,273.7z"/>
<path class="st1" d="M398.5,256.7c-2.4-1.3-6.1-0.5-6.7,2.4c-0.5,2.2,1.3,4.1,3.2,4.8c-0.6,0.4-0.7,1.5,0.2,1.7
	c2.6,0.6,5.9,0.3,6.4-2.8C402.1,260.4,400.6,257.8,398.5,256.7z M399.7,262.3c-0.1,1.1-0.8,1.5-1.6,1.6c0.4-0.6,0.3-1.6-0.6-1.6
	c-1.7,0.1-3.7-0.9-3.7-2.9c0.1-2,3.1-1.5,4.2-0.8C399.1,259.4,399.8,260.9,399.7,262.3z"/>
<path class="st1" d="M320.7,254.1c-0.4-1.2-1.7-2-2.9-1.6c-1,0.3-1.7,1.1-2.3,2c-0.1-0.9-0.2-1.9-0.2-2.8c0.1-0.8-1-1.5-1.7-0.8
	c-3.7,3.9-3.5,8.9-1.2,13.6c0.3,0.7,1,0.6,1.5,0.3c0.2,0.5,0.7,0.9,1.3,0.5C318.8,263,322.3,258.7,320.7,254.1z M314.3,263.6
	C314.3,263.6,314.2,263.6,314.3,263.6C314.2,263.6,314.2,263.6,314.3,263.6c-1.5-2.9-2.1-6.2-0.8-9c0.2,1.2,0.4,2.4,0.4,3.7
	c0,1.1,1.6,1.5,1.9,0.4c0.3-0.9,2.6-6.4,3.2-3.1C319.7,258.8,316.8,262,314.3,263.6z"/>
<path class="st1" d="M172.3,249.1c-2.8-1.8-7.3-0.5-9.2,2.1c-2.1,3,0.4,6.2,3.1,7.8c0.1,0.3,0.4,0.6,0.8,0.7c0.1,0,0.3,0,0.4,0
	c-1.5,0.8-9.4,5.6-6,7.4c1,0.5,2-0.8,1.4-1.5c0.1-0.1,0.1-0.2,0.2-0.3c0.5-0.5,1.1-1,1.6-1.4c1.2-0.9,2.5-1.8,3.8-2.5
	c0.7-0.4,0.6-1.3,0.1-1.7c2.4-0.1,4.6-1.3,5.6-3.7C175.3,253.7,174.6,250.6,172.3,249.1z M172.2,255.7c-0.8,1.6-2.4,2.2-4.1,2.2
	c-0.1,0-0.1-0.1-0.2-0.1c-2.2-1-4.9-3.7-2.6-6c1.5-1.5,4.8-2.1,6.5-0.5C172.9,252.4,172.9,254.3,172.2,255.7z"/>
<path class="st1" d="M181.4,264.7c-2-2.5-4.7-4-6.8-6.3c-0.9-0.9-2.4,0.4-1.5,1.3c2.1,2.3,4.9,3.9,6.8,6.3
	C180.7,267,182.2,265.7,181.4,264.7z"/>
<path class="st1" d="M176.7,282.1c-1.6-2.5-3.7-4.6-6.1-6.4l0,0c0.5-0.4,0.9-0.8,1.3-1.3c0.7-0.8-0.3-1.7-1.2-1.4
	c0.1-3.7-0.3-7.4,0.1-11c0.1-1.3-1.9-1.4-2-0.2c-0.4,4.3,0.2,8.7-0.2,13c-1.6,1.2-3.5,2-5.3,3c-1.4,0.8-3,1.7-3.5,3.3
	c-0.4,1.2,1.5,1.9,1.9,0.7c0.5-1.8,3.6-2.8,5.1-3.5c0.5-0.3,1-0.6,1.5-0.9c0,0.1,0,0.2,0,0.3c-0.2,1.2,1.6,1.4,1.9,0.3
	c1.8,1.4,3.4,3.1,4.7,5.1C175.6,284.1,177.4,283.2,176.7,282.1z"/>
<path class="st1" d="M276.6,253.1c0.3-0.3,0.3-0.8,0-1.2c-1-1.2-2.3-1.9-3.7-2.5c-0.6-0.4-1.1-0.9-1.7-1.3c-0.3-0.2-0.6-0.2-0.9-0.1
	c-1-0.3-1.9-0.6-2.8-1c0.2-0.5,0.1-1.1-0.6-1.3c-12.4-3.9-24.7,2.8-30.1,14.2c-5.7,12,1.6,24.7,13.6,28.8c4.2,1.4,8.6,1.4,12.7,0.2
	c0.4,0.6,1.4,0.7,1.8-0.2c0.1-0.2,0.2-0.3,0.2-0.5c5.6-2.1,10.5-6.2,13.7-11.3C284,268.7,282.3,259.8,276.6,253.1z M250.1,248.9
	c-0.3,0.7-0.7,1.5-1.2,2.2c-0.4-0.4-1.1-0.4-1.5,0.1c-0.6,0.7-1.3,1.3-2.1,1.9c-0.2-0.3-0.4-0.5-0.7-0.5
	C246.2,251.1,248.1,249.9,250.1,248.9z M243.4,253.7c-0.3,0.8-0.4,1.5,0.3,1.9c-0.7,0.1-1.4,0.1-2.2,0.2
	C242.1,255.1,242.7,254.4,243.4,253.7z M238.3,261.6c0.5-1.3,1.1-2.6,1.8-3.8c2.4-0.1,4.7-0.5,7.1-0.7c0.1,0.2,0.2,0.4,0.4,0.5
	l4.5,3.1c-0.3,0.2-0.6,0.6-0.5,1c0.6,3,1.4,5.9,1.6,9c-0.4-0.1-0.8,0-1.1,0.4c-1.2,1.7-3,3-4.6,4.3l-0.1,0.1
	c-2.5-1.5-4.7-3.2-5.2-6.4c-0.1-0.5-0.7-1-1.2-0.8c-1.4,0.5-2.7,0-4.1,0.3C237.1,266.3,237.5,264,238.3,261.6z M239,271.9
	c-0.3,0.2-0.6,0.5-0.5,1c0.1,0.4,0.2,0.9,0.3,1.3l0.7,3.5c-1.2-2.2-2-4.6-2.3-7.1c1.2-0.3,2.3-0.1,3.4-0.1c0,0.1,0,0.1,0,0.1
	c-0.4-0.1-0.9,0-1.2,0.4C239.3,271.3,239.1,271.6,239,271.9z M242.1,281.4c0-0.1,0.1-0.3,0-0.5c-0.1-0.6-0.2-1.2-0.2-1.7
	c0.9,1.5,1.8,2.9,2.6,4.4C243.6,282.9,242.8,282.2,242.1,281.4z M243.5,278c0.3-0.2,0.5-0.5,0.4-1c-0.2-0.7-0.3-1.4-0.6-2.1
	c0.9,0.8,1.9,1.5,3,2.2c-0.9,0.7-1.3,1.9-1.5,3.2C244.4,279.6,243.9,278.8,243.5,278z M263.3,286.8c-1.1,0.3-2.2,0.6-3.3,0.7
	c0.5-0.4,1.1-0.9,1.6-1.4c0.6-0.2,1.2-0.3,1.8-0.4C263.3,286.1,263.3,286.4,263.3,286.8z M262.8,274.5L262.8,274.5
	c-0.6,0.6-0.3,1.4,0.3,1.7l0.6,3.1c-0.1,0-0.2,0-0.3,0.1c-2.9,1.7-6,2.6-8.1,5.4c-0.7,1,0.6,1.9,1.5,1.3c1.2-0.8,2.6-1.5,3.9-2
	c-0.1,0.1-0.2,0.2-0.3,0.3c-1.8,0.6-3.4,1.6-4.5,3.3c-1.3-0.1-2.6-0.2-3.9-0.5c-2.2-0.5-4.2-1.4-6-2.4c0.4-0.1,0.6-0.4,0.6-0.8
	c-0.1-1.6-0.6-5.9,2.3-5.3c1,0.2,1.5-1.4,0.6-1.8c-0.1,0-0.2-0.1-0.3-0.1c1.4-1.1,2.8-2.3,3.9-3.7c0,0.7,0.8,1.3,1.4,0.9
	c2.4-1.3,4.7-1.3,7.3-0.5c1.2,0.4,1.9-1.5,0.7-1.9c-2.5-0.8-5-0.9-7.4-0.1c-0.1-3.1-0.9-6.1-1.5-9.1c2.1-0.6,4.1-1.6,6.2-2.1
	c1.2-0.3,0.9-2.3-0.4-2c-1.8,0.4-3.5,1.2-5.3,1.8c-0.1-0.2-0.2-0.3-0.4-0.5l-3.9-2.6c0.5-0.1,0.9-0.4,0.9-0.9
	c0.1-2.7,0.6-5.2,1.5-7.7c0.1-0.2,0.1-0.3,0-0.5c3.4-1.2,7.1-1.5,10.7-1c0.5,0.6,1.1,1.1,1.8,1.4c-0.2,0.5,0.2,1.3,0.8,1.4
	c2.5,0.5,4.8,1,6.8,2.3c-3.9,0.4-7.1-0.7-10-4.2c-0.6-0.7-2-0.1-1.7,0.8c0.4,1.7,1.9,4.2,3.7,5.3c-0.6,0.6-1.3,1-2.1,1.5
	c-0.6,0.4-0.6,1.1-0.3,1.5c-0.1,0.2-0.1,0.5,0,0.8c0.3,0.6,0.6,1.1,1,1.6c-0.3,0-0.6,0.1-0.8,0.4c-1.5,1.8-2.8,3.8-4.1,5.7
	c0.2-0.9,0.4-1.9,0.7-2.8c0.3-1.2-1.5-1.9-1.9-0.7c-0.6,2.3-1.2,4.4-0.9,6.8c0.1,0.9,1.3,1,1.8,0.4c1.3-1.6,2.5-3.3,3.6-5
	c-0.4,1.7-1.1,3.3-1.7,4.9c-0.5,1.2,1.3,1.8,1.9,0.7c0.6-1.1,1.4-2.1,2.3-3c0.3,1.7,0.1,3.4-0.5,5.2c-0.1,0.4,0,0.8,0.3,1
	c-0.6,0-1.2,0.4-1,1.1L262.8,274.5z M265.4,264.5c-0.3-0.8-1.3-0.7-1.7-0.1l0,0c0.3-1,0.4-2.1,0.5-3.2c0.8,1.3,1.6,2.7,2.3,4.1
	c0.4,0.9,0.6,1.7,0.5,2.6c-0.2-0.2-0.5-0.2-0.8-0.2C266,266.7,265.8,265.6,265.4,264.5z M270.1,268.9c2,0.4,4.1,0.7,6.1,1.3
	c-0.1,1.3-0.2,2.6-0.2,3.9c0,1,1,1.3,1.6,0.8c-0.2,0.3-0.3,0.6-0.5,0.9c-1.8,3.1-4.3,5.7-7.2,7.7l-0.1-0.1c-1.5-1.3-3.2-1.9-4.9-2
	c-0.2-0.2-0.5-0.3-0.7-0.3l0.1-0.1c0.1,0,0.1-0.1,0.2-0.2c0.6,0.2,1.5-0.2,1.3-1.1l-0.9-4.7c2.2-2.2,4.5-5,4-8.2
	c-0.5-3.7-3.2-6.7-5-9.9l0,0c1.1-0.7,2-1.4,2.7-2.3c0.1,0,0.3,0,0.4,0c0.4-0.1,0.8-0.5,0.8-0.9c2,0.5,4.2,0.5,6.6,0
	c0.1,0.1,0.2,0.3,0.3,0.4c0.1,0.2,0.3,0.3,0.5,0.4c1.9,2.3,3.2,4.8,3.9,7.5c-0.5,0.7-0.9,1.5-1.3,2.3c-0.5,0-1,0.3-1.1,0.9
	c-0.2,1-0.3,1.9-0.4,2.9c-2-0.6-4.1-0.9-6.1-1.3C269,266.7,268.8,268.7,270.1,268.9z M278,274.2c0.2-1.1,0.3-2.2,0.5-3.3
	c0.2,0,0.4-0.2,0.5-0.3c0.1,0,0.3,0,0.4-0.1C279,271.7,278.6,273,278,274.2z"/>
</svg>
