<?xml version="1.0" encoding="utf-8"?>
<!-- Generator: Adobe Illustrator 19.0.0, SVG Export Plug-In . SVG Version: 6.00 Build 0)  -->
<svg version="1.1" id="Layer_1" xmlns="http://www.w3.org/2000/svg" xmlns:xlink="http://www.w3.org/1999/xlink" x="0px" y="0px"
	 viewBox="0 0 630.3 647.4" style="enable-background:new 0 0 630.3 647.4;" xml:space="preserve">
<style type="text/css">
	.st0{opacity:0.4;}
	.st1{fill:#4D4D4D;}
	.st2{fill:#E6E6E6;}
	.st3{opacity:0.8;fill:#E6E6E6;}
	.st4{fill:url(#SVGID_1_);}
	.st5{opacity:0.5;}
	.st6{fill:url(#SVGID_2_);}
	.st7{fill:url(#SVGID_3_);}
</style>
<g class="st0">
	<path class="st1" d="M151.9,227.6c-28.5,15.2-40.4,48.6-26.5,74.7c13.9,26,48.3,34.8,76.8,19.6c28.5-15.2,40.4-48.6,26.5-74.7
		C214.8,221.2,180.4,212.4,151.9,227.6z M158.5,240c21-11.2,46.3-4.7,56.6,14.5c10.2,19.2,1.5,43.8-19.5,55
		c-21,11.2-46.3,4.7-56.6-14.5C128.8,275.9,137.5,251.2,158.5,240z"/>
	<path class="st1" d="M167.9,232.1c6.6-3.5,9.1-11.7,5.6-18.3L165,198c-3.5-6.6-11.7-9.1-18.3-5.6L125.1,204
		c-6.6,3.5-9.1,11.7-5.6,18.3l8.4,15.8c3.5,6.6,11.7,9.1,18.3,5.6L167.9,232.1z"/>
	<path class="st1" d="M143.2,213.4c4.2-2.3,5.9-7.5,3.6-11.8L54.6,28.7c-2.3-4.2-7.5-5.9-11.8-3.6l-0.3,0.2
		c-4.2,2.3-5.9,7.5-3.6,11.8L131.1,210c2.3,4.2,7.5,5.9,11.8,3.6L143.2,213.4z"/>
	<path class="st1" d="M89,92.8c2.6-1.4,3.6-4.6,2.2-7.2L91,85c-1.4-2.6-4.6-3.6-7.2-2.2l-18.6,9.9c-2.6,1.4-3.6,4.6-2.2,7.2l0.3,0.5
		c1.4,2.6,4.6,3.6,7.2,2.2L89,92.8z"/>
	<g>
		<path class="st1" d="M49.6,49.3l9.1,17.1c2.7,5.1,1.4,10.9-3.7,13.7l-16.3,8.7c-4.3,2.3-9.3,1.8-12.5-1.8l15.1-8.1
			c2.6-1.4,2.8-4.1,1.7-6.1l-0.2-0.4c-1.1-2-3.3-3.1-5.9-1.7L21,79.2l-4-7.4L33,63.2c2.6-1.4,2.9-3.9,1.8-6l-0.2-0.4
			c-1.1-2-3.4-3.3-6-1.9L14,62.8c-0.3-4.1,2.1-7.5,5.8-9.5l16.3-8.7C41.2,41.9,46.9,44.2,49.6,49.3z"/>
	</g>
</g>
<g class="st0">
	<path class="st1" d="M240.6,380c-6.3-8.9-3.9-20.8,5-27.1l48.3-34.4c8.9-6.3,20.9-4.8,27.3,4.1l179.6,252.2
		c6.3,8.9,4.2,21.3-4.7,27.6l-48.3,34.4c-8.9,6.3-21.3,4.3-27.6-4.6L240.6,380z"/>
	<g>
		<path class="st1" d="M285.5,350.6c-6.7-3.1-14.7-0.1-17.7,6.6c-3.1,6.7-0.1,14.7,6.6,17.7c6.7,3.1,14.7,0.1,17.7-6.6
			C295.2,361.7,292.3,353.7,285.5,350.6z"/>
		<g>
			<g>
				<g>
					<path class="st1" d="M273.3,355.2c1.1-2.4,2.8-4.3,4.9-5.7c-4.4,0.6-8.4,3.4-10.3,7.7c-3.1,6.7-0.1,14.7,6.6,17.7
						c4.3,2,9.1,1.4,12.9-1c-2.4,0.3-5,0-7.4-1.1C273.2,369.9,270.2,362,273.3,355.2z"/>
				</g>
			</g>
		</g>
	</g>
</g>
<g class="st0">
	<path class="st1" d="M294,346.4c-9.2-5.8-11.5-17.8-5.7-27l31.5-50.2c5.8-9.2,17.6-12.4,26.8-6.6l262.1,164.7
		c9.2,5.8,12,18.1,6.2,27.3l-31.5,50.2c-5.8,9.2-18,12.1-27.3,6.3L294,346.4z"/>
	<g>
		<path class="st1" d="M324.4,302.1c-7.4-0.3-13.6,5.5-13.9,12.9c-0.3,7.4,5.5,13.6,12.9,13.9c7.4,0.3,13.6-5.5,13.9-12.9
			S331.8,302.4,324.4,302.1z"/>
		<g>
			<g>
				<g>
					<path class="st1" d="M314.8,311.1c0.1-2.6,1-5.1,2.4-7.1c-3.8,2.2-6.5,6.3-6.6,11.1c-0.3,7.4,5.5,13.6,12.9,13.9
						c4.8,0.2,9-2.2,11.5-5.8c-2.1,1.2-4.6,1.9-7.2,1.8C320.3,324.7,314.5,318.5,314.8,311.1z"/>
				</g>
			</g>
		</g>
	</g>
</g>
<g class="st0">
	<path class="st1" d="M273.3,356.5c-0.3,0.4-1.4,1.2-3.5,1.3c-5.1,0.2-12.8-4.6-22.3-13.9c-5.2-5-11.5-10.6-18.2-16.4
		c-22.5-19.7-35.9-32.2-32.5-39c1-2.4,2.4-3.8,4.4-4.1c3.4-0.6,6.6,2.3,7,2.7c0.6,0.6,0.6,1.5,0.1,2c-0.5,0.6-1.5,0.6-2,0
		c-0.7-0.6-2.7-2.2-4.4-1.9c-1,0.2-1.8,1-2.4,2.6c0,0,0,0.1-0.1,0.1c-2.8,5.3,16.3,22,31.7,35.5c6.7,5.9,13,11.4,18.3,16.5
		c11.8,11.5,17.6,13.1,20.1,13c1,0,1.5-0.4,1.5-0.4l0,0c0.5-0.6,1.4-0.7,2-0.2c0.6,0.5,0.8,1.4,0.3,2
		C273.4,356.4,273.4,356.4,273.3,356.5z"/>
	<path class="st1" d="M265.6,339.7c0,0-0.1,0.1-0.1,0.1c-0.6,0.5-1.5,0.3-2.1-0.3c-12.8-15.3-43.9-40.1-44.2-40.4
		c-0.7-0.5-0.8-1.5-0.4-2.1c0.5-0.6,1.4-0.7,2.1-0.1c1.3,1,31.7,25.3,44.7,40.9C266.1,338.4,266.1,339.2,265.6,339.7z"/>
	<path class="st1" d="M311.9,309.4c-0.2,0.4-0.7,1.5-2.8,2.1c-5,1.6-15.2-0.4-29.5-5.9c-7.8-3-17-6.1-26.7-9.3
		c-32.8-11-52.7-18.3-52.8-25.2c-0.3-2.4,0.5-4.1,2.2-4.9c3.1-1.5,7.8,0.2,8.4,0.4c0.9,0.3,1.4,1.1,1.2,1.8
		c-0.2,0.7-1.2,0.9-2.1,0.6c-1-0.4-3.9-1.1-5.3-0.4c-0.9,0.4-1.2,1.4-1,2.9c0,0,0,0.1,0,0.1c0,5.4,27.8,14.8,50.2,22.4
		c9.8,3.3,19,6.4,26.9,9.4c17.8,6.8,24.4,6.5,26.8,5.8c1-0.3,1.3-0.8,1.3-0.8l0,0c0.2-0.7,1-1,1.9-0.7c0.9,0.3,1.5,1.1,1.3,1.7
		C311.9,309.3,311.9,309.3,311.9,309.4z"/>
	<path class="st1" d="M297.2,297.6c0,0.1,0,0.1-0.1,0.1c-0.4,0.6-1.4,0.7-2.4,0.3c-22-10.2-68.5-23.8-68.9-24
		c-1-0.3-1.7-1.1-1.6-1.8c0.1-0.7,1.1-1,2.1-0.7c1.9,0.6,47.3,13.9,69.7,24.3C296.9,296.2,297.4,297,297.2,297.6z"/>
</g>
<g>
	<path class="st2" d="M149.8,211.8c-28.5,15.2-40.4,48.6-26.5,74.7c13.9,26,48.3,34.8,76.8,19.6c28.5-15.2,40.4-48.6,26.5-74.7
		C212.7,205.4,178.3,196.6,149.8,211.8z M156.4,224.2c21-11.2,46.3-4.7,56.6,14.5c10.2,19.2,1.5,43.8-19.5,55
		c-21,11.2-46.3,4.7-56.6-14.5C126.7,260,135.4,235.4,156.4,224.2z"/>
	<path class="st2" d="M165.8,216.2c6.6-3.5,9.1-11.7,5.6-18.3l-8.4-15.8c-3.5-6.6-11.7-9.1-18.3-5.6L123,188.1
		c-6.6,3.5-9.1,11.7-5.6,18.3l8.4,15.8c3.5,6.6,11.7,9.1,18.3,5.6L165.8,216.2z"/>
	<path class="st2" d="M141.1,197.6c4.3-2.3,5.9-7.5,3.6-11.8L52.5,12.9C50.2,8.6,44.9,7,40.7,9.3l-0.3,0.2
		c-4.2,2.3-5.9,7.5-3.6,11.8L129,194.2c2.3,4.2,7.5,5.9,11.8,3.6L141.1,197.6z"/>
	<path class="st2" d="M86.9,76.9c2.6-1.4,3.6-4.6,2.2-7.2l-0.3-0.5c-1.4-2.6-4.6-3.6-7.2-2.2L63,76.9c-2.6,1.4-3.6,4.6-2.2,7.2
		l0.3,0.5c1.4,2.6,4.6,3.6,7.2,2.2L86.9,76.9z"/>
	<g>
		<path class="st2" d="M47.6,33.5l9.1,17.1c2.7,5.1,1.4,10.9-3.7,13.7L36.6,73c-4.3,2.3-9.3,1.8-12.5-1.8l15.1-8.1
			c2.6-1.4,2.8-4.1,1.7-6.1l-0.2-0.4c-1.1-2-3.3-3.1-5.9-1.7l-15.9,8.5l-4-7.4l15.9-8.5c2.6-1.4,2.9-3.9,1.8-6L32.5,41
			c-1.1-2-3.4-3.3-6-1.9l-14.6,7.8c-0.3-4.1,2.1-7.5,5.8-9.5L34,28.7C39.1,26,44.8,28.3,47.6,33.5z"/>
	</g>
</g>
<g>
	<path class="st3" d="M224.6,380.1c-6.3-8.9-3.9-20.8,5-27.1l48.3-34.4c8.9-6.3,20.9-4.8,27.3,4.1L484.8,575
		c6.3,8.9,4.2,21.3-4.7,27.6l-48.3,34.4c-8.9,6.3-21.3,4.3-27.6-4.6L224.6,380.1z"/>
	<g>
		
			<radialGradient id="SVGID_1_" cx="233.4936" cy="334.4137" r="13.3962" gradientTransform="matrix(0.9331 -0.3595 0.3595 0.9331 -74.0995 134.8698)" gradientUnits="userSpaceOnUse">
			<stop  offset="0" style="stop-color:#FF0000"/>
			<stop  offset="1" style="stop-color:#C1272D"/>
		</radialGradient>
		<path class="st4" d="M269.6,350.8c-6.7-3.1-14.7-0.1-17.7,6.6c-3.1,6.7-0.1,14.7,6.6,17.7c6.7,3.1,14.7,0.1,17.7-6.6
			C279.3,361.8,276.3,353.9,269.6,350.8z"/>
		<g class="st5">
			<path class="st1" d="M257.3,355.4c1.1-2.4,2.8-4.3,4.9-5.7c-4.4,0.6-8.4,3.4-10.3,7.7c-3.1,6.7-0.1,14.7,6.6,17.7
				c4.3,2,9.1,1.4,12.9-1c-2.4,0.3-5,0-7.4-1.1C257.2,370,254.2,362.1,257.3,355.4z"/>
		</g>
	</g>
</g>
<path class="st3" d="M278,346.5c-9.2-5.8-11.5-17.8-5.7-27l31.5-50.2c5.8-9.2,17.6-12.4,26.8-6.6l262.1,164.7
	c9.2,5.8,12,18.1,6.2,27.3L567.5,505c-5.8,9.2-18,12.1-27.3,6.3L278,346.5z"/>
<g>
	
		<radialGradient id="SVGID_2_" cx="291.4515" cy="306.0475" r="13.3989" gradientTransform="matrix(0.9331 -0.3595 0.3595 0.9331 -74.0995 134.8698)" gradientUnits="userSpaceOnUse">
		<stop  offset="0" style="stop-color:#FF0000"/>
		<stop  offset="1" style="stop-color:#C1272D"/>
	</radialGradient>
	<circle class="st6" cx="307.9" cy="315.7" r="13.4"/>
	<g class="st5">
		<radialGradient id="SVGID_3_" cx="306.6934" cy="316.5865" r="12.343" gradientUnits="userSpaceOnUse">
			<stop  offset="0" style="stop-color:#FF0000"/>
			<stop  offset="1" style="stop-color:#C1272D"/>
		</radialGradient>
		<path class="st7" d="M298.8,311.2c0.1-2.6,1-5.1,2.4-7.1c-3.8,2.2-6.5,6.3-6.6,11.1c-0.3,7.4,5.5,13.6,12.9,13.9
			c4.8,0.2,9-2.2,11.5-5.8c-2.1,1.2-4.6,1.9-7.2,1.8C304.3,324.8,298.5,318.6,298.8,311.2z"/>
	</g>
</g>
<path class="st2" d="M257.4,356.6c-0.3,0.4-1.4,1.2-3.4,1.4c-4.9,0.3-12.3-4.2-21.3-12.9c-4.9-4.8-10.9-10-17.2-15.5
	c-21.3-18.6-34-30.4-30.5-37.1c1-2.4,2.5-3.8,4.4-4.2c3.3-0.7,6.4,2.1,6.7,2.4c0.6,0.5,0.6,1.4,0.1,2c-0.5,0.6-1.4,0.6-2,0
	c-0.6-0.6-2.6-2-4.2-1.7c-0.9,0.2-1.7,1.1-2.4,2.6c0,0,0,0.1-0.1,0.1c-2.8,5.2,15.3,21,29.9,33.7c6.4,5.6,12.4,10.8,17.3,15.6
	c11.2,10.9,16.8,12.3,19.2,12.1c1-0.1,1.5-0.4,1.5-0.4h0c0.5-0.6,1.4-0.7,2-0.2c0.6,0.5,0.7,1.4,0.2,2
	C257.4,356.5,257.4,356.6,257.4,356.6z"/>
<path class="st2" d="M250.3,340.5c0,0-0.1,0.1-0.1,0.1c-0.6,0.5-1.5,0.4-2-0.3c-12-14.6-41.6-37.9-41.9-38.2c-0.6-0.5-0.8-1.4-0.3-2
	c0.5-0.6,1.4-0.7,2-0.2c1.2,1,30.1,23.8,42.4,38.6C250.8,339.2,250.8,340,250.3,340.5z"/>
<path class="st2" d="M302.6,312.1c-0.1,0.4-0.6,1.3-2.4,1.9c-4.4,1.4-13.3-0.7-26-6c-6.9-2.9-15-5.9-23.6-9.1
	c-28.9-10.7-46.5-17.7-46.7-24.2c-0.3-2.2,0.3-3.7,1.9-4.5c2.7-1.3,6.9,0.3,7.3,0.5c0.8,0.3,1.3,1.1,1.1,1.7c-0.2,0.6-1,0.8-1.8,0.5
	c-0.9-0.3-3.4-1.1-4.7-0.5c-0.8,0.4-1,1.3-0.8,2.7c0,0,0,0.1,0,0.1c0.1,5,24.6,14.1,44.4,21.5c8.6,3.2,16.8,6.2,23.7,9.1
	c15.7,6.6,21.5,6.4,23.6,5.8c0.9-0.3,1.1-0.7,1.1-0.7l0,0c0.1-0.6,0.9-0.9,1.7-0.6c0.8,0.3,1.3,1,1.2,1.6
	C302.6,312,302.6,312,302.6,312.1z"/>
<path class="st2" d="M289.4,300.9c0,0,0,0.1-0.1,0.1c-0.3,0.5-1.2,0.6-2.1,0.2c-19.5-9.8-60.4-23.2-60.8-23.3
	c-0.9-0.3-1.5-1-1.4-1.7c0.1-0.6,0.9-0.9,1.8-0.6c1.7,0.5,41.7,13.6,61.5,23.6C289.2,299.7,289.6,300.4,289.4,300.9z"/>
<g>
	<path class="st2" d="M380,338l-9.1,15.5c-2.7,4.6-2.3,8,0.8,9.8c3.2,1.9,6.3,0.7,9-4.1l9.1-15.5l6.1,3.5l-8.8,15.1
		c-4.9,8.3-11.4,9.8-18.4,5.7c-6.8-4-8.6-10.1-3.6-18.6l8.8-15L380,338z"/>
	<path class="st2" d="M389.3,371.2c1.1,1.8,3.2,4.1,5.8,5.6c2.8,1.6,5,1.3,6-0.4c1-1.7,0.3-3.4-2.3-6.4c-3.6-4.2-5-8.4-2.7-12.3
		c2.7-4.6,8.6-5.9,14.9-2.2c3,1.8,4.9,3.7,6.1,5.4l-4.2,4.1c-0.8-1.1-2.2-3-4.9-4.6c-2.6-1.5-4.6-1.1-5.4,0.3
		c-1,1.7,0.1,3.4,2.8,6.7c3.7,4.5,4.5,8.3,2.3,12.1c-2.6,4.5-8.4,6.3-15.7,2c-3.1-1.8-5.6-4.4-6.7-6.1L389.3,371.2z"/>
	<path class="st2" d="M429.7,387.9l-9.9-5.8l-3.7,6.4l11.1,6.5l-2.9,5l-17.2-10l15.7-26.9l16.6,9.7l-2.9,5l-10.5-6.1l-3.3,5.6
		l9.9,5.8L429.7,387.9z"/>
	<path class="st2" d="M443.9,375.8c2.1,0.8,5.2,2.3,8.4,4.2c4,2.3,6.4,4.6,7.5,7.2c0.9,2.2,0.6,4.6-0.8,7.1c-2,3.4-5.8,4.4-8.6,3.9
		l-0.1,0.1c1.4,1.9,1.4,4.3,0.7,7.1c-0.9,3.5-2.2,7.5-2.2,8.9l-6.2-3.6c0-1,0.6-3.6,1.8-7.4c1.2-3.8,0.6-5.4-1.8-6.9l-1.8-1.1
		l-6.2,10.6l-6-3.5L443.9,375.8z M443.1,390.9l2.4,1.4c3,1.8,5.7,1.3,7.1-1.1c1.4-2.5,0.5-4.7-2.3-6.4c-1.5-0.9-2.4-1.2-2.9-1.4
		L443.1,390.9z"/>
	<path class="st2" d="M452,416.2l15.7-26.9l7.1,4.2l-0.2,13.1c-0.1,3.8-0.4,8.1-1,11.8l0.1,0.1c1.7-3.8,3.7-7.5,6-11.5l4.6-7.9
		l5.6,3.3l-15.7,26.9l-6.4-3.7l0.3-13.7c0.1-3.8,0.4-8.3,0.9-12.2l-0.1,0c-1.9,3.6-4.1,7.5-6.6,11.9l-4.7,8.1L452,416.2z"/>
	<path class="st2" d="M489.9,429.1l-6,5.8l-6.3-3.7l24-22.1l8,4.7l-7.4,31.8l-6.6-3.8l2-8.1L489.9,429.1z M499.4,428.5l1.7-6.7
		c0.5-1.9,1.1-4.2,1.7-6l-0.1,0c-1.3,1.4-2.9,3.2-4.3,4.5l-4.9,4.8L499.4,428.5z"/>
	<path class="st2" d="M534.6,450.6c1.8-3.3,3.9-7.3,6.2-11.2l-0.1-0.1c-2.8,2.9-6.2,6.1-9.1,8.7l-9.4,8.6l-4.8-2.8l3.2-12.1
		c1-3.7,2.3-8,3.7-11.9l-0.1,0c-2.3,3.5-4.8,7.6-7,10.9l-6.5,9.9l-5.6-3.3l17.5-25.9l8.1,4.7l-2.6,10.5c-1,3.6-2.1,7.5-3.3,11
		l0.1,0.1c2.6-2.7,5.6-5.7,8.2-8.2l8.1-7.3l7.9,4.6l-14.3,27.8l-6-3.5L534.6,450.6z"/>
	<path class="st2" d="M562.3,465.4l-9.9-5.8l-3.7,6.4l11.1,6.5l-2.9,5l-17.2-10l15.7-26.9l16.6,9.7l-2.9,5l-10.5-6.1l-3.3,5.6
		l9.9,5.8L562.3,465.4z"/>
</g>
<g>
	<g>
		<path class="st2" d="M320.9,418.9c1.6,1.5,3.6,3.7,6.1,7.1c2.5,3.4,3.7,6.4,3.6,9c-0.1,2.5-1.3,5.1-3.7,6.9
			c-2.4,1.8-5,2.5-7.5,2.1c-3.2-0.6-6.1-2.8-8.5-6.1c-0.5-0.7-1-1.4-1.3-2l-8.8,6.5l-4.1-5.5L320.9,418.9z M313.8,432.7
			c0.2,0.6,0.6,1.2,1.2,2c2.2,3,5,3.7,7.6,1.8c2.3-1.7,2.4-4.3,0.4-7c-0.8-1.1-1.5-1.8-1.9-2.1L313.8,432.7z"/>
		<path class="st2" d="M321.4,456.9l-7.6,2.9l-4.3-5.8l30.1-10.8l5.4,7.3l-18.9,25.9l-4.4-6l4.9-6.6L321.4,456.9z M330.1,460
			l4.1-5.4c1.1-1.5,2.6-3.3,3.8-4.8l-0.1-0.1c-1.7,0.7-3.9,1.7-5.6,2.4l-6.3,2.4L330.1,460z"/>
		<path class="st2" d="M334.4,475.7c0.3,2.1,1.3,4.9,3.1,7.3c1.9,2.5,4,3.1,5.6,1.9c1.5-1.1,1.5-3,0.4-6.7
			c-1.6-5.1-1.3-9.5,2.2-12.1c4.2-3.1,10-2,14.3,3.8c2.1,2.8,3,5.2,3.4,7.2l-5.4,2.1c-0.3-1.3-0.9-3.6-2.7-6c-1.8-2.4-3.8-2.8-5-1.8
			c-1.6,1.2-1.2,3.1-0.1,7.1c1.6,5.5,0.9,9.2-2.6,11.8c-4.1,3.1-10,2.5-15-4.2c-2.1-2.8-3.4-6.1-3.7-8.1L334.4,475.7z"/>
		<path class="st2" d="M349.1,495.4c0.3,2.1,1.3,4.9,3.1,7.3c1.9,2.5,4,3.1,5.6,1.9c1.5-1.1,1.5-3,0.4-6.7
			c-1.6-5.1-1.3-9.5,2.2-12.1c4.2-3.1,10-2,14.3,3.8c2.1,2.8,3,5.2,3.4,7.2l-5.4,2.1c-0.3-1.3-0.9-3.6-2.7-6c-1.8-2.4-3.8-2.8-5-1.8
			c-1.6,1.2-1.2,3.1-0.1,7.1c1.6,5.5,0.9,9.2-2.6,11.8c-4.1,3.1-10,2.5-15-4.2c-2.1-2.8-3.4-6.1-3.7-8.1L349.1,495.4z"/>
		<path class="st2" d="M360.8,523.1L381,499l4.4,5.9l-8.7,9.4c-2.5,2.7-5.3,5.6-7.5,7.8l0.1,0.1c3-1.6,6.3-3.2,9.8-4.8l11.6-5.4
			l4.4,5.9l-8.9,9.7c-2.5,2.7-4.8,5-7.3,7.4l0.1,0.1c3-1.7,6.3-3.3,9.6-4.9l11.5-5.5l4.2,5.6l-29.3,11.9l-4.5-6l9-9.9
			c2.1-2.3,4.1-4.4,6.7-6.8l-0.1-0.1c-3.1,1.6-5.7,3-8.6,4.2l-12.3,5.5L360.8,523.1z"/>
		<path class="st2" d="M411,564.3c-8,6-16.6,4.7-21.9-2.4c-5.4-7.3-3.1-15.6,3.9-20.8c7.4-5.5,16.4-4.9,21.8,2.4
			C420.4,550.9,417.8,559.3,411,564.3z M397.5,546.8c-4.8,3.6-6.5,8.4-3.7,12.1c2.8,3.8,8,3.2,12.7-0.3c4.4-3.3,6.6-8.2,3.8-12
			C407.4,542.8,402.3,543.3,397.5,546.8z"/>
		<path class="st2" d="M425.4,559.2c1.6,1.6,3.8,4.1,6,7c2.7,3.6,4.1,6.6,4,9.4c-0.1,2.3-1.2,4.4-3.5,6.1c-3.1,2.3-6.9,1.7-9.3,0.2
			l-0.1,0.1c0.6,2.2-0.4,4.4-2.1,6.7c-2.2,2.8-4.8,6-5.4,7.2l-4.2-5.7c0.4-0.9,2-3,4.4-6c2.6-2.9,2.6-4.6,1-6.9l-1.2-1.7l-9.7,7.2
			l-4.1-5.5L425.4,559.2z M419,572.6l1.6,2.2c2.1,2.8,4.7,3.4,6.8,1.8c2.3-1.7,2.2-4.1,0.4-6.6c-1-1.3-1.7-2-2.1-2.4L419,572.6z"/>
		<path class="st2" d="M441.5,580.8c1.8,1.8,4,4.3,6.1,7.1c3.5,4.7,4.9,8.3,4.9,12c0,4-1.8,7.8-6.2,11c-4.7,3.5-9.2,4.2-13,3.3
			c-4.1-1-8-4.2-11.6-9c-2.1-2.9-3.5-5.1-4.3-6.6L441.5,580.8z M425.6,601.3c0.2,0.6,0.8,1.3,1.3,2c3.7,5.1,8.9,6.3,14.8,1.9
			c5.1-3.8,5.6-8.8,2-13.5c-0.9-1.2-1.6-2-2.1-2.3L425.6,601.3z"/>
	</g>
</g>
<path class="st2" d="M309.2,402.3l-0.8-1.1l12.9-9.3c1.8-1.3,2.2-3.9,0.7-6l-9.1-12.6c-1.5-2.1-4.5-2.9-6.2-1.7l-12.9,9.3l-0.4-0.6
	c-1.3-1.8-3.5-2.8-5.2-1.6l-20.7,14.9c-1.7,1.2-2.1,4.1-0.8,5.9l15.8,22c1.3,1.8,4.4,2.5,6.1,1.3l20.7-14.9
	C310.9,406.7,310.5,404.1,309.2,402.3z M287.7,403.7l-5.3,3.8c-0.8,0.6-2.4,0.3-3-0.5l-0.1-0.1c-0.6-0.8-0.1-2.1,0.7-2.7l5.4-3.9
	c-0.6-2,0.3-3.6,1.8-4.7c2.1-1.5,5-1,6.5,1c1.5,2.1,1.1,5.1-0.9,6.6C291.1,404.5,288.8,404.1,287.7,403.7z M306.6,398.7l-11.1-15.4
	l10.9-7.9c1.3-1,4.1-0.4,5.2,1.1l6.5,9c1.1,1.5,0.8,4.4-0.5,5.3L306.6,398.7z"/>
<g>
	<circle class="st2" cx="344.2" cy="325.7" r="10.7"/>
	<path class="st2" d="M348.7,359.5c6.1-11.5,2.6-23.8-7.1-29.1c-9.7-5.2-22-1.3-28.1,10.1L348.7,359.5z"/>
</g>
</svg>
