<?xml version="1.0" encoding="utf-8"?><svg xmlns="http://www.w3.org/2000/svg" xmlns:xlink="http://www.w3.org/1999/xlink" version="1.1" class="page" pageAlignment="none" x="0px" y="0px" width="320px" height="640px" viewBox="0 0 320 640" enable-background="new 0 0 320 640" xml:space="preserve"><defs/><style type="text/css"/><style type="text/css"/><g type="LAYER" name="workspace" id="workspace" locked="true"/><g id="Layer 01" type="LAYER" name="Layer 01"><path transform="matrix(0.9919974992042628 -0.12625752085515146 0.12625752085515146 0.9919974992042628 12.946590836663745 -3.9706673805684574)" width="405.8874458874459" height="398.9610389610389" stroke-miterlimit="3" stroke="#5F5F5F" fill="#707070" d="M303.37662337662334,-22.164502164502167 L-56.796536796536884,376.79653679653677 L344.9350649350648,90.04329004329003 L349.090909090909,-9.696969696969695 "/><path transform="matrix(0.9919974992042628 -0.12625752085515146 0.12625752085515146 0.9919974992042628 18.037447021629646 -17.23940762667616)" width="405.8874458874459" height="398.9610389610389" stroke-miterlimit="3" stroke="#000000" stroke-opacity="0.02666666666666667" fill="#4B60FF" d="M303.37662337662334,-22.164502164502167 L-56.796536796536884,376.79653679653677 L344.9350649350648,90.04329004329003 L349.090909090909,-9.696969696969695 "/><path transform="matrix(0.9929156105633815 0.11882167436771457 -0.11882167436771457 0.9929156105633815 57.19773541717575 -241.08341011460934)" width="348.2442108144005" height="172.40594732182922" stroke-width="1.3869954954849248" stroke-miterlimit="3" stroke="#000000" stroke-opacity="0.02666666666666667" fill="#686868" d="M-18.32864267444222,381.3592083070878 L297.48796956209924,208.95326098525857 L-50.756241252301265,310.5243442859928 "/><path transform="matrix(0.9929156105633815 0.11882167436771457 -0.11882167436771457 0.9929156105633815 34.20528469585804 -244.01304043501153)" width="348.2442108144003" height="172.40594732182922" stroke-width="1.3869954954849248" stroke-miterlimit="3" stroke="#000000" stroke-opacity="0.02666666666666667" fill="#FA4B4B" d="M-18.328642674442108,381.3592083070878 L297.487969562099,208.95326098525857 L-50.756241252301265,310.52434428599275 "/><path transform="matrix(0.9995758370533967 -0.029122945919007215 0.029122945919007215 0.9995758370533967 -44.371032480411486 45.99908376458282)" width="342.42864830164785" height="255.90705254568778" stroke-width="1.2969068949467517" stroke-miterlimit="3" stroke="#000000" stroke-opacity="0.02666666666666667" fill="#646464" d="M-18.022560436929098,352.02084451959547 L292.52001939938316,96.1137919739077 L-49.908628902264695,297.90992418963276 "/><path transform="matrix(0.9996957463471033 -0.024666064451142448 0.024666064451142448 0.9996957463471033 -59.68140569072625 47.22669394798673)" width="342.354007191105" height="253.4484120862311" stroke-width="1.2966514941593663" stroke-miterlimit="3" stroke="#000000" stroke-opacity="0.02666666666666667" fill="#FA4B4B" d="M-18.01863195742692,351.9516662440432 L292.45625715515416,98.50325415781214 L-49.89775003595082,297.57076997457335 "/></g></svg>